<svg width="375" height="259" viewBox="0 0 375 259" fill="none" xmlns="http://www.w3.org/2000/svg">
<path fill-rule="evenodd" clip-rule="evenodd" d="M119.128 234.915C119.966 236.903 120.033 239.916 117.975 240.493C115.258 239.141 113.323 236.303 113.037 233.254C101.898 233.746 90.7587 234.237 79.6195 234.729C75.4793 234.911 70.3694 235.804 69.1369 239.806C68.6556 236.653 64.5384 235.928 61.384 235.971C51.9577 236.099 42.5315 236.227 33.1052 236.355C32.9615 232.002 32.8178 227.65 32.6741 223.297C32.6462 222.453 32.6267 221.569 33.0007 220.815C34.0047 218.79 36.8881 219.005 39.0679 219.526C38.3673 212.439 37.6666 205.352 36.9659 198.266C33.7157 199.018 34.7613 190.588 31.4899 191.239C29.5095 191.633 27.6424 189.794 27.2197 187.797C26.7971 185.801 27.4136 183.746 28.0236 181.8C29.8622 181.232 32.4971 181.794 34.3604 181.232C36.2237 180.67 37.3592 179.583 37.2941 177.618C35.9424 136.796 33.0242 96.0283 28.5483 55.436C25.6907 56.6794 22.288 54.4354 21.1383 51.5115C19.9887 48.5877 20.4812 45.2945 21.0826 42.2073C21.2937 41.1239 21.5529 39.9727 22.3395 39.2069C23.3422 38.2307 24.8833 38.1695 26.275 38.1663C69.9452 38.0658 113.616 37.9653 157.286 37.8648C158.238 37.8626 159.286 37.8963 159.99 38.5448C160.633 39.1377 160.802 40.0784 160.936 40.9482C161.455 44.3304 161.965 47.8566 160.944 51.1199C159.923 54.3831 156.872 57.2704 153.511 56.8712C155.35 97.1586 157.188 137.446 159.026 177.734C162.022 177.071 165.526 178.193 167.02 180.902C168.515 183.611 167.152 187.704 164.159 188.382C166.068 189.988 165.147 193.406 163.046 194.745C160.945 196.083 158.273 195.946 155.8 195.718C153.327 195.489 150.688 195.246 148.495 196.424C149.013 201.279 148.948 206.197 148.304 211.036C150.431 209.753 153.309 209.887 155.31 211.362C156.699 212.387 157.961 209.894 157.948 208.155C157.918 204.106 157.887 200.056 157.857 196.006C160.025 201.037 160.628 206.744 159.561 212.125C162.234 212.336 164.907 212.547 167.581 212.757C168.385 212.821 169.255 212.913 169.845 213.469C170.431 214.023 170.584 214.891 170.686 215.696C171.344 220.894 171.246 226.19 170.395 231.359C153.073 230.145 136.637 230.533 119.419 232.799C118.986 232.799 118.29 232.927 119.128 234.915Z" fill="white"/>
<ellipse rx="0.289599" ry="1.16832" transform="matrix(0.932192 0.361964 -0.354797 0.934943 98.6533 144.564)" fill="#4F2222"/>
<path fill-rule="evenodd" clip-rule="evenodd" d="M234.004 150.542C234.004 150.542 231.574 94.7063 232.984 66.8149C233.137 63.7698 233.306 60.6489 232.414 57.7362C231.523 54.8235 229.326 52.1145 226.363 51.5502C225.779 46.3253 225.858 41.025 226.595 35.82C269.289 36.0445 311.982 36.2691 354.675 36.4937C354.83 39.7797 354.984 43.0657 355.138 46.3516C355.284 49.4629 354.066 53.8679 351.049 53.2483C349.823 52.9965 349.234 54.7076 349.17 55.9714C348.64 66.352 348.111 76.7327 347.581 87.1134C346.007 117.964 344.432 148.861 345.489 179.735C348.217 179.873 350.946 180.01 353.674 180.148C354.398 181.881 355.138 183.725 354.868 185.586C354.598 187.448 352.89 189.231 351.071 188.838C352.656 192.576 348.427 197.263 344.603 196.007C344.909 200.476 345.216 204.946 345.523 209.416C345.581 210.259 345.667 211.173 346.233 211.795C347.998 213.735 351.779 210.74 353.643 212.583C353.895 216.98 354.147 221.376 354.4 225.772C354.468 226.971 354.476 228.337 353.614 229.164C353.036 229.718 352.203 229.882 351.418 230.017C336.103 232.636 320.404 232.945 305 230.932C305.827 234.938 306.467 239.671 303.666 242.625C301.601 244.804 301.82 247.93 302.75 246.454C302.57 248.369 300.809 249.996 298.907 250.004C297.275 250.178 297.6 247.42 298.714 246.201C301.159 243.524 304.321 241.128 305.099 237.57C305.877 234.011 297.36 235.826 297.601 238.004C296.06 236.246 296.261 233.218 298.021 231.683C293.433 232.742 288.673 233.032 283.993 232.539C289.904 231.633 295.815 230.726 301.727 229.82C300.044 225.109 280.861 237.582 280.436 246.959C279.516 241.563 280.194 235.898 282.36 230.88C281.839 230.043 281.163 229.304 280.379 228.714C285.769 226.579 274.945 238.282 273.187 233.836C267.264 234.518 261.34 235.2 255.416 235.883C255.63 236.98 256.19 238.006 256.994 238.774C253.481 239.289 249.953 235.903 250.277 232.327C248.55 235.48 251.215 239.239 253.96 241.538C256.704 243.838 260.031 246.421 259.914 250.023C257.187 250.991 253.835 249.024 253.311 246.148C254.302 248.016 253.173 243.927 251.976 244.31C249.754 245.02 248.13 251.304 249.199 249.215C249.082 252.024 246.394 254.452 243.621 254.254C241.657 250.35 244.903 244.894 249.233 244.822C251.017 244.793 252.076 242.53 251.606 240.788C251.136 239.047 249.695 237.777 248.327 236.618C247.406 237.835 246.217 238.842 244.871 239.545C244.828 237.492 245.227 235.429 246.033 233.544C244.213 235.635 243.186 238.416 243.206 241.202C242.278 238.906 242.36 236.212 243.429 233.978C238.044 234.906 232.576 235.341 227.113 235.277C226.214 228.965 225.314 222.654 224.414 216.343C227.792 215.42 231.291 214.951 234.791 214.955C233.037 204.339 234.791 204.044 232.612 199.265C232.316 198.615 231.265 199.856 230.55 198.393C229.834 196.931 229.515 193.121 229.515 193.121C229.515 193.121 226.594 192.69 226.363 191.894C225.46 188.773 224.444 185.985 226.642 184.306C228.984 182.516 232.653 184.05 235.107 182.421C234.591 180.359 235.295 173.157 233.615 168.679C232.292 165.155 229.538 166.731 226.606 164.182C224.703 162.528 222.628 160.843 221.797 158.449C220.967 156.055 222.1 152.775 224.584 152.426C227.014 152.084 228.851 154.515 230.093 156.655C229.534 154.767 231.028 152.552 232.97 152.39C235.373 160.054 234.004 150.542 234.004 150.542Z" fill="white"/>
<ellipse cx="275.913" cy="135.789" rx="0.578337" ry="1.17002" fill="#4F2222"/>
<path fill-rule="evenodd" clip-rule="evenodd" d="M67.4653 71.6171C67.7167 71.8164 67.7609 72.1841 67.5639 72.4384L59.9707 82.2438C59.7737 82.4982 59.4102 82.5428 59.1587 82.3436C58.9073 82.1444 58.8631 81.7767 59.0601 81.5223L66.6534 71.7169C66.8503 71.4625 67.2138 71.4179 67.4653 71.6171Z" fill="#E7EAEE"/>
<path fill-rule="evenodd" clip-rule="evenodd" d="M77.3557 74.425C77.5988 74.6346 77.6279 75.0038 77.4207 75.2497L67.2584 87.3113C67.0512 87.5572 66.6862 87.5867 66.4431 87.3771C66.2 87.1675 66.1709 86.7983 66.378 86.5524L76.5404 74.4908C76.7476 74.2449 77.1126 74.2154 77.3557 74.425Z" fill="#E7EAEE"/>
<path fill-rule="evenodd" clip-rule="evenodd" d="M93.4776 75.2211C93.7302 75.4189 93.7764 75.7863 93.5809 76.0418L85.2217 86.9629C85.0262 87.2183 84.6629 87.2651 84.4103 87.0673C84.1578 86.8695 84.1116 86.502 84.3071 86.2466L92.6663 75.3255C92.8618 75.0701 93.2251 75.0233 93.4776 75.2211Z" fill="#E7EAEE"/>
<path fill-rule="evenodd" clip-rule="evenodd" d="M116.041 74.3391C116.3 74.5282 116.358 74.8938 116.171 75.1558L109.364 84.6941C109.177 84.9561 108.816 85.0152 108.557 84.826C108.298 84.6369 108.24 84.2713 108.426 84.0093L115.233 74.471C115.42 74.209 115.782 74.1499 116.041 74.3391Z" fill="#E7EAEE"/>
<path fill-rule="evenodd" clip-rule="evenodd" d="M270.679 72.6326C270.906 72.8601 270.907 73.2305 270.682 73.4599L262.711 81.5909C262.486 81.8204 262.12 81.8219 261.893 81.5944C261.666 81.3669 261.664 80.9965 261.889 80.7671L269.861 72.636C270.086 72.4066 270.452 72.4051 270.679 72.6326Z" fill="#E7EAEE"/>
<path fill-rule="evenodd" clip-rule="evenodd" d="M281.707 74.8972C281.928 75.13 281.921 75.5004 281.691 75.7244L271.217 85.9211C270.987 86.1452 270.621 86.1381 270.4 85.9053C270.178 85.6725 270.185 85.3022 270.415 85.0781L280.889 74.8814C281.119 74.6574 281.485 74.6644 281.707 74.8972Z" fill="#E7EAEE"/>
<path fill-rule="evenodd" clip-rule="evenodd" d="M306.868 80.0109C307.088 80.2444 307.08 80.6147 306.85 80.838L299.945 87.5186C299.714 87.7419 299.348 87.7337 299.127 87.5002C298.906 87.2667 298.914 86.8964 299.145 86.673L306.05 79.9925C306.281 79.7692 306.647 79.7774 306.868 80.0109Z" fill="#E7EAEE"/>
<path fill-rule="evenodd" clip-rule="evenodd" d="M320.003 80.4807C320.22 80.7174 320.207 81.0876 319.973 81.3075L312.813 88.04C312.579 88.2599 312.213 88.2464 311.996 88.0098C311.778 87.7731 311.792 87.403 312.026 87.183L319.186 80.4506C319.42 80.2306 319.785 80.2441 320.003 80.4807Z" fill="#E7EAEE"/>
<path fill-rule="evenodd" clip-rule="evenodd" d="M193.941 123.334C193.71 121.283 193.611 119.217 193.644 117.153C192.361 116.645 190.933 116.728 189.558 116.819C184.307 117.166 179.057 117.514 173.806 117.861C172.938 117.918 172.052 117.974 171.212 117.747C170.354 117.514 169.372 117.013 168.661 117.552C168.045 118.019 168.096 118.953 168.209 119.723C168.42 121.173 168.632 122.622 168.843 124.071C168.879 124.318 168.927 124.587 169.116 124.747C169.29 124.894 169.536 124.908 169.762 124.914C177.129 125.112 184.503 125.043 191.866 124.709C192.798 124.666 194.047 124.273 193.941 123.334V123.334Z" fill="white"/>
<path fill-rule="evenodd" clip-rule="evenodd" d="M219.139 88.6132C219.302 87.9675 218.705 87.335 218.061 87.196C217.417 87.057 216.755 87.2599 216.116 87.4223C213.57 88.0694 206.497 88.0666 205.536 88.0733C202.726 88.0929 199.915 88.1124 197.105 88.132C196.439 88.1366 195.875 88.691 195.639 89.3207C195.402 89.9504 195.424 90.6448 195.448 91.3179C195.474 92.0133 195.499 92.7086 195.525 93.404C195.54 93.8186 195.594 94.303 195.946 94.5163C196.098 94.6086 196.281 94.6304 196.457 94.6492C199.182 94.9399 201.928 95.0174 204.664 94.8808C209.505 94.6392 214.348 93.7294 219.168 94.2328C218.686 92.403 218.676 90.448 219.139 88.6132Z" fill="white"/>
<path fill-rule="evenodd" clip-rule="evenodd" d="M306.222 233.48C306.279 233.078 306.604 232.761 306.964 232.58C307.944 232.087 309.181 232.43 310.008 233.156C310.835 233.881 311.325 234.918 311.717 235.953C311.856 236.321 311.972 236.779 311.715 237.075C311.618 237.186 311.483 237.254 311.348 237.312C310.216 237.796 308.861 237.741 307.796 237.121C306.731 236.501 305.996 235.315 305.96 234.073C306.421 234.135 306.647 234.652 306.887 235.055C307.71 236.44 309.687 236.963 311.075 236.162C309.761 234.817 308.051 233.872 306.222 233.48Z" fill="#00160A"/>
<path fill-rule="evenodd" clip-rule="evenodd" d="M299.45 221.64C299.849 221.139 300.248 220.638 300.647 220.138C300.383 222.387 298.556 224.356 296.353 224.765C295.674 224.237 294.521 224.588 294.244 225.409C293.835 225.493 293.423 225.168 293.288 224.768C293.154 224.368 293.24 223.925 293.392 223.531C293.622 222.938 293.992 222.413 294.36 221.895C295.597 220.148 297.029 218.27 299.11 217.839C299.648 217.727 300.255 217.737 300.688 218.079C301.122 218.42 301.242 219.178 300.809 219.519C300.307 218.838 299.297 218.726 298.513 219.032C297.729 219.338 297.119 219.967 296.534 220.577C295.968 221.169 295.402 221.761 294.836 222.352C294.524 222.677 294.24 223.278 294.63 223.501C295.074 222.536 296.417 222.458 297.194 221.741C297.867 221.119 298.318 219.93 299.217 220.085C298.748 221.177 297.897 222.097 296.85 222.641C296.401 222.875 295.878 223.078 295.655 223.536C296.349 223.857 297.189 223.676 297.834 223.264C298.48 222.853 298.971 222.241 299.45 221.64Z" fill="#00160A"/>
<path fill-rule="evenodd" clip-rule="evenodd" d="M280.631 219.325C281.728 219.521 282.918 218.899 283.395 217.881C283.871 216.862 283.593 215.537 282.748 214.803C282.992 214.501 283.463 214.463 283.805 214.645C284.146 214.827 284.369 215.18 284.497 215.547C284.908 216.725 284.45 218.07 283.649 219.021C282.849 219.972 281.753 220.609 280.68 221.226C280.183 221.513 279.663 221.806 279.092 221.841C278.522 221.877 277.887 221.571 277.736 221.013C277.687 220.831 277.698 220.621 277.811 220.471C278.367 219.734 279.676 221.483 280.274 220.78C280.131 220.218 279.987 219.656 279.843 219.094C280.102 219.185 280.362 219.277 280.631 219.325Z" fill="#00160A"/>
<path fill-rule="evenodd" clip-rule="evenodd" d="M270.574 217.597C269.35 217.446 268.479 216.108 268.613 214.868C268.746 213.629 269.707 212.585 270.85 212.117C271.2 211.974 271.637 211.89 271.925 212.136C272.214 212.382 272.016 213.02 271.655 212.907C270.772 212.631 269.929 213.528 269.685 214.429C269.529 215.003 269.519 215.653 269.834 216.155C270.148 216.658 270.855 216.929 271.357 216.62C271.719 216.397 272.088 216.913 272.174 217.333C272.26 217.753 272.45 218.307 272.871 218.257C273.563 217.909 273.822 217.069 274.217 216.396C274.611 215.723 275.503 215.138 276.111 215.622C276.189 215.685 276.259 215.77 276.263 215.871C276.268 215.98 276.195 216.075 276.125 216.159C275.449 216.967 274.702 217.715 273.895 218.39C273.356 218.842 272.608 219.279 271.998 218.93C271.421 218.6 271.232 217.678 270.574 217.597Z" fill="#00160A"/>
<path fill-rule="evenodd" clip-rule="evenodd" d="M276.465 230.28C275.866 229.742 275.256 229.19 274.865 228.483C274.474 227.776 274.336 226.873 274.715 226.159C274.818 225.964 274.978 225.775 275.195 225.74C275.411 225.705 275.66 225.908 275.597 226.121C275.321 227.05 275.722 228.141 276.531 228.662C276.844 228.863 277.264 229.24 277.001 229.505C276.688 229.82 277.258 230.247 277.694 230.319C278.531 230.458 279.369 230.596 280.206 230.734C280.042 231.432 279.191 231.771 278.498 231.622C277.804 231.472 277.241 230.978 276.71 230.501C276.628 230.427 276.547 230.354 276.465 230.28Z" fill="#00160A"/>
<path fill-rule="evenodd" clip-rule="evenodd" d="M245.629 251.506C245.712 250.987 245.796 250.468 245.879 249.949C245.926 249.651 245.976 249.346 246.118 249.081C246.287 248.763 246.572 248.529 246.85 248.303C247.613 247.683 248.375 247.063 249.137 246.443C249.738 246.905 249.858 247.886 249.389 248.483C249.35 247.933 248.997 247.417 248.502 247.186C247.948 248.851 246.944 250.36 245.629 251.506Z" fill="#00160A"/>
<path fill-rule="evenodd" clip-rule="evenodd" d="M304.462 243.892C304.743 245.419 305.322 246.89 306.154 248.197C306.809 249.225 306.21 250.571 305.61 251.633C305.339 251.74 305.083 251.384 305.128 251.094C305.173 250.804 305.383 250.572 305.519 250.313C306.051 249.294 305.39 248.085 304.803 247.097C304.217 246.108 303.713 244.76 304.462 243.892L304.462 243.892Z" fill="#00160A"/>
<path fill-rule="evenodd" clip-rule="evenodd" d="M195.308 124.678C195.297 125.032 195.28 125.404 195.097 125.706C194.763 126.257 194.031 126.365 193.394 126.414C184.8 127.065 176.166 127.159 167.56 126.694C167.453 126.688 167.343 126.682 167.247 126.634C167.009 126.517 166.946 126.212 166.91 125.948C166.67 124.179 166.431 122.411 166.192 120.642C166.02 119.377 165.875 117.985 166.569 116.918C167.511 115.468 169.509 115.295 171.225 115.271C179.022 115.16 186.819 115.05 194.616 114.94C194.945 114.935 195.333 114.961 195.508 115.243C195.608 115.406 195.605 115.611 195.599 115.803C195.502 118.761 195.405 121.719 195.308 124.678ZM193.941 123.334C193.711 121.283 193.611 119.217 193.644 117.153C192.361 116.645 190.934 116.728 189.558 116.819C184.308 117.166 179.057 117.514 173.806 117.861C172.938 117.919 172.052 117.974 171.212 117.747C170.354 117.514 169.372 117.013 168.661 117.552C168.046 118.02 168.096 118.953 168.209 119.723C168.42 121.173 168.632 122.622 168.843 124.071C168.879 124.318 168.927 124.587 169.116 124.747C169.29 124.895 169.536 124.908 169.763 124.914C177.13 125.112 184.504 125.043 191.866 124.709C192.798 124.666 194.047 124.273 193.941 123.334Z" fill="#4F2222"/>
<path fill-rule="evenodd" clip-rule="evenodd" d="M298.156 236.288C298.549 234.888 299.244 233.576 300.18 232.471C300.163 233.972 299.383 235.443 298.156 236.288L298.156 236.288Z" fill="#00160A"/>
<path fill-rule="evenodd" clip-rule="evenodd" d="M301.678 244.751C301.421 245.551 301.026 246.305 300.515 246.969C300.298 247.251 300.02 247.538 299.666 247.556C300.126 246.473 300.654 245.313 301.678 244.751L301.678 244.751Z" fill="#00160A"/>
<path fill-rule="evenodd" clip-rule="evenodd" d="M307.98 249.035C308.548 249.437 309.116 249.84 309.684 250.242C309.811 250.332 309.952 250.493 309.862 250.62C308.999 250.536 308.218 249.879 307.98 249.035Z" fill="#00160A"/>
<path fill-rule="evenodd" clip-rule="evenodd" d="M309.021 248.811C308.433 248.993 307.935 248.019 308.421 247.639C308.751 247.962 308.994 248.375 309.117 248.823L309.021 248.811Z" fill="#00160A"/>
<path fill-rule="evenodd" clip-rule="evenodd" d="M301.551 232.064C301.979 232.612 301.993 233.403 301.762 234.062C301.531 234.72 301.09 235.279 300.656 235.824C300.251 236.333 299.739 236.891 299.095 236.842C298.985 236.399 299.392 236.018 299.723 235.708C300.732 234.762 301.392 233.445 301.551 232.064Z" fill="#00160A"/>
<path fill-rule="evenodd" clip-rule="evenodd" d="M306.331 246.424C307.049 245.762 308.126 245.528 309.05 245.833C309.973 246.137 310.707 246.969 310.901 247.932C311.043 248.638 311.114 249.626 311.823 249.696C311.95 250.158 311.137 250.332 310.844 249.956C310.55 249.581 310.603 249.049 310.529 248.577C310.332 247.311 308.979 246.36 307.738 246.612C307.231 246.715 306.541 246.902 306.331 246.424L306.331 246.424Z" fill="#00160A"/>
<path fill-rule="evenodd" clip-rule="evenodd" d="M252.836 254.542C252.493 253.428 253.281 252.146 252.796 251.086C252.637 250.737 252.358 250.463 252.114 250.169C251.306 249.199 250.849 247.936 250.846 246.668C250.845 246.282 251.018 245.773 251.398 245.81C251.898 245.86 251.77 246.614 251.737 247.121C251.674 248.083 252.503 248.826 253.024 249.633C253.801 250.835 253.919 252.444 253.327 253.749C253.109 254.23 253.541 254.73 253.841 255.162C254.623 256.288 254.558 257.94 253.691 259C253.366 258.779 253.351 258.293 253.47 257.916C253.59 257.538 253.807 257.184 253.83 256.788C253.877 255.958 253.081 255.337 252.836 254.542H252.836Z" fill="#00160A"/>
<path fill-rule="evenodd" clip-rule="evenodd" d="M269.713 137.153C270.163 136.651 270.931 137.197 271.558 137.435C272.773 137.896 274.113 137.009 275.398 137.196C274.682 138.689 272.662 138.863 271.036 138.65C270.628 138.597 270.2 138.522 269.886 138.255C269.572 137.987 269.437 137.46 269.713 137.153L269.713 137.153Z" fill="#00160A"/>
<path fill-rule="evenodd" clip-rule="evenodd" d="M272.874 132.398C272.636 132.091 272.672 131.657 272.72 131.269C272.754 130.994 272.789 130.718 272.823 130.443C272.904 129.794 273.168 128.969 273.814 128.964C274.488 128.959 274.746 129.849 274.76 130.532C274.772 131.124 274.741 131.76 274.386 132.231C274.031 132.701 273.236 132.863 272.874 132.398V132.398Z" fill="#00160A"/>
<path fill-rule="evenodd" clip-rule="evenodd" d="M268.817 129.313C269.134 129.387 269.207 129.804 269.214 130.133C269.236 131.224 269.013 132.642 267.952 132.844C267.433 131.853 267.53 130.564 268.192 129.664C268.343 129.459 268.571 129.256 268.817 129.313L268.817 129.313Z" fill="#00160A"/>
<path fill-rule="evenodd" clip-rule="evenodd" d="M270.914 130.744C270.994 130.884 270.941 131.06 270.895 131.215C270.444 132.742 270.943 134.511 272.122 135.567C271.241 136.131 270.009 135.353 269.704 134.344C269.399 133.335 269.725 132.254 270.049 131.252C270.181 130.842 270.702 130.37 270.914 130.744L270.914 130.744Z" fill="#00160A"/>
<path fill-rule="evenodd" clip-rule="evenodd" d="M220.761 95.818C219.213 95.9177 217.665 96.0174 216.117 96.1171C209.42 96.5484 202.723 96.9796 196.026 97.4109C195.081 97.4718 193.81 97.2777 193.701 96.326C193.362 93.3777 193.424 90.3826 193.885 87.4513C194.077 86.2294 195.641 85.903 196.864 85.8622C204.261 85.6156 211.659 85.3689 219.057 85.1222C219.967 85.0919 220.775 85.7995 221.157 86.6362C221.539 87.4729 221.584 88.4209 221.622 89.3417C221.696 91.1034 221.77 92.8651 221.843 94.6268C221.856 94.9331 221.859 95.2714 221.663 95.5053C221.451 95.7578 221.087 95.797 220.761 95.818ZM219.139 88.6132C219.302 87.9675 218.705 87.335 218.061 87.196C217.417 87.0569 216.755 87.2599 216.116 87.4223C213.57 88.0694 206.497 88.0666 205.536 88.0733C202.726 88.0929 199.915 88.1124 197.105 88.132C196.439 88.1366 195.875 88.691 195.639 89.3207C195.402 89.9504 195.424 90.6448 195.448 91.3179C195.474 92.0133 195.499 92.7086 195.525 93.404C195.54 93.8186 195.594 94.303 195.946 94.5163C196.098 94.6086 196.281 94.6304 196.457 94.6492C199.182 94.9399 201.928 95.0174 204.664 94.8808C209.505 94.6392 214.348 93.7294 219.169 94.2328C218.686 92.403 218.676 90.448 219.139 88.6132Z" fill="#4F2222"/>
<path fill-rule="evenodd" clip-rule="evenodd" d="M108.677 215.626C108.362 215.729 107.889 215.745 107.832 215.415C108.311 214.838 109.301 214.811 109.809 215.362C109.538 215.661 109.086 215.776 108.708 215.642L108.677 215.626Z" fill="#00160A"/>
<path fill-rule="evenodd" clip-rule="evenodd" d="M275.905 127.346C276.335 127.81 276.729 128.332 276.91 128.941C277.029 129.346 276.459 129.661 276.073 129.5C275.687 129.339 275.471 128.935 275.241 128.582C275.011 128.23 274.672 127.872 274.256 127.902C273.834 127.933 273.559 127.35 273.767 126.977C273.975 126.604 274.479 126.487 274.885 126.608C275.291 126.729 275.616 127.033 275.905 127.346L275.905 127.346Z" fill="#00160A"/>
<path fill-rule="evenodd" clip-rule="evenodd" d="M126.262 204.573C125.756 202.114 125.194 199.642 124.134 197.37C123.075 195.099 121.47 193.016 119.295 191.806C118.148 191.168 116.882 190.79 115.675 190.28C114.198 189.655 112.804 188.828 111.544 187.828C112.669 187.186 114.063 187.789 115.209 188.39C117.882 189.79 120.616 191.238 122.632 193.499C125.316 196.509 126.42 200.604 127.218 204.575C126.929 204.743 126.551 204.742 126.262 204.573Z" fill="#00160A"/>
<path fill-rule="evenodd" clip-rule="evenodd" d="M113.73 225.802C113.736 225.606 113.779 225.374 113.957 225.295C114.522 225.046 114.712 226.658 115.221 226.306C115.814 225.898 116.65 226.791 116.341 227.445C116.032 228.1 115.057 228.193 114.488 227.752C113.919 227.311 113.712 226.527 113.73 225.802Z" fill="#00160A"/>
<path fill-rule="evenodd" clip-rule="evenodd" d="M111.842 218.687C111.205 217.609 111.434 216.221 111.887 215.051C112.161 214.345 112.58 213.605 113.295 213.379C114.01 213.153 114.949 213.851 114.667 214.553C113.999 214.77 113.304 215.027 112.85 215.567C112.395 216.108 112.297 217.019 112.825 217.485C113.087 217.717 113.035 218.142 112.919 218.474C112.802 218.806 112.642 219.164 112.759 219.496C112.876 219.828 113.451 219.936 113.534 219.594C113.624 219.217 114.202 219.232 114.475 219.504C114.749 219.776 114.857 220.178 115.11 220.47C115.362 220.762 115.909 220.87 116.081 220.523C116.243 220.192 116.775 220.214 116.997 220.507C117.219 220.8 117.174 221.23 116.998 221.554C116.615 222.257 115.636 222.548 114.938 222.165C114.528 221.94 114.245 221.54 113.898 221.225C113.55 220.909 113.054 220.669 112.625 220.855C112.215 221.033 111.858 220.466 111.878 220.015C111.899 219.564 112.07 219.075 111.842 218.687Z" fill="#00160A"/>
<path fill-rule="evenodd" clip-rule="evenodd" d="M96.8472 144.863C97.6749 144.138 97.9696 142.856 97.5427 141.837C97.3832 141.456 97.2281 140.861 97.6251 140.762C98.8331 141.831 98.9357 143.937 97.8373 145.12C97.6462 145.326 97.3906 145.516 97.1139 145.479C96.8372 145.441 96.636 145.047 96.8472 144.863L96.8472 144.863Z" fill="#00160A"/>
<path fill-rule="evenodd" clip-rule="evenodd" d="M94.9312 138.409C95.5481 138.425 96.0127 139.055 96.0657 139.677C96.1188 140.299 95.8652 140.902 95.5952 141.464C95.4283 141.811 95.1493 142.21 94.7732 142.145C94.4896 142.096 94.3244 141.802 94.2022 141.539C93.9304 140.953 93.6671 140.327 93.7278 139.683C93.7885 139.039 94.2918 138.391 94.9312 138.409V138.409Z" fill="#00160A"/>
<path fill-rule="evenodd" clip-rule="evenodd" d="M99.2617 141.336C98.7323 141.482 98.4391 140.723 98.4556 140.168C98.4703 139.677 98.5392 139.164 98.8231 138.765C99.107 138.367 99.8141 137.888 100.084 138.548C100.354 139.208 100.193 140.207 99.6904 140.962C99.5828 141.124 99.4476 141.284 99.2617 141.336Z" fill="#00160A"/>
<path fill-rule="evenodd" clip-rule="evenodd" d="M93.1799 145.209C93.3613 145.175 93.5427 145.141 93.7241 145.107C93.7789 145.719 94.3661 146.133 94.9315 146.357C95.4969 146.582 96.1269 146.725 96.5517 147.165C96.7054 147.323 96.8111 147.614 96.6324 147.744C96.554 147.801 96.4494 147.799 96.3531 147.793C94.8696 147.694 93.2563 146.711 93.1799 145.209Z" fill="#00160A"/>
<path fill-rule="evenodd" clip-rule="evenodd" d="M92.9845 137.537C92.5805 137.445 92.5693 136.79 92.902 136.54C93.2347 136.29 93.6995 136.347 94.0973 136.464C94.9743 136.721 95.7811 137.219 96.409 137.89C95.318 138.382 93.9552 136.833 92.9845 137.537V137.537Z" fill="#00160A"/>
<path fill-rule="evenodd" clip-rule="evenodd" d="M67.6806 218.147C68.7319 218.645 70.1405 217.639 70.0291 216.471C70.706 217.063 71.453 217.899 71.1488 218.751C71.0353 219.068 70.7874 219.318 70.5236 219.525C69.5993 220.251 68.427 220.571 67.271 220.755C66.0601 220.947 64.7011 220.968 63.7476 220.189C62.8057 219.419 62.5472 217.92 63.1761 216.873C63.3309 216.615 63.55 216.374 63.8396 216.302C64.4739 216.144 65.007 216.893 64.9994 217.554C64.9917 218.215 64.6653 218.828 64.5562 219.479C64.5367 219.595 64.5244 219.716 64.5528 219.83C64.6713 220.306 65.3925 220.323 65.7507 219.992C66.1089 219.661 66.2413 219.155 66.4887 218.732C66.7361 218.31 67.2411 217.939 67.6806 218.147ZM67.7014 220.19C67.9061 219.997 68.1107 219.803 68.3154 219.61C68.2385 219.361 67.9086 219.235 67.6883 219.369C67.4681 219.504 67.4248 219.858 67.6061 220.042L67.7014 220.19Z" fill="#00160A"/>
<path fill-rule="evenodd" clip-rule="evenodd" d="M62.8492 225.134C63.095 225.835 64.0559 226.015 64.7273 225.711C64.8588 225.651 64.9923 225.57 65.0523 225.437C65.2261 225.053 64.6706 224.665 64.7501 224.25C64.8172 223.899 65.2779 223.8 65.624 223.873C65.97 223.946 66.3258 224.111 66.6616 224C67.0507 223.87 67.2355 223.427 67.3329 223.024C67.4303 222.621 67.5068 222.176 67.8171 221.905C68.1273 221.635 68.7539 221.751 68.7669 222.166C68.792 222.967 68.1872 223.644 67.554 224.126C66.9207 224.609 66.1958 225.022 65.7803 225.705C65.3856 226.354 65.1569 227.315 64.4074 227.391C64.1672 227.415 63.9297 227.328 63.712 227.223C62.1475 226.465 61.2165 224.563 61.5688 222.845C61.7251 222.083 62.4789 221.245 63.1373 221.648C63.6698 221.974 63.5632 222.79 63.2917 223.356C63.0202 223.923 62.6413 224.541 62.8492 225.134V225.134Z" fill="#00160A"/>
<path fill-rule="evenodd" clip-rule="evenodd" d="M104.77 173.501C105.483 183.544 112.044 192.045 118.325 199.857C120.109 202.076 122.011 204.385 124.64 205.438C129.59 207.42 135.736 204.418 140.309 207.175C116.38 207.231 92.4533 208.556 68.661 211.144C66.6134 211.367 64.4987 211.593 62.5301 210.982C60.5614 210.37 58.7622 208.686 58.6804 206.605C57.6349 180.004 56.5895 153.403 55.544 126.802C55.3503 121.874 55.1545 116.926 54.2655 112.077C53.102 105.731 53.0742 99.2347 53.05 92.7803C53.0186 84.3879 52.9872 75.9956 52.9558 67.6033C79.9254 66.4222 106.937 66.2216 133.921 67.0021C135.028 68.6679 135.252 70.7582 135.437 72.7565C138.568 106.587 139.541 140.58 140.511 174.544C140.802 184.721 141.093 194.898 141.384 205.076C140.885 204.907 140.385 204.739 139.886 204.571C138.71 172.431 137.534 140.292 136.358 108.153C136.335 107.539 136.273 106.843 135.795 106.465C135.428 106.176 134.925 106.165 134.46 106.166C109.446 106.259 84.4322 106.351 59.4185 106.443C57.4791 106.45 54.7548 107.47 55.384 109.326C58.4223 118.286 57.3511 128.046 57.3873 137.519C57.4075 142.783 57.7814 148.038 58.1551 153.288C58.6109 159.692 59.0667 166.095 59.5225 172.498C60.6051 169.656 61.6877 166.815 62.7704 163.973C63.0215 163.314 63.248 162.493 62.7848 161.964C59.3438 158.037 60.4225 151.023 64.8801 148.339C65.736 147.823 66.6937 147.442 67.3948 146.727C69.3675 144.713 68.435 141.161 69.8897 138.738C72.0493 135.141 78.7211 135.006 78.953 130.804C79.1626 127.009 82.5687 123.947 86.2574 123.22C89.9461 122.493 93.7683 123.676 97.0904 125.454C100.333 127.189 103.548 130.004 103.687 133.712C103.742 135.171 103.304 136.597 102.871 137.99C101.3 143.035 99.4555 148.464 95.1179 151.418C100.714 157.364 104.188 165.312 104.77 173.501ZM100.647 186.928C103.867 193.341 109.979 197.909 113.122 204.36C113.263 204.65 113.409 204.957 113.676 205.135C113.979 205.337 114.368 205.327 114.731 205.316C117.48 205.237 120.239 205.522 122.915 206.162C116.58 200.604 111.802 193.474 107.467 186.212C105.903 183.592 104.346 180.811 104.193 177.755C103.745 168.844 100.512 160.097 95.0696 153.075C93.0689 150.494 88.7641 150.993 86.466 153.307C84.1679 155.621 83.4323 159.065 83.0974 162.327C82.9883 163.389 82.9146 164.491 83.2624 165.499C83.6102 166.507 84.4857 167.402 85.5404 167.44C86.5951 167.478 87.6216 166.356 87.256 165.354C87.6305 166.166 88.0051 166.978 88.3797 167.79C86.8429 169.461 83.8609 168.917 82.447 167.138C81.0331 165.359 80.9135 162.834 81.3963 160.604C82.536 155.34 86.8806 150.931 92.0802 149.76C92.1411 148.734 90.6406 148.429 89.7166 148.857C88.7927 149.285 87.9118 150.075 86.911 149.897C85.996 149.734 85.4743 150.881 85.1495 151.762C83.3195 156.722 78.0841 159.285 73.8508 162.399C72.4073 163.461 70.9828 164.662 69.2501 165.095C67.5173 165.528 65.3561 164.886 64.7388 163.192C59.4383 177.046 58.1829 192.455 61.1697 206.999C61.382 208.033 62.3221 208.787 63.325 209.08C64.3279 209.372 65.3955 209.29 66.4359 209.205C81.8645 207.942 97.293 206.68 112.721 205.418C109.046 198.255 102.133 193.101 98.9844 185.686C98.2498 183.956 97.7313 182.124 96.7987 180.495C95.3866 178.028 93.0834 176.13 91.9303 173.529C90.538 175.466 89.1456 177.404 87.7532 179.341C87.4398 179.777 87.5846 180.382 87.7422 180.897C88.0913 182.038 88.4562 183.21 89.1993 184.139C89.9424 185.067 91.1633 185.707 92.3073 185.41C94.6403 184.805 97.2979 185.824 98.6474 187.842C95.7941 187.298 92.9407 186.754 90.0874 186.209C89.6741 186.131 89.2404 186.042 88.9199 185.767C88.648 185.533 88.492 185.193 88.3441 184.865C87.8132 183.685 87.2823 182.506 86.7515 181.326C86.2885 180.298 85.8343 179.056 86.4248 178.097C86.9248 177.284 87.9637 177.04 88.7429 176.498C90.8933 175 90.6119 171.688 89.6318 169.24C88.6516 166.792 87.1832 164.272 87.7495 161.694C88.9096 165.508 90.0961 169.38 92.2614 172.715C93.86 175.178 95.9582 177.291 97.4237 179.837C98.7188 182.086 99.4815 184.607 100.647 186.928ZM54.8301 70.0423C54.8961 76.0025 54.9621 81.9627 55.0281 87.9229C55.0426 89.2364 55.52 91.0129 56.8145 90.9088C82.3925 88.8525 108.086 88.2681 133.73 89.1592C134.44 89.1838 135.027 88.5236 135.184 87.8227C135.342 87.1219 135.179 86.3931 135.026 85.691C133.863 80.3408 133.31 74.8552 133.382 69.3777C133.393 68.5086 132.249 68.2156 131.389 68.1997C106.25 67.7349 81.0987 67.8752 55.9654 68.6204C55.7182 68.6277 55.4571 68.6392 55.2491 68.7746C54.8613 69.0268 54.825 69.5759 54.8301 70.0423M136.273 103.7C136.37 99.2291 136.101 94.75 135.472 90.3233C133.413 91.1065 131.155 91.3467 128.981 91.0138C126.824 90.6837 124.634 90.6649 122.453 90.6467C112.456 90.5632 102.458 90.4798 92.4624 90.6583C80.3667 90.8743 68.2809 91.4738 56.203 92.1699C55.873 92.189 55.5169 92.2183 55.2669 92.4369C54.9423 92.7208 54.915 93.2116 54.9146 93.6457C54.9111 97.1095 55.058 100.573 55.3549 104.024C55.3728 104.233 55.3967 104.455 55.528 104.618C55.7347 104.873 56.1125 104.877 56.4384 104.859C80.3235 103.556 104.265 104.397 128.185 104.419C130.899 104.422 133.65 104.409 136.273 103.7ZM80.5325 128.661C79.8847 130.243 79.8578 132.081 78.9291 133.513C77.0426 136.421 72.3566 136.381 70.5922 139.367C69.1633 141.785 70.2548 145.302 68.379 147.384C67.4362 148.431 65.9826 148.806 64.8055 149.572C62.3385 151.177 61.309 154.554 62.0668 157.42C62.8245 160.287 65.1366 162.58 67.8441 163.722C68.3254 163.924 68.8417 164.098 69.3592 164.034C69.9439 163.961 70.4471 163.597 70.9222 163.244C74.1988 160.815 77.4755 158.385 80.7521 155.955C81.9586 155.06 83.2111 154.111 83.8627 152.749C84.9664 150.441 84.1694 147.321 85.9107 145.459C86.5827 144.74 87.5477 144.335 88.1509 143.556C88.7541 142.778 88.68 141.32 87.7233 141.115C86.6804 140.892 86.9556 139.213 87.7837 138.534C88.6118 137.855 89.7883 137.43 90.1 136.399C90.3939 135.427 89.952 133.972 90.9026 133.643C91.4495 133.453 91.9916 133.884 92.4759 134.203C94.612 135.612 97.837 134.875 99.1669 132.674C99.6837 131.819 101.014 132.729 101.256 133.701C101.498 134.673 101.534 135.926 102.446 136.318C103.35 134.884 103.077 132.934 102.192 131.489C101.307 130.044 99.9116 129.004 98.5178 128.053C95.6578 126.103 92.5193 124.327 89.08 124.065C85.6406 123.803 81.8523 125.437 80.5325 128.661ZM90.784 141.183C89.9887 144.133 85.8923 145.411 85.556 148.449C86.3222 149.3 87.7273 148.898 88.6743 148.261C89.1568 147.936 89.6231 147.55 89.8865 147.028C90.1499 146.506 90.1664 145.821 89.7957 145.371C89.4736 144.979 90.1995 144.449 90.6303 144.712C91.0611 144.976 91.1688 145.544 91.2997 146.036C91.5789 147.084 92.1504 148.051 92.9313 148.796C93.5818 149.417 94.5318 149.898 95.353 149.539C95.6913 149.392 95.9594 149.12 96.2097 148.846C98.8052 146.009 100.419 142.271 100.713 138.417C100.746 137.979 100.727 137.462 100.373 137.208C100.025 136.96 99.552 137.104 99.1297 137.162C98.7073 137.221 98.1467 137.06 98.1271 136.629C98.6095 136.157 99.4348 136.1 99.9764 136.501C100.205 136.67 100.429 136.271 100.421 135.985C100.398 135.166 100.137 134.356 99.6803 133.68C98.6746 134.814 97.3699 135.734 95.8891 136.014C94.4082 136.293 92.7492 135.843 91.7941 134.665C91.2178 135.909 90.962 137.304 91.0588 138.675C91.0935 139.167 90.386 139.318 89.9241 139.16C89.4621 139.001 88.9344 138.725 88.528 138.998C88.1335 139.263 88.178 139.907 88.4935 140.264C88.809 140.621 89.2916 140.765 89.748 140.893C90.0933 140.99 90.4387 141.087 90.784 141.183ZM61.6783 169.64C61.7487 169.337 61.7813 168.941 61.5113 168.792C60.8323 170.813 60.1943 172.848 59.598 174.895C59.3691 175.681 59.1556 176.568 59.5487 177.285C59.8323 177.297 59.9777 176.952 60.0427 176.672C60.5879 174.328 61.1331 171.984 61.6783 169.64Z" fill="#00160A"/>
<path fill-rule="evenodd" clip-rule="evenodd" d="M125.553 228.768C140.278 227.567 155.071 227.216 169.836 227.716C169.405 222.695 168.975 217.673 168.544 212.652C153.481 213.339 138.418 214.025 123.355 214.712C122.892 219.173 121.181 223.494 118.473 227.045C117.168 228.756 118.29 231.173 119.128 233.161C119.966 235.148 120.033 238.161 117.975 238.739C115.258 237.387 113.323 234.549 113.037 231.5C101.898 231.991 90.7587 232.483 79.6195 232.974C75.4793 233.157 70.3694 234.05 69.1369 238.052C68.6556 234.898 64.5384 234.173 61.384 234.216C51.9577 234.344 42.5315 234.472 33.1052 234.6C32.9615 230.248 32.8178 225.895 32.6741 221.542C32.6462 220.699 32.6267 219.815 33.0007 219.061C34.0047 217.036 36.8881 217.251 39.0679 217.771C38.3673 210.684 37.6666 203.598 36.9659 196.511C33.7157 197.263 34.7613 188.834 31.4899 189.485C29.5095 189.879 27.6424 188.039 27.2197 186.043C26.7971 184.046 27.4136 181.992 28.0236 180.045C29.8622 179.477 32.4971 180.04 34.3604 179.477C36.2237 178.915 37.3592 177.829 37.2941 175.863C35.9424 135.042 33.0242 94.2739 28.5483 53.6816C25.6907 54.925 22.288 52.6809 21.1383 49.7571C19.9887 46.8333 20.4812 43.5401 21.0826 40.4529C21.2937 39.3694 21.5529 38.2183 22.3395 37.4525C23.3422 36.4763 24.8833 36.4151 26.275 36.4119C69.9452 36.3114 113.616 36.2109 157.286 36.1104C158.238 36.1082 159.286 36.1419 159.99 36.7904C160.633 37.3833 160.802 38.324 160.936 39.1938C161.455 42.576 161.965 46.1022 160.944 49.3655C159.923 52.6287 156.872 55.516 153.511 55.1168C155.35 95.4042 157.188 135.692 159.026 175.979C162.022 175.317 165.526 176.438 167.02 179.147C168.515 181.856 167.152 185.95 164.159 186.628C166.068 188.234 165.147 191.652 163.046 192.99C160.945 194.329 158.273 194.192 155.8 193.963C153.327 193.735 150.688 193.491 148.495 194.67C149.013 199.525 148.948 204.442 148.304 209.281C150.431 207.998 153.309 208.133 155.31 209.608C156.699 210.632 157.961 208.14 157.948 206.401C157.918 202.351 157.887 198.301 157.857 194.252C160.025 199.282 160.628 204.99 159.561 210.37C162.234 210.581 164.907 210.792 167.581 211.003C168.385 211.066 169.255 211.158 169.845 211.715C170.431 212.268 170.584 213.137 170.686 213.942C171.344 219.14 171.246 224.435 170.395 229.605C153.073 228.39 135.632 228.921 118.414 231.187C120.199 229.32 122.993 228.977 125.553 228.768ZM74.1622 215.578C75.4047 212.083 79.944 211.455 83.6162 211.413C85.3064 211.394 86.9967 211.375 88.6869 211.355C92.3425 211.314 96.0124 211.273 99.638 211.747C100.089 212.291 100.54 212.835 100.991 213.379C102.436 212.915 104.152 213.531 104.983 214.814C107.456 212.216 110.507 209.956 114.034 209.43C117.561 208.905 121.573 210.554 122.921 213.892C123.408 212.2 124.017 210.403 125.423 209.361C126.829 208.32 129.261 208.573 129.837 210.237C132.106 207.692 136.694 207.904 138.724 210.649C138.747 209.312 140.539 208.842 141.833 209.113C143.128 209.383 144.555 209.964 145.687 209.273C146.905 208.53 146.979 206.802 146.91 205.365C144.641 158.173 142.372 110.981 140.104 63.7893C140.088 63.4578 140.058 63.0934 139.826 62.8592C139.583 62.6148 139.204 62.5954 138.861 62.591C109.186 62.2091 79.5109 61.8272 49.8355 61.4453C49.1981 61.4371 48.4836 61.4595 48.0394 61.9222C47.6206 62.3585 47.593 63.0323 47.5909 63.6405C47.4602 101.5 48.9514 139.366 52.0588 177.096C52.1809 178.578 52.99 180.577 54.3994 180.153C54.4708 184.412 54.5423 188.671 54.6138 192.93C54.63 193.895 54.5684 195.023 53.7851 195.574C53.3497 195.881 52.7907 195.925 52.2613 195.958C47.9286 196.234 43.5958 196.511 39.263 196.787C39.9397 203.56 40.6164 210.333 41.2931 217.106C45.1708 217.237 49.0597 217.031 52.9026 216.49C51.0615 210.608 50.414 204.346 51.0119 198.206C52.3115 198.314 52.7208 200.015 52.787 201.332C52.946 204.493 53.1051 207.654 53.2641 210.815C53.3482 212.487 53.4734 214.276 54.4914 215.596C55.5093 216.916 57.7695 217.364 58.7636 216.025C62.3049 211.258 70.3563 211.024 74.1622 215.578ZM156.457 156.978C154.887 123.059 153.316 89.1398 151.746 55.2209C111.083 54.8049 70.4202 54.389 29.7575 53.9731C35.6 95.3713 37.2768 137.241 38.9461 179.025C42.7729 179.483 46.6532 179.482 50.4797 179.022C49.3782 162.519 48.2766 146.015 47.1751 129.512C46.7836 123.647 46.3921 117.78 46.2001 111.905C46.0405 107.017 46.0191 102.126 45.9977 97.2353C45.9483 85.9178 45.8988 74.6003 45.8494 63.2829C45.8439 62.0396 46.2297 60.3694 47.4587 60.3755C78.3068 60.5281 109.155 60.6806 140.003 60.8332C140.682 60.8365 141.482 60.9055 141.834 61.4926C142.005 61.7772 142.026 62.1252 142.043 62.4576C143.295 87.4104 144.546 112.364 145.526 137.329C145.689 141.492 145.844 145.656 146 149.819C146.324 158.479 146.648 167.139 146.972 175.799C147.003 176.625 148.119 176.824 148.935 176.769C151.739 176.581 154.543 176.393 157.347 176.205C157.051 169.796 156.754 163.387 156.457 156.978ZM22.1573 48.7622C22.7391 50.8087 24.4319 52.6927 26.5354 52.775C57.1087 53.9706 87.7403 52.1642 118.312 53.403C130.701 53.905 143.184 54.9023 155.445 53.0307C156.284 52.9026 157.165 52.741 157.813 52.1868C158.419 51.6679 158.728 50.882 158.969 50.1165C159.963 46.9633 160.203 43.57 159.663 40.3058C159.528 39.4897 159.291 38.5987 158.606 38.1477C158.094 37.8113 157.445 37.7988 156.835 37.7974C138.418 37.753 120.001 37.7086 101.584 37.6642C98.6066 37.657 95.6289 37.6498 92.6512 37.6427C82.8967 37.6191 73.1422 37.5956 63.3877 37.5721C50.707 37.5416 38.0255 37.511 25.3463 37.7096C23.284 37.7419 22.43 40.3567 22.1476 42.4233C21.8593 44.5327 21.5755 46.7157 22.1573 48.7622ZM102.828 216.25C93.398 216.596 83.9683 216.942 74.5386 217.287C75.3163 217.463 75.3957 218.591 75.0591 219.322C74.7225 220.053 74.1439 220.744 74.2196 221.546C74.4574 224.067 73.6849 226.671 72.1143 228.642C71.0014 230.039 69.4047 231.781 70.3259 233.315C72.9737 231.995 76.0134 231.807 78.9606 231.643C89.7888 231.041 100.617 230.438 111.445 229.835C112.15 227.18 108.271 224.703 109.348 222.179C109.594 221.602 109.201 220.967 108.827 220.466C107.3 218.416 105.364 216.157 102.828 216.25ZM34.6647 221.719C34.8933 225.445 35.3557 229.156 36.0483 232.823C45.3292 232.795 54.6102 232.766 63.8911 232.737C64.3546 232.736 65.014 232.36 64.7133 232.003C63.2401 230.256 61.767 228.509 60.2938 226.762C59.4739 225.79 58.6232 224.753 58.4008 223.495C58.0645 221.593 59.1318 219.251 57.7591 217.908C50.5502 219.145 43.2148 219.627 35.9082 219.344C34.9043 219.305 34.6025 220.705 34.6647 221.719ZM111.441 225.659C112.293 227.124 111.768 229.345 113.124 230.35C115.416 232.048 115.046 236.439 117.767 237.262C118.252 236.769 118.75 236.255 119 235.606C119.249 234.957 119.184 234.131 118.66 233.678C117.224 232.438 116.893 230.27 117.285 228.401C117.678 226.533 118.666 224.859 119.512 223.151C120.491 221.174 121.296 219.108 121.913 216.986C122.189 216.038 122.372 214.865 121.659 214.189C121.065 213.627 120.01 213.609 119.644 212.874C119.453 212.491 119.518 212.013 119.306 211.641C119.076 211.235 118.589 211.072 118.144 210.945C116.692 210.531 115.19 210.162 113.69 210.326C112.191 210.49 110.678 211.285 110.026 212.661C109.475 213.827 107.536 213.26 106.639 214.179C105.729 215.11 106.58 216.705 107.621 217.482C108.662 218.26 110.005 218.931 110.269 220.212C110.507 221.363 109.736 222.579 110.092 223.698C110.335 224.46 111.04 224.969 111.441 225.659ZM29.8621 187.747C30.3088 188.46 31.285 188.55 32.1194 188.552C38.6606 188.567 45.177 187.814 51.6758 187.062C52.8508 186.926 53.1396 185.317 52.9421 184.137C52.7445 182.958 52.4542 181.526 53.3517 180.747C45.8666 180.203 38.3374 180.283 30.8652 180.985C30.4985 181.02 30.0985 181.071 29.844 181.341C29.5676 181.633 29.5548 182.082 29.5586 182.487C29.5706 183.782 29.5827 185.076 29.5947 186.371C29.5991 186.845 29.6113 187.347 29.8621 187.747ZM71.9638 215.426C70.5747 214.465 68.9449 213.459 67.32 213.9C66.9018 214.013 66.4261 214.213 66.0682 213.966C64.2752 212.731 61.4188 213.757 60.7985 215.86C60.6005 216.531 59.8824 216.878 59.4459 217.422C59.0093 217.966 59.1717 219.095 59.8567 218.993C60.4258 218.909 60.717 219.745 60.4747 220.273C60.2324 220.801 59.7195 221.152 59.4299 221.655C58.6582 222.994 59.7264 224.62 60.7369 225.785C62.3146 227.605 63.8923 229.424 65.47 231.244C66.8 232.778 68.1591 234.361 68.8429 236.28C69.8245 235.618 69.622 234.121 69.2617 232.985C68.9013 231.848 68.5632 230.421 69.4298 229.611C69.7887 229.276 70.3172 229.105 70.5381 228.664C70.7589 228.223 70.1358 227.554 69.8616 227.964C69.3714 228.695 68.5544 229.347 67.6993 229.166C66.8443 228.986 66.4713 227.552 67.2852 227.231C67.5701 227.816 68.4462 227.496 68.9621 227.105C69.6977 226.548 70.4334 225.991 71.1691 225.433C72.1235 224.71 73.1521 223.867 73.3385 222.676C73.5371 221.406 72.7607 219.879 73.6272 218.938C72.903 218.305 73.3079 217.043 72.8134 216.214C72.6133 215.878 72.2836 215.647 71.9638 215.426ZM147.269 186.059C148.089 185.656 149.021 185.572 149.929 185.492C154.59 185.082 159.247 184.62 163.898 184.106C164.477 184.042 165.076 183.97 165.577 183.67C166.585 183.064 166.893 181.622 166.44 180.528C165.987 179.434 164.935 178.685 163.816 178.332C162.697 177.978 161.503 177.967 160.331 177.978C156.448 178.013 152.568 178.253 148.71 178.697C148.026 178.776 147.26 178.908 146.863 179.477C146.506 179.987 146.571 180.673 146.651 181.292C146.857 182.881 147.063 184.47 147.269 186.059ZM36.353 194.084C36.8879 194.946 38.0056 195.255 39.0093 195.19C40.013 195.125 40.9739 194.765 41.9662 194.599C45.1587 194.065 48.6029 195.534 51.5885 194.272C51.8259 194.171 52.0672 194.045 52.2112 193.83C52.3534 193.617 52.3801 193.349 52.3998 193.093C52.4943 191.87 52.527 190.643 52.4978 189.417C52.4933 189.226 52.477 189.012 52.335 188.885C52.2252 188.788 52.0689 188.771 51.9232 188.759C46.6386 188.347 41.3901 190.016 36.0904 189.938C35.7349 189.932 35.6462 190.434 35.6832 190.792C35.7471 191.41 35.8259 192.028 35.9195 192.642C35.9957 193.142 36.087 193.655 36.353 194.084ZM163.525 187.103C163.477 186.847 163.412 186.578 163.224 186.4C162.959 186.148 162.549 186.166 162.186 186.2C157.964 186.593 153.745 187.013 149.528 187.46C148.952 187.521 148.289 187.637 148.002 188.146C147.652 188.767 148.088 189.528 148.116 190.242C148.134 190.69 147.992 191.171 148.2 191.567C148.477 192.092 149.185 192.153 149.773 192.143C151.481 192.113 153.189 192.056 154.896 191.999C157.559 191.91 160.223 191.821 162.887 191.732C163.412 191.715 163.635 191.054 163.685 190.525C163.791 189.384 163.737 188.228 163.525 187.103ZM147.267 210.836C147.05 210.716 146.891 210.509 146.673 210.391C146.211 210.142 145.637 210.363 145.205 210.663C144.773 210.963 144.374 211.352 143.863 211.469C143.352 211.587 142.694 211.258 142.722 210.728C142.762 210.002 141.723 209.715 141.074 210.029C140.424 210.343 139.953 210.971 139.283 211.235C138.837 211.41 138.313 211.421 137.947 211.732C137.581 212.044 137.664 212.844 138.141 212.81C143.069 212.46 147.997 212.109 152.924 211.758C153.339 211.729 153.821 211.659 154.027 211.293C154.341 210.738 153.661 210.067 153.03 210.08C152.398 210.092 151.846 210.488 151.26 210.725C150.243 211.136 149.108 211.07 148.015 210.998C147.758 210.981 147.492 210.962 147.267 210.836ZM87.6496 215.16C91.4642 214.917 95.2788 214.674 99.0934 214.431C99.3191 214.417 99.5672 214.392 99.7237 214.227C100.028 213.907 99.7017 213.332 99.2759 213.224C98.8502 213.115 98.4119 213.291 97.9862 213.399C97.5605 213.508 97.0426 213.523 96.7549 213.187C96.1502 212.482 94.9594 213.905 94.173 213.417C93.0887 212.743 91.8089 212.352 90.541 212.46C89.2731 212.567 88.0287 213.207 87.3101 214.269C87.1332 214.53 87.0208 214.951 87.2908 215.111C87.3965 215.174 87.5273 215.168 87.6496 215.16ZM128.908 209.551C128.324 209.217 127.61 209.667 127.14 210.15C126.576 210.728 126.083 211.659 126.58 212.297C126.921 212.734 127.55 212.774 128.1 212.778C129.41 212.785 130.72 212.793 132.031 212.801C132.266 212.803 132.511 212.802 132.72 212.694C133.042 212.528 133.196 212.157 133.324 211.815C133.58 211.136 133.773 210.224 133.186 209.805C132.967 209.649 132.688 209.611 132.422 209.579C131.855 209.509 131.195 209.472 130.807 209.895C130.282 210.467 130.493 211.649 129.758 211.887C129.383 211.119 129.644 209.972 128.908 209.551ZM84.8364 214.883C85.0231 214.875 85.2152 214.865 85.3847 214.786C85.9963 214.499 85.8526 213.465 85.2627 213.135C84.6729 212.805 83.9286 212.999 83.3327 213.318C82.7915 213.607 82.1478 213.287 81.5699 213.083C79.9773 212.519 78.0884 212.931 76.8667 214.108C76.5521 214.412 76.2656 214.881 76.4776 215.265C79.2639 215.138 82.0501 215.011 84.8364 214.883ZM134.25 212.944C134.346 213.007 134.465 213.017 134.578 213.022C135.445 213.062 136.527 212.75 136.667 211.883C136.748 211.381 136.405 210.844 135.919 210.713C135.087 210.489 134.351 211.363 134.119 212.202C134.047 212.462 134.026 212.798 134.25 212.944ZM125.741 211.239C125.78 210.872 125.58 210.319 125.256 210.49C124.924 211.109 124.72 211.799 124.662 212.501C124.641 212.757 124.644 213.034 124.793 213.242C124.942 213.45 125.285 213.526 125.446 213.328C125.524 213.232 125.541 213.1 125.554 212.977C125.616 212.397 125.678 211.818 125.741 211.239ZM71.1192 226.594C70.8653 227.103 71.0462 227.791 71.5167 228.105C71.8452 227.697 72.1947 227.204 72.073 226.693C71.9512 226.181 71.0494 226.025 70.9738 226.545M102.774 215.062C103.114 215.113 103.546 215.062 103.671 214.738C103.307 214.464 102.816 214.372 102.379 214.496C102.277 214.63 102.24 214.811 102.28 214.975C102.421 215.071 102.603 215.105 102.769 215.067L102.774 215.062Z" fill="#00160A"/>
<path fill-rule="evenodd" clip-rule="evenodd" d="M327.339 67.8933C328.677 67.9286 330.193 68.0479 331.036 69.1002C331.73 69.9659 331.73 71.1853 331.697 72.299C330.405 116.135 328.864 159.964 327.073 203.782C325.469 191.01 326.07 178.072 326.674 165.213C327.734 142.649 328.793 120.086 329.852 97.5222C329.774 101.361 328.455 106.486 324.661 106.373C303.668 105.747 282.674 105.121 261.681 104.495C260.053 104.447 258.061 104.152 257.484 102.611C280.546 103.243 303.609 103.875 326.671 104.507C327.669 100.849 327.933 96.9879 327.445 93.2257C304.309 92.7659 281.174 92.306 258.039 91.8462C257.559 90.5772 259.474 89.8618 260.817 89.891C282.7 90.3662 304.582 90.8415 326.465 91.3167C327.624 91.3419 328.062 89.8107 328.139 88.6408C328.465 83.651 328.791 78.6611 329.117 73.6712C329.189 72.5758 329.219 71.3508 328.497 70.5312C327.75 69.6828 326.49 69.5984 325.367 69.5745C302.901 69.0954 280.436 68.6163 257.97 68.1372C256.483 97.946 256.019 127.807 256.581 157.648C258.881 151.617 263.704 146.618 269.609 144.146C265.698 140.449 264.43 134.176 266.593 129.223C264.103 130.521 261.999 126.505 262.757 123.776C262.981 122.973 264.219 122.198 264.545 121.399C265.327 119.486 264.96 118.283 264.594 115.654C264.228 113.024 267.786 112.278 269.912 113.558C272.038 114.838 274.141 117.078 276.514 116.367C279.391 115.505 282.442 117.812 283.527 120.643C284.612 123.473 284.25 126.632 283.871 129.644C283.325 133.991 281.932 139.318 277.688 140.194C277.371 143.294 281.878 143.74 284.915 144.259C289.057 144.967 292.464 148.161 294.456 151.902C296.449 155.642 297.232 159.906 297.86 164.107C299.872 177.569 300.516 191.631 296.172 204.516C306.063 204.358 315.953 204.199 325.843 204.04C320.092 206.067 313.873 206.146 307.783 206.16C291.129 206.199 274.475 205.917 257.831 205.314C256.83 205.278 255.741 205.206 254.993 204.531C254.193 203.808 254.034 202.622 253.942 201.541C253.35 194.578 253.42 187.559 254.151 180.61C254.767 188.332 255.384 196.053 256 203.775C264.082 204.077 272.164 204.38 280.245 204.683C283.316 204.798 287.208 204.371 288.164 201.417C288.158 202.391 288.152 203.365 288.146 204.339C290.263 204.806 292.47 204.853 294.604 204.477C298.315 193.449 299.066 181.418 296.757 170.006C294.262 169.736 292.143 172.129 291.616 174.611C291.09 177.093 291.68 179.656 291.97 182.178C292.705 188.56 291.448 195.162 288.423 200.812C291.008 193.333 291.578 185.152 290.054 177.38C288.945 171.726 286.745 166.19 286.971 160.431C288.784 163.869 289.652 167.812 289.452 171.704C291.915 170.668 294.378 169.633 296.841 168.597C296.44 162.988 295.986 157.186 293.342 152.239C290.698 147.292 285.226 143.423 279.772 144.513C279.288 147.961 276.97 151.584 273.534 151.806C270.099 152.028 267.453 146.695 270.383 144.867C263.452 146.85 259.376 153.897 256.03 160.349C254.693 162.928 253.323 165.658 253.417 168.569C253.512 171.479 255.652 174.54 258.531 174.527C261.867 170.914 263.804 166.013 263.85 161.07C264.716 173.853 264.679 186.698 263.741 199.476C263.646 200.771 262.27 202.488 261.556 201.408C263.31 191.681 263.518 181.67 262.17 171.876C259.063 176.209 254.794 179.678 249.943 181.813C247.715 182.793 247.143 185.768 247.507 188.197C247.871 190.626 248.856 193.02 248.54 195.456C248.225 197.893 246.921 200.136 243.541 199.265C240.161 198.393 235.275 199.8 235.275 199.8C235.275 199.8 235.909 211.024 237.009 214.365C241.252 217.696 247.621 211.387 252.521 213.611C255.569 214.994 259.041 214.918 262.381 214.816C264.465 214.752 267.397 213.166 266.183 211.451C260.877 212.015 255.512 212.007 250.208 211.429C247.927 211.18 246.257 208.947 245.858 206.662C245.458 204.377 246.04 202.046 246.618 199.8C246.971 201.637 246.844 204.846 247.039 206.16C247.235 207.474 247.805 209.65 249.233 209.791C260.43 210.898 264.186 210.178 272.024 208.329C273.402 208.004 275.099 207.594 276.514 207.603C278.206 207.613 279.789 208.537 281.432 208.948C287.136 210.378 293.114 209.932 298.973 209.476C310.281 208.598 321.589 207.719 332.897 206.84C337.5 199.002 328.769 187.107 334.972 180.492C335.495 140.726 336.019 100.96 336.542 61.1935C307.125 60.2535 277.678 60.2553 248.261 61.199C246.251 95.7173 245.87 130.333 247.119 164.888C245.254 159.954 245.123 154.55 245.041 149.269C244.599 120.724 244.932 92.1676 246.038 63.6416C246.089 62.3347 246.223 60.857 247.235 60.0434C247.995 59.4327 249.041 59.3803 250.011 59.3552C279.107 58.6018 308.223 58.6148 337.318 59.3943C337.318 87.6808 338.801 111.885 336.871 138.053C335.801 152.572 336.542 166.025 336.542 180.61C339.344 180.951 343.049 179.607 343.942 176.9C344.835 174.192 344.491 171.25 344.206 168.411C340.379 130.272 349.071 91.7855 346.241 53.5582C309.987 51.8786 273.665 51.6684 237.394 52.9282C236.644 52.9542 235.821 53.0098 235.275 53.5313C234.663 54.1153 234.617 55.067 234.611 55.9177C234.409 87.4591 234.207 119 234.004 150.542C232.105 122.68 231.574 94.7063 232.984 66.8149C233.137 63.7698 233.306 60.6489 232.414 57.7362C231.523 54.8235 229.326 52.1145 226.363 51.5502C225.779 46.3253 225.857 41.025 226.595 35.82C269.289 36.0445 311.982 36.2691 354.675 36.4937C354.83 39.7797 354.984 43.0657 355.138 46.3516C355.284 49.4629 354.066 53.8679 351.049 53.2483C349.823 52.9965 349.234 54.7076 349.17 55.9714C348.64 66.352 348.111 76.7327 347.581 87.1134C346.007 117.964 344.432 148.861 345.489 179.735C348.217 179.873 350.946 180.01 353.674 180.148C354.398 181.881 355.138 183.725 354.868 185.586C354.598 187.448 352.889 189.231 351.07 188.838C352.656 192.576 348.427 197.263 344.603 196.007C344.909 200.476 345.216 204.946 345.523 209.416C345.581 210.259 345.667 211.173 346.233 211.795C347.998 213.735 351.779 210.74 353.643 212.583C353.895 216.98 354.147 221.376 354.4 225.772C354.468 226.971 354.476 228.337 353.614 229.164C353.036 229.718 352.203 229.882 351.418 230.017C336.103 232.636 320.404 232.945 305 230.932C305.827 234.938 306.467 239.671 303.666 242.625C301.601 244.804 297.653 246.502 298.594 249.366C300.287 249.004 301.82 247.93 302.75 246.454C302.57 248.369 300.809 249.996 298.907 250.004C297.275 250.178 297.6 247.42 298.714 246.201C301.159 243.524 304.321 241.128 305.099 237.57C305.877 234.011 301.848 229.661 298.997 231.89C297.282 233.231 297.36 235.826 297.601 238.004C296.06 236.246 296.261 233.218 298.021 231.683C293.433 232.742 288.673 233.032 283.993 232.539C289.904 231.633 295.815 230.726 301.727 229.82C300.044 225.109 300.483 219.668 302.898 215.295C299.199 214.883 295.434 215.091 291.802 215.909C290.785 216.138 289.746 216.43 288.934 217.089C288.08 217.78 287.565 218.803 287.098 219.804C283.139 228.294 280.861 237.582 280.436 246.959C279.516 241.563 280.194 235.898 282.36 230.88C281.839 230.043 281.163 229.304 280.379 228.714C285.769 226.579 288.354 219.203 285.497 214.111C285.048 213.31 284.492 212.572 283.86 211.909C280.062 207.927 273.358 207.233 268.84 210.353C266.91 212.811 267.843 213.639 267.025 215.096C266.527 215.985 265.421 216.543 264.945 217.462C264.768 217.806 264.723 218.32 264.545 218.664C265.866 219.754 267.522 220.423 269.222 220.551C269.055 222.396 268.887 224.241 268.719 226.086C269.684 226.256 270.649 226.426 271.614 226.596C270.322 227.897 271.473 230.607 273.295 230.554C275.017 236.094 276.739 241.634 278.461 247.174C276.703 242.728 274.945 238.282 273.187 233.836C267.264 234.518 261.34 235.2 255.416 235.883C255.63 236.98 256.19 238.006 256.994 238.774C253.481 239.289 249.953 235.903 250.277 232.327C248.549 235.48 251.215 239.239 253.96 241.538C256.704 243.838 260.031 246.421 259.914 250.023C257.187 250.991 253.835 249.024 253.311 246.148C254.302 248.016 256.444 249.189 258.532 249.009C257.174 247.629 255.817 246.25 254.459 244.871C255.462 245.479 256.466 246.088 257.469 246.697C257.921 245.512 256.878 244.182 255.663 243.861C254.448 243.541 253.173 243.927 251.976 244.31C249.754 245.02 247.458 245.773 245.733 247.357C244.008 248.94 243.017 251.602 244.046 253.717C246.245 252.951 248.13 251.304 249.199 249.215C249.082 252.024 246.394 254.452 243.621 254.254C241.657 250.35 244.903 244.894 249.233 244.822C251.017 244.793 252.076 242.53 251.606 240.788C251.136 239.047 249.695 237.777 248.327 236.618C247.406 237.835 246.217 238.842 244.871 239.545C244.828 237.492 245.227 235.429 246.033 233.544C244.213 235.635 243.186 238.416 243.206 241.202C242.278 238.906 242.36 236.212 243.429 233.978C238.043 234.906 232.576 235.341 227.113 235.277C226.214 228.965 225.314 222.654 224.414 216.343C227.792 215.42 231.291 214.951 234.791 214.955C233.037 204.339 234.791 204.044 232.612 199.265C232.316 198.615 231.265 199.856 230.55 198.393C229.834 196.931 229.515 193.121 229.515 193.121C229.515 193.121 226.594 192.69 226.363 191.894C225.46 188.773 224.444 185.985 226.642 184.306C228.984 182.516 232.652 184.05 235.107 182.421C234.184 178.737 234.006 174.864 234.585 171.11C236.028 173.59 235.514 176.743 236.308 179.507C237.101 182.27 240.841 184.592 242.628 182.354C240.008 177.628 236.496 170.832 232.947 166.774C230.678 164.18 227.46 164.799 225.104 161.935C222.749 159.072 222.05 158.503 221.219 156.109C220.388 153.715 221.521 150.435 224.006 150.086C226.436 149.744 228.273 152.175 229.515 154.315C228.956 152.427 230.45 150.212 232.391 150.049C234.794 157.714 239.148 164.745 244.918 170.276C246.729 172.012 250.383 173.178 251.102 170.762C249.819 168.732 252.05 166.404 253.291 164.347C254.792 161.86 254.858 158.783 254.88 155.87C255.099 126.919 255.319 97.969 255.539 69.0188C255.556 66.7406 258.602 66.0808 260.853 66.1402C283.015 66.7245 305.177 67.3089 327.339 67.8933ZM228.017 50.5075C228.351 50.7669 228.805 50.7784 229.226 50.7788C237.867 50.7867 246.507 50.7947 255.148 50.8026C260.155 50.8072 265.163 50.8118 270.17 50.8164C279.76 50.8253 289.35 50.8341 298.94 50.8429C316.115 50.8587 333.291 50.8745 350.467 50.8903C351.402 50.8911 352.509 50.7978 352.983 49.9833C353.226 49.5675 353.233 49.0587 353.234 48.5761C353.24 45.3267 353.246 42.0774 353.252 38.828C353.252 38.4899 353.24 38.116 353.01 37.8702C352.766 37.6085 352.368 37.5888 352.012 37.5866C311.276 37.3431 270.54 37.0996 229.805 36.8561C229.3 36.8531 228.735 36.874 228.383 37.24C228.066 37.57 228.027 38.0742 228.006 38.5341C227.85 41.9479 227.695 45.3616 227.54 48.7754C227.511 49.3993 227.528 50.1266 228.017 50.5075ZM301.706 224.869C301.452 224.616 300.98 224.885 300.915 225.239C300.849 225.594 301.04 225.94 301.227 226.247C301.883 227.323 302.621 228.41 303.706 229.039C304.758 229.649 306.012 229.757 307.221 229.851C311.382 230.174 315.543 230.498 319.704 230.822C322.38 231.03 325.06 231.238 327.743 231.191C336.077 231.045 344.236 228.446 352.571 228.405C353.255 228.402 353.443 227.457 353.412 226.766C353.248 223.167 353.084 219.569 352.919 215.971C352.875 214.996 352.493 213.697 351.532 213.776C335.648 215.082 319.686 215.421 303.761 214.79C303.854 218.051 302.917 221.335 301.122 224.046C302.841 224.122 304.569 223.988 306.257 223.646C304.981 223.222 303.635 223.012 302.292 223.027C304.559 221.809 307.651 222.49 309.211 224.551C309.355 224.741 309.493 224.962 309.472 225.2C309.432 225.664 308.871 225.852 308.416 225.927C306.093 226.315 303.382 226.542 301.706 224.869ZM243.89 227.177C243.512 227.454 242.979 227.732 242.617 227.432C242.443 227.287 242.378 227.05 242.323 226.828C242.036 225.682 241.748 224.509 241.855 223.332C241.963 222.154 242.545 220.952 243.592 220.428C244.656 219.895 245.909 218.965 245.584 217.811C245.274 216.713 243.834 216.53 242.705 216.563C237.429 216.716 232.152 216.869 226.876 217.022C226.66 217.028 226.421 217.044 226.272 217.202C226.094 217.391 226.127 217.692 226.171 217.949C227.011 222.807 227.851 227.665 228.691 232.524C228.757 232.903 228.854 233.33 229.185 233.521C229.402 233.647 229.669 233.636 229.919 233.62C233.343 233.407 236.76 233.075 240.161 232.626C242.957 232.257 246.256 231.981 248.137 234.106C248.125 232.231 249.519 230.704 250.485 229.104C251.452 227.504 251.876 225.094 250.365 224.007C248.801 222.882 247.44 221.467 246.372 219.854C245.717 220.685 246.508 221.85 246.669 222.9C246.942 224.679 245.331 226.12 243.89 227.177ZM221.979 153.033C222.034 153.556 222.361 154.003 222.677 154.421C224.169 156.396 225.661 158.372 227.153 160.347C225.455 158.963 223.758 157.579 222.06 156.195C223.831 160.075 227.156 163.201 231.11 164.706C231.768 164.956 232.451 165.168 233.037 165.56C234.063 166.247 234.671 167.396 235.268 168.484C237.306 172.201 239.68 175.73 242.351 179.012C243.542 180.476 245.131 182.027 246.986 181.75C250.931 181.159 254.601 178.872 256.897 175.573C255.839 174.447 254.78 173.322 253.722 172.197C253.355 171.806 252.962 171.4 252.449 171.254C251.936 171.109 251.278 171.344 251.154 171.868C250.786 173.433 248.797 174.111 247.278 173.637C245.758 173.164 244.623 171.909 243.567 170.707C238.499 164.94 233.217 158.733 231.996 151.117C231.109 150.674 230.524 152.115 230.55 153.117C230.578 154.231 230.607 155.346 230.636 156.461C227.845 155.307 226.885 150.803 223.87 150.816C225.264 153.242 226.816 155.574 228.515 157.792C226.012 156.567 223.951 154.442 222.787 151.889C222.267 151.907 221.924 152.51 221.979 153.033ZM335.574 203.318C335.205 205.232 334.18 207.113 332.48 208.033C331.266 208.69 329.844 208.799 328.469 208.895C319.369 209.528 310.268 210.161 301.168 210.794C302.183 212.173 303.466 213.692 305.165 213.654C317.913 213.373 330.661 213.092 343.409 212.811C343.858 212.801 344.377 212.756 344.632 212.382C344.827 212.097 344.795 211.717 344.755 211.373C344.194 206.541 343.634 201.708 343.074 196.876C343.038 196.565 342.987 196.225 342.756 196.016C342.484 195.77 342.073 195.802 341.711 195.847C340.126 196.048 338.542 196.249 336.957 196.45C336.313 196.532 335.479 196.838 335.546 197.491C335.745 199.43 335.942 201.404 335.574 203.318ZM257.644 234.275C262.054 233.937 266.446 233.35 270.793 232.517C271.562 232.369 272.505 232.025 272.558 231.235C271.655 231.307 270.735 230.773 270.339 229.95C269.943 229.126 270.098 228.064 270.711 227.391C270.016 227.412 269.287 227.426 268.666 227.108C268.045 226.791 267.588 226.026 267.851 225.375C268.28 224.313 268.324 223.096 267.972 222.006C267.761 221.35 267.26 220.654 266.581 220.711C265.417 220.809 264.253 219.913 264.036 218.752C263.82 217.59 264.581 216.327 265.701 215.989C265.638 215.693 265.244 215.646 264.945 215.666C259.149 216.062 253.352 216.458 247.556 216.853C247.355 216.867 247.115 216.906 247.031 217.091C246.98 217.206 247.008 217.34 247.039 217.462C247.587 219.575 248.968 221.454 250.809 222.594C249.883 221.633 250.717 219.82 252.005 219.501C253.294 219.181 254.625 219.938 255.529 220.921C256.432 221.904 257.059 223.117 257.943 224.118C258.201 224.409 258.492 224.702 258.581 225.083C258.67 225.464 258.443 225.951 258.056 225.958C257.885 225.962 257.726 225.874 257.578 225.789C255.731 224.73 253.885 223.671 252.039 222.613C252.431 221.866 253.582 222.116 254.218 222.665C254.854 223.215 255.412 223.995 256.245 224.077C255.888 223.458 255.53 222.84 255.173 222.221C254.639 221.296 253.792 220.229 252.768 220.503C251.94 220.724 251.577 221.789 251.802 222.626C252.028 223.462 252.663 224.111 253.274 224.72C254.229 225.672 255.559 226.7 256.773 226.124C257.135 225.953 257.485 226.527 257.283 226.877C257.081 227.226 256.624 227.32 256.224 227.312C255.079 227.291 253.958 226.702 253.282 225.768C253.046 227.102 252.81 228.435 252.574 229.769C254.122 230.302 255.329 231.739 255.598 233.37C255.733 234.19 256.825 234.337 257.644 234.275ZM276.969 117.191C276.075 117.233 275.242 117.673 274.353 117.785C273.255 117.923 272.102 117.523 271.319 116.732C270.334 115.737 267.357 113.168 266.302 114.138C265.246 115.108 265.028 118.908 266.243 120.96C266.474 121.349 266.246 121.871 265.897 122.158C265.549 122.444 265.105 122.58 264.718 122.809C263.628 123.453 263.082 124.907 263.475 126.121C263.869 127.334 265.159 128.18 266.415 128.046C265.504 126.92 265.618 125.087 266.661 124.085C267.704 123.084 269.52 123.064 270.584 124.042C271.27 124.673 272.359 124.539 273.208 124.161C274.056 123.783 274.829 123.2 275.738 123.016C276.928 122.776 278.237 123.326 278.908 124.349C279.58 125.372 279.572 126.806 278.891 127.821C278.251 128.775 278.792 130.292 279.887 130.613C280.981 130.933 282.24 129.942 282.202 128.79C282.14 126.885 283.467 125.12 283.309 123.219C283.177 121.62 282.029 120.314 280.877 119.211C279.784 118.164 278.473 117.12 276.969 117.191ZM267.956 124.799C266.837 125.06 266.453 126.811 267.357 127.526C268.138 126.832 269.392 126.76 270.246 127.359C269.81 128.108 268.618 127.696 267.868 128.12C267.232 128.479 267.086 129.324 267.026 130.058C266.862 132.043 266.824 134.039 266.91 136.03C266.968 137.356 267.088 138.709 267.614 139.925C268.14 141.142 269.141 142.216 270.422 142.508C271.544 142.763 272.735 142.388 273.691 141.741C274.647 141.094 275.406 140.195 276.135 139.296C277.061 138.154 277.973 136.972 278.526 135.606C279.079 134.24 279.24 132.649 278.65 131.298C278.164 130.184 277.947 128.951 278.022 127.736C278.083 126.77 278.292 125.682 277.694 124.926C276.965 124.006 275.525 124.197 274.462 124.68C273.399 125.162 272.323 125.865 271.17 125.691C270.054 125.523 269.055 124.543 267.956 124.799ZM226.703 189.557C226.702 190.033 226.828 190.545 227.024 190.916C227.54 191.894 232.223 190.938 232.947 190.864C237.098 190.445 241.249 190.025 245.4 189.605C246.036 189.541 246.804 189.376 247.004 188.761C247.102 188.456 247.022 188.125 246.942 187.814C246.755 187.088 246.567 186.362 246.379 185.636C246.266 185.198 246.141 184.739 245.826 184.417C245.3 183.881 244.449 183.91 243.704 183.977C238.663 184.427 233.622 184.878 228.581 185.329C227.913 185.388 227.129 185.525 226.836 186.135C226.708 186.402 226.705 186.711 226.705 187.008C226.704 187.857 226.703 188.707 226.703 189.557ZM334.147 186.71C334.335 186.975 334.708 187.001 335.031 187.003C340.756 187.031 346.481 187.058 352.206 187.086C352.583 187.088 352.986 187.083 353.3 186.87C353.82 186.517 353.867 185.775 353.861 185.142C353.854 184.38 353.844 183.598 353.569 182.888C353.295 182.178 352.694 181.545 351.945 181.464C346.558 180.884 341.163 182.841 335.76 182.452C334.968 182.395 334.273 183.076 334.032 183.841C333.79 184.606 333.894 185.433 334.001 186.229C334.023 186.397 334.049 186.572 334.147 186.71ZM333.912 189.761C333.76 191.392 333.872 193.048 334.244 194.643C338.994 194.478 343.74 194.208 348.478 193.83C349.262 193.768 350.29 193.435 350.233 192.642C350.173 191.809 350.113 190.975 350.054 190.142C350.034 189.869 350.008 189.579 349.841 189.364C349.612 189.068 349.2 189.011 348.83 188.978C344.218 188.57 339.578 188.488 334.955 188.733C334.696 188.747 334.416 188.769 334.218 188.94C333.992 189.134 333.94 189.462 333.912 189.761ZM246.762 192.248C246.68 191.615 245.821 191.517 245.193 191.588C240.697 192.099 236.201 192.61 231.705 193.121C231.513 193.143 231.313 193.168 231.157 193.283C230.85 193.511 230.855 193.968 230.897 194.351C231.025 195.532 231.277 196.818 232.192 197.562C233.426 198.568 235.22 198.134 236.771 197.802C239.657 197.182 242.654 197.099 245.569 197.558C246.206 197.658 246.806 197.125 247.017 196.509C247.228 195.893 247.147 195.218 247.063 194.572C246.963 193.797 246.862 193.023 246.762 192.248ZM276.528 148.895C277.009 148.252 277.45 147.577 277.846 146.877C278.148 146.344 278.433 145.723 278.257 145.134C278.142 144.751 277.851 144.453 277.61 144.135C276.862 143.143 276.573 141.812 276.841 140.594C276.864 140.49 276.89 140.379 276.855 140.279C276.715 139.886 276.148 140.261 275.936 140.619C275.022 142.163 273.444 143.288 271.7 143.641C271.32 143.717 271.42 144.315 271.22 144.608C270.383 145.838 268.659 147.466 270.246 149.369C271.438 150.799 271.69 151.114 272.024 151.217C273.744 151.751 275.442 150.345 276.528 148.895ZM289.018 215.003C289.487 214.918 289.956 214.833 290.425 214.747C291.337 214.581 292.282 214.401 293.039 213.859C294.038 213.144 294.661 211.834 295.851 211.542C296.139 211.471 296.538 211.171 296.294 211.001C296.234 210.959 296.157 210.959 296.085 210.959C292.891 211 289.699 211.143 286.515 211.389C286.911 212.444 287.373 213.473 287.895 214.47C287.999 214.667 288.116 214.875 288.314 214.977C288.527 215.087 288.782 215.046 289.018 215.003ZM298.381 211.592C296.904 211.809 295.643 212.791 294.629 213.899C294.384 214.168 294.641 214.695 295 214.662C295.392 214.037 296.234 213.93 296.963 213.887C298.638 213.787 300.313 213.687 301.988 213.587C301.55 212.143 299.858 211.374 298.381 211.592ZM279.417 135.542C279.109 136.782 278.426 137.924 277.482 138.774C277.542 139.091 278 139.06 278.299 138.947C279.371 138.539 280.478 138.092 281.259 137.244C282.04 136.397 282.393 135.029 281.761 134.062C281.546 135.027 279.656 134.582 279.417 135.542ZM251.466 232.588C251.101 233.341 251.087 234.422 251.803 234.844C252.416 235.204 253.296 234.784 253.498 234.097C253.699 233.409 253.275 232.626 252.628 232.332C252.228 232.15 251.659 232.189 251.466 232.588ZM248.31 214.661C248.201 214.835 248.173 215.127 248.366 215.191C249.686 215.049 251.018 215.017 252.343 215.096C252.492 214.771 252.294 214.37 251.996 214.177C251.698 213.983 251.33 213.945 250.978 213.912C250.007 213.821 248.828 213.827 248.31 214.661ZM307.221 225.194C307.442 225.123 307.594 224.878 307.562 224.645C306.019 224.32 304.406 224.342 302.873 224.71C304.172 225.471 305.79 225.651 307.221 225.194ZM243.527 225.348C243.896 223.898 244.156 222.419 244.302 220.929C242.864 221.8 242.473 224.03 243.527 225.348ZM280.07 134.03C280.657 133.982 281.174 133.476 281.242 132.884C281.31 132.293 280.92 131.681 280.36 131.498C279.831 132.032 279.54 132.798 279.579 133.552C279.587 133.698 279.614 133.858 279.725 133.951C279.819 134.029 279.95 134.04 280.07 134.03ZM253.906 236.036C253.429 235.537 252.567 235.486 252.036 235.926C252.26 236.438 252.657 236.872 253.145 237.136C253.37 237.258 253.643 237.344 253.875 237.237C254.296 237.041 254.228 236.373 253.906 236.036ZM254.306 232.921C254.353 232.186 253.962 231.44 253.334 231.066C252.707 230.692 251.872 230.708 251.259 231.106C252.393 231.468 253.443 232.094 254.306 232.921ZM245.609 222.935C245.517 222.709 245.328 222.473 245.089 222.506C244.595 223.3 244.599 224.382 245.098 225.173C245.703 224.632 245.918 223.69 245.609 222.935ZM246.189 236.845C246.072 237.048 246.178 237.346 246.396 237.427C246.716 237.263 246.926 236.901 246.913 236.539C246.655 236.428 246.319 236.594 246.246 236.868M327.961 91.9032C327.812 92.0145 327.662 92.1259 327.512 92.2372C327.606 92.4091 327.7 92.581 327.793 92.7529C328.067 92.6112 328.177 92.2198 328.019 91.9535L327.961 91.9032Z" fill="#00160A"/>
<ellipse cx="267.817" cy="136.374" rx="0.578337" ry="1.17002" fill="#4F2222"/>
<path fill-rule="evenodd" clip-rule="evenodd" d="M279.911 201.347C280.898 189.573 281.725 177.783 282.87 166.023C283.155 163.089 291.336 166.643 287.941 192.081C287.405 196.103 284.847 202.113 280.283 202.421L279.911 201.347Z" fill="#4EAD8B"/>
<path fill-rule="evenodd" clip-rule="evenodd" d="M79.3583 161.017C80.0921 177.001 77.5503 166.875 84.1342 171.155C85.2548 171.884 86.4801 173.243 86.2671 174.574C85.849 177.185 83.3595 179.033 82.4746 181.522C78.0944 193.847 97.9449 194.398 101.546 196.336C102.749 196.984 102.208 199.352 101.412 200.472C98.5171 204.542 81.6717 193.49 79.5496 191.838C65.4858 180.891 67.1614 173.729 78.2024 162.484L79.3583 161.017Z" fill="#4EAD8B"/>
<ellipse cx="93.159" cy="143.394" rx="0.578337" ry="1.17002" fill="#4F2222"/>
</svg>
