<svg width="355" height="279" viewBox="0 0 355 279" fill="none" xmlns="http://www.w3.org/2000/svg">
<path d="M74.7913 226.996C73.6624 223.471 59.3004 228.97 54.2408 229.699C52.8889 229.893 59.0991 75.344 64.1586 39.5391C64.4984 37.1343 66.2301 33.9298 68.4246 35.016C71.5292 36.5527 75.1679 36.4553 78.637 36.3324C141.378 34.1089 204.221 34.7378 266.903 38.2165C269.022 38.3341 271.318 38.5247 272.897 39.9282C274.403 41.2671 274.876 43.3772 275.256 45.3452C282.491 82.8467 283.44 200.257 280.631 238.335C278.499 238.318 264.144 235.708 264.144 235.708C264.144 235.708 78.637 221.313 74.7913 226.996Z" fill="white"/>
<path fill-rule="evenodd" clip-rule="evenodd" d="M159.487 157.741C156.871 185.847 153.993 213.93 150.855 241.984C150.771 242.736 150.469 243.697 149.705 243.706C106.673 244.239 63.6298 243.81 20.6179 242.418C20.1621 242.403 19.6647 242.372 19.327 242.069C18.8885 241.675 18.902 241.002 18.9491 240.418C21.2986 211.307 23.6481 182.196 25.9976 153.085C26.5058 152.477 27.4075 152.412 28.2045 152.395C70.5947 151.476 113.018 150.557 155.384 152.248C156.38 152.287 157.441 152.35 158.248 152.93C159.666 153.952 159.648 156.012 159.487 157.741Z" fill="white"/>
<path fill-rule="evenodd" clip-rule="evenodd" d="M251.242 65.9483C251.912 66.4597 252.172 67.3277 252.389 68.1375C259.571 94.8936 262.95 122.647 262.395 150.325C262.33 153.543 262.387 157.194 264.783 159.37C266.445 128.884 263.056 98.1339 254.794 68.7186C254.02 65.9645 256.144 63.3134 258.114 61.2232L271.95 46.5468C278.451 72.053 280.333 98.3877 280.312 124.76C279.134 126.844 277.977 128.941 277.054 131.119C274.907 136.184 274.036 141.697 273.635 147.179C272.117 167.88 277.06 188.582 284.284 208.055C284.658 209.064 285.075 210.122 285.926 210.785C286.756 211.433 287.859 211.593 288.907 211.717C299.161 212.932 309.57 212.855 319.805 211.488C320.702 211.369 321.654 211.214 322.329 210.614C322.936 210.075 323.213 209.268 323.457 208.496C328.552 192.336 329.367 175.194 330.07 158.273C330.493 148.092 330.657 137.08 324.748 128.755C323.72 127.306 322.53 125.979 321.34 124.652L321.34 124.651C319.951 123.102 318.563 121.554 317.434 119.814C315.109 116.23 313.978 111.893 314.261 107.638C314.512 103.852 310.03 101.651 306.27 101.003C306.086 100.972 305.901 100.941 305.715 100.912C305.782 99.7119 305.849 98.8737 305.916 98.8535C309.111 97.892 312.182 96.5304 315.032 94.8088C316.592 93.8667 318.287 92.1279 317.445 90.5221C316.758 89.2113 314.893 89.1449 313.435 89.4545C311.088 89.9528 308.852 90.959 306.929 92.3822C307.957 87.826 310.174 83.5381 313.306 80.0484C312.026 82.034 313.785 85.0418 316.16 85.1832C318.535 85.3247 320.608 82.9222 320.385 80.5769C321.338 82.4958 323.983 83.3694 325.908 82.4009C327.833 81.4324 328.68 78.802 327.677 76.9086C329.208 78.3925 332.063 78.1788 333.33 76.4673C334.596 74.7558 333.918 71.9719 331.991 71.0441C333.277 71.1684 334.624 71.2845 335.819 70.7973C337.014 70.31 337.978 69.0083 337.616 67.7796C337.394 67.024 336.744 66.4748 336.09 66.0279C334.033 64.6232 331.598 63.7671 329.107 63.5731C329.851 62.8676 330.736 62.3404 331.623 61.8126C332.384 61.3596 333.146 60.906 333.82 60.3389C335.279 59.1109 336.266 56.8909 335.17 55.3367C334.38 54.2175 332.776 53.9123 331.441 54.2515C330.105 54.5908 328.971 55.4424 327.878 56.2742L329.398 51.0344C329.754 49.8061 330.067 48.3445 329.24 47.3634C328.079 45.9867 325.714 46.8026 324.565 48.1888C324.106 48.7423 323.733 49.3665 323.362 49.9887C322.803 50.9246 322.247 51.8562 321.403 52.5365C321.354 51.0535 321.289 49.5075 320.567 48.2072C319.845 46.9069 318.25 45.9521 316.838 46.449C315.806 46.8121 315.157 47.8141 314.693 48.7959C313.238 51.8705 312.84 55.4239 313.579 58.7393C311.74 57.2964 309.277 56.5018 306.997 57.0518C304.717 57.6019 302.783 59.6939 302.842 62.0169C302.901 64.34 305.323 66.4375 307.592 65.8422C305.965 66.323 304.28 66.836 303.023 67.965C301.765 69.094 301.074 71.0299 301.895 72.5007C302.97 74.4253 305.74 74.4545 307.91 73.9823C310.658 73.3841 313.318 72.3909 315.781 71.0435L311.78 77.8838C308.787 82.9989 304.904 91.1211 303.797 100.661C300.428 100.317 296.997 100.499 293.867 101.729C289.967 103.263 286.63 106.682 286.112 110.821C285.736 113.823 284.65 116.605 283.297 119.31C282.777 94.8292 280.188 70.3914 275.548 46.3397C275.168 44.3718 274.695 42.2617 273.189 40.9227C271.61 39.5192 269.314 39.3286 267.195 39.211C204.513 35.7323 141.669 35.1034 78.9286 37.3269C75.4596 37.4499 71.8208 37.5472 68.7162 36.0105C66.5217 34.9243 64.79 38.1288 64.4502 40.5336C59.3907 76.3385 56.0796 112.385 54.5324 148.506C54.4805 149.718 55.1791 151.475 56.286 150.954C58.0988 113.73 61.814 76.5978 67.4128 39.7453L77.9836 54.5486C78.738 55.6051 79.5268 56.7755 79.4396 58.0663L74.2695 134.597C73.9536 139.272 73.6524 144.077 75.0829 148.544C78.382 119.632 80.5458 90.5937 81.568 61.5159C81.6403 59.4609 84.3426 58.7622 86.418 58.6621C140.682 56.0453 195.006 60.7032 249.131 65.3567C249.87 65.4203 250.654 65.5004 251.242 65.9483ZM303.673 101.861C299.629 101.432 295.397 102.778 291.7 104.641C290.32 105.336 288.783 106.441 288.912 107.974C289.045 109.547 290.83 110.374 292.369 110.762C297.986 112.178 303.996 112.019 309.529 110.306C310.913 109.879 312.473 109.117 312.693 107.693C312.945 106.06 311.288 104.827 309.831 104.035C308.774 103.46 307.703 102.899 306.567 102.503C306.262 102.397 305.956 102.304 305.647 102.222C305.617 102.855 305.586 103.532 305.556 104.208C305.435 106.879 305.314 109.553 305.193 109.587C304.693 109.727 304.19 109.857 303.685 109.978C303.417 107.194 303.438 104.478 303.673 101.861ZM277.023 135.101C277.809 132.551 278.994 130.153 280.302 127.804C280.245 137.001 279.97 146.198 279.591 155.362C279.504 157.47 280.091 160.342 282.223 160.359C283.152 147.772 283.528 135.146 283.353 122.527C285.248 119.217 286.97 115.852 287.727 112.141C295.768 114.692 304.734 114.237 312.472 110.886C313.236 114.751 314.776 118.463 316.973 121.741C318.078 123.389 319.348 124.93 320.617 126.469L320.617 126.469C322.625 128.906 324.628 131.338 325.965 134.178C327.957 138.411 328.302 143.204 328.469 147.873C329.164 167.34 327.296 186.896 322.929 205.885C322.546 207.549 321.798 209.54 320.096 209.768C310.069 211.111 299.884 211.286 289.817 210.289C288.785 210.187 287.68 210.041 286.91 209.35C286.203 208.716 285.922 207.749 285.673 206.835C280.17 186.648 274.621 166.066 275.543 145.17C275.693 141.772 276.02 138.353 277.023 135.101ZM190.457 38.3682L270.715 42.2498C265.71 48.5823 260.478 54.7387 255.031 60.7034C252.991 62.9378 249.502 62.9154 246.466 62.7166C237.181 62.1085 227.893 61.4436 218.601 60.7786L218.601 60.7785L218.601 60.7785C173.672 57.5625 128.682 54.3421 83.8041 57.5235C82.7596 57.5975 82.0036 56.5931 81.4623 55.706L71.135 38.7788C103.368 40.0498 135.661 39.8067 167.871 38.0505C175.393 37.6404 182.933 38.0043 190.457 38.3682ZM164.942 71.3363C166.274 70.7785 167.658 70.2063 169.104 70.2568C170.281 70.298 171.399 70.7507 172.489 71.1938C191.683 78.9973 211.266 85.8611 231.145 91.7518C234.148 92.6419 234.976 96.3889 235.286 99.4768L241.387 160.311C242.698 160.169 242.933 158.395 242.806 157.096L236.691 94.4487C237.683 94.3003 238.648 94.7167 239.579 95.1185L239.729 95.1828L239.809 95.2172L239.902 95.2567C240.932 95.6926 242.152 96.0303 243.136 95.5011C244.121 94.9718 244.287 93.2109 243.212 92.8974C219.256 85.9091 195.544 78.1025 172.131 69.4962C171.141 69.1323 170.125 68.7619 169.069 68.7673C168.071 68.7725 167.111 69.1127 166.173 69.4487L92.8923 95.7037C92.5636 97.0713 94.7488 97.5779 96.0434 96.9992C96.2404 96.9112 96.4423 96.8142 96.6472 96.7157L96.6478 96.7154C97.7893 96.1667 99.0237 95.5733 100.021 96.2413C98.3913 112.303 97.0236 128.391 95.9184 144.497C95.814 146.018 96.2818 148.147 97.818 148.032L101.685 97.586C101.795 96.1482 102.14 94.3978 103.527 93.9548C124.321 87.3126 144.819 79.7633 164.942 71.3363ZM210.339 223.249C211.394 223.232 212.719 223.017 212.995 222.01C212.547 221.165 211.392 221.051 210.427 221.045L167.003 220.789C163.083 220.765 159.091 220.752 155.347 221.899C155.604 222.77 156.747 222.957 157.664 222.982C175.217 223.452 192.781 223.541 210.339 223.249ZM165.027 229.917C161.588 229.876 158.098 229.828 154.796 228.874C173.028 228.254 191.279 228.193 209.514 228.691C211.065 228.734 212.732 228.82 213.953 229.768C213.705 230.391 212.866 230.484 212.189 230.476L165.027 229.917ZM209.434 204.801C193.027 205.429 176.576 204.916 160.241 203.269C159.128 203.157 157.616 203.323 157.451 204.418C175.176 206.522 193.066 207.263 210.906 206.633C211.147 205.758 210.35 204.766 209.434 204.801ZM196.594 142.84C197.35 143.495 197.5 144.583 197.601 145.573L201.252 181.376C204.583 181.263 207.933 181.728 211.104 182.745L201.548 184.418C203.796 187.83 205.539 191.567 206.705 195.473C192.546 195.35 178.391 194.818 164.263 193.878C163.441 193.823 162.512 193.712 162.019 193.058C161.415 192.257 161.802 191.127 162.208 190.212L164.923 184.097C165.356 183.124 163.821 182.446 162.766 182.646C162.669 182.665 162.57 182.685 162.469 182.705L162.457 182.707L162.455 182.708C161.46 182.907 160.316 183.136 159.75 182.355C158.872 181.143 160.874 179.801 162.372 179.964C162.66 179.996 162.958 180.043 163.26 180.09C164.529 180.288 165.856 180.496 166.686 179.615C167.197 167.339 168.348 155.09 170.132 142.931C170.202 142.448 170.301 141.916 170.688 141.612C171.038 141.337 171.524 141.33 171.971 141.336C179.354 141.431 186.735 141.696 194.105 142.132C194.984 142.184 195.933 142.266 196.594 142.84ZM193.912 143.965C187.176 143.361 180.425 142.923 173.667 142.653C173.086 142.63 172.449 142.626 171.998 142.987C171.512 143.375 171.403 144.052 171.33 144.665C169.972 156.036 169.112 167.466 168.753 178.91C168.739 179.336 168.75 179.82 169.07 180.106C169.315 180.324 169.67 180.358 169.999 180.38C179.149 181.014 188.318 181.399 197.49 181.534C197.908 181.54 198.375 181.527 198.671 181.235C198.992 180.918 198.977 180.408 198.941 179.96L196.165 145.967C196.129 145.533 196.085 145.076 195.832 144.72C195.421 144.144 194.621 144.029 193.912 143.965ZM200.616 186.013C200.382 185.6 200.125 185.175 199.717 184.93C199.317 184.689 198.829 184.656 198.362 184.63L170.245 183.019C169.377 182.969 168.437 182.939 167.723 183.429C167.146 183.826 166.831 184.489 166.54 185.121L164.038 190.565C163.89 190.886 163.746 191.273 163.933 191.573C164.119 191.871 164.529 191.918 164.882 191.933L204.008 193.662C203.131 191.011 201.993 188.446 200.616 186.013ZM153.466 96.8578C153.964 98.6747 154.998 100.322 156.298 101.696C160.535 106.171 167.791 107.496 173.378 104.844C178.965 102.193 182.46 95.7912 181.675 89.7092C180.889 83.6271 175.904 78.3122 169.841 77.0492C166.333 76.3184 162.585 77.5407 159.825 79.805C157.065 82.0693 155.217 85.2768 154.088 88.6443C153.202 91.2883 152.729 94.1692 153.466 96.8578ZM178.509 90.5799C175.525 90.8387 172.524 90.8985 169.533 90.7589C169.282 90.7472 169.014 90.7281 168.816 90.5765C168.515 90.3469 168.489 89.9149 168.49 89.5388L168.5 81.8271C168.501 81.3269 168.518 80.7799 168.847 80.4004C169.496 79.6524 170.731 80.1107 171.544 80.6806C174.926 83.0524 177.434 86.6178 178.509 90.5799ZM158.517 91.2946C158.292 91.3127 158.054 91.3283 157.853 91.2273C157.329 90.9639 157.445 90.1972 157.663 89.6569C159.365 85.4251 162.564 81.7993 166.571 79.5582L166.598 89.8817C166.599 90.1081 166.589 90.3602 166.428 90.5203C166.283 90.6633 166.061 90.6878 165.857 90.7041L158.517 91.2946ZM157.571 96.2356C157.05 95.4069 156.753 94.0742 157.645 93.6561C157.94 93.5179 158.282 93.5404 158.607 93.5659L165.208 94.0829C165.839 94.1323 166.563 94.2355 166.896 94.7674C167.073 95.0492 167.098 95.3957 167.117 95.7268L167.446 101.238C167.465 101.561 167.469 101.928 167.236 102.155C166.973 102.411 166.546 102.363 166.187 102.284C162.659 101.502 159.483 99.2719 157.571 96.2356ZM168.896 101.302L168.681 95.7281C168.665 95.3301 168.673 94.876 168.973 94.6109C169.243 94.3729 169.645 94.3814 170.006 94.4034L177.917 94.8867C176.19 97.6739 173.736 100.016 170.859 101.623C170.16 102.013 168.926 102.095 168.896 101.302ZM121.899 84.5431C120.505 83.6715 120.574 81.6721 120.809 80.0567L121.758 73.5423C121.923 72.4083 122.591 70.9181 123.708 71.2221C124.663 71.4823 124.719 72.7875 124.572 73.7572L123.385 81.557C123.212 82.6977 122.928 84.0008 121.899 84.5431ZM91.4391 183.402C91.5866 182.761 91.8616 182.086 92.4422 181.766C93.3318 181.275 94.5093 181.912 94.9515 182.819C95.3937 183.727 95.3076 184.789 95.2118 185.792C95.1359 186.586 95.0473 187.417 94.5989 188.08C94.1504 188.743 93.2176 189.159 92.5125 188.772C92.0574 188.522 91.8129 188.018 91.6474 187.53C91.1992 186.207 91.1263 184.762 91.4391 183.402ZM110.67 61.7294C109.046 62.5524 108.937 64.7679 109.05 66.5696C109.116 67.6304 109.307 68.8854 110.273 69.3513C110.645 69.5312 111.073 69.5536 111.487 69.5715C115.856 69.7609 120.231 69.8212 124.604 69.7524C125.214 69.7428 125.859 69.72 126.369 69.3889C127.189 68.8553 127.35 67.7515 127.433 66.7832C127.521 65.7644 127.605 64.7125 127.28 63.7419C126.955 62.7712 126.11 61.8948 125.078 61.8571L113.029 61.4174C112.227 61.3882 111.384 61.3673 110.67 61.7294ZM111.747 67.9495C111.417 67.7593 111.326 67.3361 111.268 66.9622C111.08 65.7554 111.055 64.2128 112.159 63.6675C112.596 63.4518 113.107 63.4643 113.595 63.4817L121.36 63.7574C122.401 63.7943 123.498 63.8479 124.376 64.4031C125.253 64.9583 125.776 66.2018 125.19 67.0541C124.663 67.8214 123.575 67.9099 122.637 67.9226L112.424 68.0617C112.192 68.0649 111.947 68.0648 111.747 67.9495ZM57.363 180.47C59.0695 183.283 57.7929 186.861 56.6061 189.925C54.4983 195.367 52.7958 201.582 55.2555 206.877C55.8132 208.078 56.5192 209.643 55.5546 210.556C52.3839 207.604 51.6288 202.826 52.2719 198.565C52.7081 195.675 53.6845 192.912 54.6616 190.146L54.6617 190.146L54.6617 190.146L54.6618 190.145L54.6618 190.145L54.6619 190.145L54.6619 190.145L54.662 190.145L54.662 190.145L54.662 190.145L54.6621 190.145L54.6621 190.144L54.6622 190.144L54.6622 190.144L54.6623 190.144L54.6623 190.144L54.6624 190.144L54.6624 190.144L54.6625 190.143L54.6625 190.143C55.1256 188.833 55.5889 187.521 55.9948 186.196C56.3591 185.006 56.6792 183.738 56.3716 182.533C55.974 180.975 54.5939 179.836 53.121 179.159C50.4285 177.921 46.9256 178.027 44.8005 180.078C42.6755 182.13 42.8196 186.249 45.4492 187.613C46.5934 188.206 48.1412 188.158 49.0467 187.246C49.9521 186.334 49.8249 184.541 48.6635 183.982C50.2169 183.607 51.7898 184.907 52.2293 186.428C52.6687 187.949 52.2585 189.578 51.7305 191.071C51.2796 192.346 50.7405 193.6 50.2018 194.852L50.2018 194.852C49.0278 197.581 47.856 200.305 47.6045 203.239C47.2783 207.045 48.5393 210.764 49.7745 214.406C49.9019 214.781 50.0289 215.156 50.1539 215.53C50.4501 216.416 50.691 217.516 50.0275 218.179C46.3347 214.183 45.3199 208.313 46.0815 202.951C46.8432 197.589 49.1671 192.586 51.4637 187.671C50.8443 187.723 50.3073 188.05 49.7693 188.377L49.7691 188.378C49.5449 188.514 49.3205 188.651 49.0899 188.767C46.3084 190.176 42.5449 188.235 41.7009 185.258C40.8569 182.281 42.6534 178.942 45.4314 177.526C48.2094 176.111 51.6807 176.442 54.4349 177.902C55.5986 178.519 56.6835 179.35 57.363 180.47ZM115.337 71.1856C115.116 70.5707 114.544 70.0297 113.885 70.0552C112.734 70.0997 112.34 71.5752 112.271 72.7126L111.586 83.9647C111.543 84.6672 111.524 85.445 111.979 85.986C112.434 86.5269 113.541 86.4816 113.672 85.7898C114.465 81.5989 115.057 77.3708 115.446 73.1244C115.506 72.4744 115.558 71.8005 115.337 71.1856ZM68.7302 220.134C66.9994 220.362 65.8641 222.302 66.1306 224.01C66.397 225.717 67.7465 227.104 69.2975 227.897C69.7031 228.105 69.5201 228.794 69.0917 228.95C68.6633 229.106 68.19 228.904 67.8005 228.669C66.1127 227.647 64.9099 225.873 64.5934 223.941C64.3946 222.726 64.5716 221.378 65.4033 220.464C66.235 219.55 67.8299 219.286 68.7302 220.134ZM112.504 193.972L112.504 193.972L112.504 193.973L112.504 193.973L112.504 193.973L112.504 193.973L112.504 193.973L112.504 193.974L112.504 193.974L112.504 193.974L112.504 193.974L112.504 193.974L112.504 193.974L112.504 193.975L112.504 193.975L112.504 193.975L112.503 193.975C111.974 195.648 111.444 197.322 111.053 199.03C109.19 207.172 110.551 215.697 112.631 223.787C113.172 225.89 110.807 227.958 108.643 227.609C106.479 227.261 104.937 225.125 104.725 222.965C104.702 222.727 104.691 222.486 104.68 222.244C104.648 221.556 104.617 220.867 104.303 220.262C103.878 219.445 102.623 218.973 102.023 219.675C103.345 222.1 104.323 225.787 101.846 227.046C99.4753 228.25 96.9509 225.468 96.343 222.9C95.9632 221.296 94.7312 219.047 93.3651 219.989C93.8861 220.894 94.2876 221.871 94.6879 222.845C95.3518 224.461 96.0124 226.069 97.21 227.325C99.1297 229.339 103.373 229.443 104.05 226.757C105.509 227.946 107.194 228.965 109.068 229.209C110.942 229.452 113.026 228.773 114.031 227.189C115.285 225.213 114.548 222.676 113.89 220.413L113.826 220.192C111.805 213.213 111.585 205.731 113.194 198.647C113.541 197.12 113.971 195.61 114.401 194.1L114.401 194.1L114.401 194.1L114.401 194.1L114.401 194.1L114.401 194.1L114.401 194.1L114.401 194.099L114.401 194.099L114.402 194.099C115.144 191.493 115.886 188.889 116.197 186.204C116.778 181.175 115.782 175.979 113.38 171.511C112.723 170.29 110.768 170.513 109.772 171.482C109.135 172.101 108.736 172.896 108.336 173.693C108.109 174.144 107.882 174.596 107.611 175.018C106.862 176.185 105.423 177.19 104.135 176.654C101.986 175.76 99.6235 175.931 97.2614 176.102H97.2612H97.261H97.2609H97.2607H97.2605H97.2604H97.2602H97.2601H97.2599H97.2597H97.2596H97.2594H97.2593H97.2591H97.2589H97.2588H97.2586C96.3639 176.167 95.4692 176.232 94.5862 176.238C91.3711 176.263 87.543 174.883 86.9816 171.75C86.739 170.396 84.7887 169.965 83.6172 170.703C82.4456 171.442 81.9181 172.847 81.5484 174.172C79.8274 180.341 79.8994 186.99 81.7534 193.121C82.344 195.074 79.6922 196.278 77.687 196.745C63.7883 199.981 52.2398 211.566 49.1599 225.363C48.9601 226.258 49.4039 227.675 50.234 227.269C53.0809 212.769 65.6165 200.631 80.3277 198.13C82.1792 197.815 83.349 195.864 83.4923 194.01C83.605 192.553 83.2502 191.118 82.8968 189.689C82.8008 189.301 82.7048 188.913 82.6183 188.525C81.4144 183.122 82.0812 177.328 84.4822 172.332C86.8497 173.533 88.532 175.967 88.8054 178.586C93.9995 177.518 99.4258 177.569 104.598 178.735C106.428 179.147 107.476 177.457 108.568 175.696C109.57 174.08 110.609 172.405 112.323 172.238C114.495 177.055 115.16 182.526 114.203 187.716C113.811 189.842 113.158 191.907 112.504 193.972ZM105.733 196.85L102.941 195.541C102.176 195.182 101.387 194.804 100.841 194.164C103.671 194.028 106.539 194.982 108.712 196.781C108.108 197.676 106.717 197.312 105.733 196.85ZM87.1719 228.681C87.0211 226.572 86.7629 224.47 86.3984 222.386C86.253 221.555 86.0573 220.665 85.4263 220.097C84.7954 219.529 83.5868 219.545 83.251 220.321C84.7559 220.998 85.2473 222.87 85.3019 224.505C85.312 224.805 85.3144 225.108 85.3168 225.413C85.3276 226.77 85.3385 228.149 86.0236 229.3C86.1586 229.527 86.3597 229.762 86.6258 229.76C87.0842 229.756 87.2043 229.134 87.1719 228.681ZM95.4577 191.085C93.8018 192.153 91.8348 192.744 89.8581 192.765C89.2202 192.772 88.4746 192.658 88.1658 192.106C90.349 190.871 93.0141 190.498 95.4577 191.085ZM102.38 184.316C102.147 185.327 102.261 186.413 102.698 187.355C103.021 188.049 103.806 188.736 104.482 188.368C104.776 188.208 104.941 187.891 105.071 187.585C105.507 186.552 105.722 185.429 105.698 184.31C105.684 183.688 105.557 182.997 105.051 182.627C104.041 181.887 102.66 183.104 102.38 184.316ZM222.821 106.473C223.513 107.086 223.612 108.105 223.664 109.023L224.825 129.615C224.904 131.012 224.539 132.921 223.125 132.95L192.15 133.576C191.661 133.586 191.13 133.583 190.743 133.286C190.275 132.925 190.189 132.27 190.139 131.684L188.377 110.762C188.267 109.463 188.504 107.707 189.81 107.54C199.964 106.244 210.214 105.681 220.45 105.859C221.286 105.874 222.198 105.922 222.821 106.473ZM207.721 111.062C207.794 110.553 207.845 109.967 207.49 109.593C207.151 109.235 206.591 109.227 206.096 109.244L192.251 109.722C191.961 109.732 191.642 109.754 191.433 109.953C191.169 110.204 191.193 110.62 191.235 110.979L192.022 117.665C192.157 118.813 192.806 120.337 193.933 120.035C197.747 119.015 201.74 118.657 205.677 118.984C206.374 119.042 206.701 118.162 206.8 117.477L207.721 111.062ZM206.223 128.668L206.563 122.895C206.588 122.485 206.594 122.024 206.308 121.726C206.056 121.463 205.656 121.415 205.291 121.387C201.328 121.086 197.325 121.316 193.424 122.071C193.185 122.117 192.934 122.171 192.753 122.334C192.452 122.606 192.457 123.068 192.485 123.471L192.895 129.415C192.938 130.028 193.042 130.743 193.585 131.043C193.935 131.236 194.364 131.189 194.762 131.137L205.325 129.75C205.525 129.723 205.735 129.693 205.896 129.572C206.162 129.371 206.203 128.998 206.223 128.668ZM209.349 110.391L208.914 117.392C208.895 117.703 208.886 118.049 209.091 118.285C209.346 118.578 209.8 118.566 210.189 118.53L220.227 117.588C220.496 117.562 220.787 117.528 220.986 117.346C221.22 117.132 221.254 116.784 221.272 116.469L221.669 109.754C221.684 109.494 221.69 109.205 221.516 109.01C221.315 108.785 220.967 108.784 220.664 108.8L210.483 109.348C210.147 109.367 209.771 109.404 209.555 109.659C209.388 109.857 209.365 110.133 209.349 110.391ZM221.119 128.661C221.679 128.126 221.672 127.252 221.626 126.484L221.366 122.109C221.323 121.373 221.023 120.397 220.28 120.452L210.18 121.199C209.801 121.227 209.375 121.28 209.147 121.58C208.975 121.806 208.966 122.111 208.965 122.394L208.937 128.17C208.935 128.518 208.948 128.903 209.19 129.155C209.423 129.399 209.794 129.439 210.133 129.46C213.263 129.663 216.411 129.581 219.526 129.218C220.096 129.151 220.707 129.056 221.119 128.661ZM99.3351 189.584C98.4707 189.153 97.3081 189.436 96.7452 190.216C96.1011 191.107 96.3746 192.511 97.3075 193.102C98.2404 193.693 99.6431 193.351 100.192 192.399C100.741 191.447 100.324 190.078 99.3351 189.584ZM110.101 191.32C110.617 191.747 109.771 192.445 109.105 192.536C106.61 192.877 104.036 192.63 101.653 191.822C102.541 190.894 104.008 190.893 105.298 190.958L109.551 191.172C109.744 191.182 109.953 191.197 110.101 191.32ZM93.5308 193.313L89.5663 195.482C89.0459 195.767 88.4414 196.334 88.7628 196.829C89.0618 197.29 89.7779 197.064 90.2571 196.791L95.2028 193.969C95.3068 193.578 95.0411 193.129 94.6459 193.027C94.2646 192.929 93.8756 193.124 93.5308 193.313ZM136.922 159.73C137.305 159.28 137.72 158.807 138.289 158.638C138.858 158.469 139.606 158.765 139.678 159.349C138.118 161.555 136.18 163.5 133.973 165.076C134.181 163.023 135.581 161.309 136.922 159.73ZM139.431 164.097L142.72 160.551C143.082 160.16 143.465 159.597 143.176 159.151C142.767 158.519 141.792 159.075 141.296 159.643L137.43 164.079C137.282 164.521 137.827 164.941 138.292 164.872C138.757 164.804 139.113 164.44 139.431 164.097ZM110.968 107.724C111.571 107.106 112.502 106.959 113.364 106.853C123.804 105.569 134.376 105.343 144.861 106.179C145.513 106.231 146.278 106.359 146.567 106.94C146.714 107.236 146.695 107.583 146.673 107.912L144.988 133.046C144.924 134 144.752 135.123 143.889 135.553C143.474 135.759 142.987 135.748 142.522 135.733L112.624 134.731C112.04 134.712 111.398 134.669 110.978 134.267C110.568 133.875 110.495 133.261 110.449 132.699C109.838 125.234 109.751 117.728 110.188 110.251C110.24 109.351 110.335 108.371 110.968 107.724ZM127.445 108.306C122.98 108.242 118.512 108.319 114.052 108.538C113.356 108.572 112.558 108.663 112.166 109.232C111.902 109.614 111.9 110.11 111.907 110.572L112.207 129.087C112.229 130.472 112.649 132.295 114.047 132.369L127.598 133.078C127.842 133.091 128.108 133.098 128.307 132.956C128.571 132.767 128.608 132.398 128.621 132.075L129.011 122.476C129.026 122.105 129.016 121.677 128.724 121.444C128.526 121.286 128.253 121.268 127.999 121.258C123.131 121.063 118.243 121.379 113.442 122.198C112.893 122.292 112.587 121.465 112.909 121.015C113.23 120.564 113.838 120.437 114.389 120.35C118.908 119.635 123.484 119.269 128.061 119.257C128.832 119.254 129.072 118.232 129.071 117.47L129.061 111.174C129.059 109.954 128.678 108.324 127.445 108.306ZM141.899 121.236L133.033 121.217C132.438 121.215 131.76 121.25 131.38 121.704C131.111 122.025 131.071 122.471 131.042 122.888L130.468 131.265C130.415 132.031 130.446 132.962 131.116 133.348C131.412 133.518 131.769 133.535 132.11 133.548L140.827 133.872C141.097 133.882 141.39 133.886 141.61 133.73C141.897 133.528 141.955 133.137 141.989 132.79L143.018 122.299C143.042 122.06 143.061 121.802 142.935 121.597C142.735 121.274 142.283 121.237 141.899 121.236ZM142.818 118.697C143.325 118.375 143.474 117.72 143.575 117.132C143.957 114.902 144.263 112.66 144.493 110.41C144.533 110.016 144.55 109.562 144.26 109.29C144.039 109.084 143.71 109.053 143.408 109.032L132.716 108.305C132.33 108.278 131.885 108.275 131.629 108.562C131.425 108.793 131.419 109.13 131.423 109.436L131.549 118.022C131.552 118.23 131.56 118.451 131.679 118.622C131.874 118.898 132.269 118.925 132.61 118.925L141.606 118.927C142.023 118.927 142.466 118.92 142.818 118.697ZM172.503 186.767C171.539 186.792 170.469 186.866 169.806 187.559C170.115 188.171 170.943 188.266 171.635 188.281L196.268 188.817C196.784 188.828 196.961 188.039 196.616 187.658C196.272 187.278 195.702 187.219 195.186 187.187C187.636 186.718 180.065 186.578 172.503 186.767ZM159.779 157.683C157.162 185.79 154.285 213.872 151.146 241.926C151.062 242.678 150.761 243.639 149.997 243.648C106.965 244.182 63.9214 243.752 20.9095 242.36C20.4537 242.345 19.9563 242.314 19.6185 242.011C19.1801 241.618 19.1935 240.944 19.2407 240.36L26.2892 153.027C26.7974 152.419 27.699 152.354 28.4961 152.337C70.8863 151.418 113.309 150.499 155.675 152.19C156.672 152.229 157.733 152.292 158.539 152.873C159.958 153.894 159.94 155.955 159.779 157.683ZM138.44 168.646C106.677 165.417 74.6595 164.644 42.7753 166.336C42.3658 166.357 41.9207 166.394 41.6187 166.668C41.2986 166.959 41.2364 167.428 41.1938 167.856L35.2664 227.497C35.224 227.923 35.194 228.396 35.4577 228.737C35.7729 229.143 36.3647 229.187 36.8824 229.196L129.444 230.778C130.016 230.788 130.656 230.772 131.06 230.37C131.395 230.037 131.466 229.531 131.519 229.064L138.44 168.646ZM140.621 168.435C140.199 169.216 140.091 170.12 139.99 171L133.51 227.562C133.424 228.308 133.345 229.095 133.651 229.781C133.995 230.549 134.753 231.04 135.472 231.488L148.861 239.817C152.373 211.981 155.888 184.12 157.516 156.115L143.004 166.163C142.091 166.795 141.145 167.463 140.621 168.435ZM142.493 164.3L154.404 155.474C130.282 153.429 106.065 153.777 81.8386 154.124C64.6332 154.371 47.4234 154.618 30.24 154.008L37.4648 161.826C38.61 163.065 39.9988 164.407 41.6923 164.302C73.6834 162.313 105.842 162.971 137.723 166.268C139.479 166.45 141.079 165.348 142.493 164.3ZM134.655 233.304C133.15 232.816 131.541 232.779 129.958 232.747L37.147 230.837C35.5818 230.805 33.9651 230.782 32.5161 231.368C31.3192 231.853 30.3276 232.719 29.3608 233.568L21.0483 240.876C41.8115 239.967 62.5992 240.506 83.3863 241.045H83.3871C104.705 241.597 126.023 242.149 147.313 241.141L138.429 235.322C137.233 234.538 136.018 233.746 134.655 233.304ZM37.2642 172.742C37.7832 166.2 34.2043 159.508 28.4462 156.254C25.8206 183.568 23.4413 210.906 21.309 238.262L30.3139 231.236C31.4998 230.311 32.7843 229.211 32.9025 227.722L37.2642 172.742ZM179.195 157.014C178.264 155.974 176.81 155.418 175.415 155.566C173.833 155.735 172.385 156.818 171.789 158.278C171.193 159.737 171.475 161.512 172.495 162.72C173.993 164.494 177 164.739 178.771 163.231C180.541 161.723 180.745 158.744 179.195 157.014ZM174.554 157.605C175.133 157.281 175.832 157.176 176.482 157.315C178.138 157.668 179.123 159.779 178.32 161.256C177.517 162.732 175.194 163.082 173.984 161.909C172.774 160.735 173.079 158.429 174.554 157.605ZM317.839 62.5511C315.933 60.9055 314.912 58.3899 314.818 55.888C314.724 53.3861 315.495 50.9042 316.709 48.7078C317.035 48.1182 317.949 48.0949 318.491 48.4993C319.033 48.9038 319.285 49.578 319.477 50.2225C320.658 54.1771 320.595 58.4864 319.299 62.4054C319.253 62.5443 319.203 62.6876 319.1 62.7923C318.77 63.1293 318.196 62.8598 317.839 62.5511ZM314.575 65.3225C312.13 65.4155 309.671 65.1245 307.317 64.4638C306.011 64.0973 304.564 63.4368 304.231 62.1337C303.943 61.0063 304.686 59.8006 305.722 59.2529C306.758 58.7053 308.004 58.7011 309.161 58.901C311.897 59.3737 314.42 60.9531 316.025 63.197C316.258 63.5227 316.482 63.9004 316.425 64.2956C316.316 65.0509 315.345 65.2932 314.575 65.3225ZM314.948 67.5773L315.143 70.3581L308.304 72.3958C306.991 72.787 305.534 73.1701 304.293 72.5925C303.053 72.0148 302.542 69.9982 303.741 69.3397C306.905 67.6023 310.559 66.7528 314.173 66.9147C314.42 66.9257 314.703 66.9602 314.843 67.1624C314.926 67.2814 314.938 67.4332 314.948 67.5773ZM328.723 75.9651C325.727 74.5768 323.681 71.7925 321.767 69.1209C321.679 68.9981 321.587 68.8602 321.603 68.7105C321.642 68.3536 322.161 68.3407 322.512 68.4328C325.923 69.3296 329.541 70.3482 331.883 72.9627C332.382 73.5187 332.831 74.2203 332.717 74.955C332.596 75.7383 331.833 76.3113 331.041 76.4308C330.25 76.5502 329.448 76.3011 328.723 75.9651ZM326.344 79.6474C326.279 80.3899 325.811 81.1437 325.082 81.3315C324.637 81.4462 324.162 81.3394 323.739 81.1626C321.57 80.2579 320.584 77.7802 320.093 75.5012C319.686 73.6126 319.464 71.685 319.431 69.7542C322.248 71.6673 324.502 74.3827 325.852 77.4893C326.15 78.1738 326.408 78.9049 326.344 79.6474ZM326.831 48.4632C327.418 48.3143 328.169 48.7831 328.044 49.3703C327.02 54.1905 325.444 59.4683 321.173 61.993C321.488 57.591 322.996 53.2783 325.498 49.6264C325.839 49.1298 326.244 48.6121 326.831 48.4632ZM335.03 69.3172C334.301 69.3086 333.574 69.2482 332.85 69.1683C329.267 68.773 325.738 67.8977 322.39 66.5738C326.526 64.0377 332.366 64.6562 335.867 68.001C336.044 68.1704 336.227 68.3698 336.235 68.6137C336.254 69.1328 335.554 69.3234 335.03 69.3172ZM314.333 80.9475C314.313 77.9957 315.542 75.0551 317.662 72.9798C317.596 72.7388 318.142 72.8838 317.963 73.06C318.906 75.6914 319.111 78.5778 318.551 81.3142C318.295 82.5588 317.547 84.0243 316.266 83.9685C314.934 83.9106 314.341 82.2673 314.333 80.9475ZM315.138 92.9748L305.469 97.9711C305.219 96.9381 305.372 95.8147 305.89 94.8843C306.991 92.9065 309.401 92.1119 311.592 91.4845C312.812 91.1352 314.057 90.7827 315.326 90.8331C315.611 90.8445 315.917 90.8857 316.124 91.0788C316.742 91.6528 315.889 92.5868 315.138 92.9748ZM331.156 56.4242C331.849 56.1084 332.819 55.8918 333.25 56.5147C333.669 57.1187 333.161 57.9204 332.639 58.4399C330.37 60.6996 327.463 62.2074 324.561 63.5842C323.763 63.9627 322.496 64.1408 322.275 63.2924C324.646 60.3646 327.713 57.9928 331.156 56.4242ZM318.755 68.2869C317.918 68.5578 316.801 68.1656 316.644 67.3073C316.545 66.7612 316.853 66.2217 317.222 65.8046C317.982 64.9473 319.061 64.374 320.202 64.2211C320.481 64.1837 320.781 64.1741 321.028 64.3074C321.824 64.7369 321.328 65.9385 320.754 66.6336C320.196 67.3086 319.592 68.016 318.755 68.2869Z" fill="#00160A"/>
<path fill-rule="evenodd" clip-rule="evenodd" d="M312.607 110.474C305.053 113.752 296.3 114.197 288.451 111.702C286.798 119.819 280.439 126.24 278.001 134.159C277.022 137.34 276.703 140.684 276.557 144.007C275.657 164.445 281.074 184.576 286.446 204.322C286.689 205.215 286.963 206.161 287.653 206.782C288.405 207.457 289.483 207.6 290.491 207.7C300.319 208.675 310.261 208.504 320.049 207.19C321.71 206.967 322.44 205.02 322.814 203.392C327.078 184.819 328.901 165.692 328.222 146.652C328.059 142.084 327.722 137.396 325.778 133.256C323.649 128.723 319.787 125.255 317.001 121.091C314.855 117.885 313.353 114.255 312.607 110.474Z" fill="white"/>
<path fill-rule="evenodd" clip-rule="evenodd" d="M302.654 115.533C303.236 116.485 303.345 118.276 302.226 118.165C298.545 111.204 294.109 104.635 289.018 98.6062C289.141 99.5262 289.263 100.446 289.385 101.366C289.633 103.233 289.878 105.154 289.414 106.98C288.95 108.807 287.604 110.543 285.736 110.905C283.867 111.267 281.702 109.719 281.93 107.849C281.937 109.895 279.775 111.629 277.734 111.294C275.693 110.96 274.219 108.742 274.617 106.734C274.799 105.816 273.527 105.221 272.623 105.494C271.719 105.767 271.035 106.503 270.178 106.898C267.535 108.112 264.408 105.366 264.258 102.487C264.108 99.6076 266.537 94.0256 268.509 91.9028C265.742 91.4599 263.515 88.8164 263.574 86.0444C263.633 83.2724 265.969 80.7233 268.753 80.3952C266.636 77.6804 264.473 73.8677 266.533 71.1104C268.038 69.0963 271.213 68.962 273.415 70.1985C275.616 71.4349 277.034 73.6706 278.206 75.8906C278.175 74.0814 278.152 72.2277 278.756 70.5198C279.36 68.8118 280.732 67.2517 282.533 66.9378C284.335 66.6239 286.403 67.9895 286.365 69.7985C286.335 71.2 285.572 73.2784 286.969 73.5174C287.723 71.6242 290.359 70.9098 292.174 71.868C293.989 72.8262 294.888 75.0474 294.642 77.0678C294.396 79.0883 293.174 80.8923 291.649 82.2575C293.894 82.3996 296.629 82.8922 297.35 85C298.051 87.0479 296.213 89.1365 294.224 90.0337C292.235 90.931 289.949 91.1992 288.155 92.434C290.992 94.2139 293.894 98.4849 296.361 102.89C299.535 108.556 301.988 114.444 302.654 115.533Z" fill="white"/>
<path fill-rule="evenodd" clip-rule="evenodd" d="M287.549 92.4337C290.282 94.5797 292.759 97.0429 294.915 99.7564C295.499 97.5422 296.185 95.1684 297.999 93.7473C299.812 92.3263 303.106 92.6273 303.8 94.8105C304.055 95.615 303.912 96.4864 303.721 97.3083C302.925 100.744 301.332 103.996 299.099 106.743C300.282 108.678 301.465 110.614 302.648 112.55C303.23 113.502 303.339 115.293 302.22 115.182C298.54 108.221 294.104 101.652 289.013 95.6232C289.135 96.5432 289.257 97.4632 289.379 98.3832C289.627 100.25 289.873 102.171 289.408 103.997C288.944 105.824 287.599 107.56 285.73 107.922C283.862 108.284 281.696 106.736 281.925 104.866C281.932 106.912 279.769 108.646 277.729 108.311C275.688 107.977 274.214 105.759 274.611 103.751C274.793 102.833 273.522 102.238 272.617 102.511C271.713 102.784 271.03 103.52 270.172 103.914C267.529 105.129 264.403 102.383 264.253 99.5037C264.103 96.6245 265.931 94.0252 267.903 91.9024C265.136 91.4596 262.909 88.8161 262.968 86.0441C263.027 83.2721 265.363 80.723 268.147 80.3949C266.03 77.68 263.867 73.8673 265.927 71.1101C267.432 69.096 270.607 68.9617 272.809 70.1981C275.01 71.4346 276.428 73.6703 277.6 75.8903C277.569 74.081 277.546 72.2273 278.15 70.5194C278.754 68.8115 280.126 67.2513 281.927 66.9374C283.729 66.6235 285.797 67.9891 285.759 69.7982C285.729 71.1997 284.966 73.278 286.362 73.5171C287.117 71.6239 289.753 70.9095 291.568 71.8677C293.383 72.8259 294.282 75.0471 294.036 77.0675C293.79 79.0879 292.568 80.8919 291.043 82.2571C293.288 82.3992 296.023 82.8918 296.744 84.9996C297.445 87.0475 295.607 89.1362 293.618 90.0334C291.629 90.9306 289.343 91.1989 287.549 92.4337ZM268.004 71.6632C266.382 72.8854 266.617 75.4388 267.648 77.1799C269.455 80.2319 272.892 81.8982 276.156 83.3421C276.861 83.6539 277.922 83.8339 278.201 83.1215C278.329 82.7921 278.196 82.4252 278.063 82.0973C277.099 79.708 276.131 77.3117 274.879 75.0563C274.176 73.7896 273.347 72.531 272.117 71.7509C270.887 70.9708 269.167 70.7878 268.004 71.6632ZM264.811 85.4563C264.39 87.699 266.602 89.7463 268.887 90.0546C271.172 90.3629 273.424 89.4466 275.545 88.5496C276.104 88.3128 276.71 88.0335 276.971 87.4893C277.501 86.3839 276.278 85.2784 275.219 84.6469C273.454 83.5945 271.598 82.5131 269.54 82.3908C267.483 82.2684 265.188 83.4519 264.811 85.4563ZM292.029 75.9913C292.122 75.5395 292.184 75.0551 292.006 74.629C291.695 73.8862 290.765 73.5896 289.954 73.6434C287.489 73.8069 285.834 76.187 284.848 78.427C283.971 80.417 283.313 82.5007 282.887 84.63C287.316 83.9401 291.13 80.3368 292.029 75.9913ZM283.779 92.8246C282.411 93.0401 282.261 94.9156 282.467 96.2708C282.671 97.6159 282.875 98.9611 283.08 100.306C283.41 102.482 283.997 105.007 286.031 105.898C288.149 102.406 288.125 97.7488 285.972 94.2778C285.483 93.4893 284.702 92.6792 283.779 92.8246ZM277.518 105.624C277.676 105.825 277.864 106.027 278.115 106.085C278.735 106.227 279.138 105.461 279.28 104.846C280.24 100.682 280.204 96.3652 280.164 92.0944C280.134 91.7778 279.628 91.9596 279.433 92.2131C277.949 94.1524 276.666 96.3052 276.158 98.6854C275.65 101.065 276.003 103.708 277.518 105.624ZM285.643 85.5526C285.326 85.7151 285.004 85.8859 284.765 86.1486C283.976 87.0185 284.528 88.5329 285.565 89.0939C286.602 89.6549 287.878 89.5097 289.024 89.2233C290.717 88.8001 292.339 88.1012 293.806 87.1632C294.371 86.8018 294.983 86.2258 294.798 85.5857C294.718 85.3083 294.499 85.0929 294.269 84.9146C291.868 83.0465 288.355 84.1609 285.643 85.5526M280.508 83.1743C282.383 79.0965 283.328 74.603 283.252 70.1236C283.247 69.8607 283.235 69.5824 283.088 69.363C282.576 68.5949 281.387 69.3718 280.922 70.169C278.643 74.0825 278.482 79.1264 280.508 83.1743M277.154 92.4942C277.617 92.306 277.422 91.5276 276.95 91.3654C276.477 91.2033 275.968 91.4342 275.523 91.6605C272.775 93.0584 269.91 94.6223 268.349 97.2599C267.82 98.1538 267.518 99.4232 268.286 100.128C268.985 100.77 270.143 100.504 270.925 99.9631C273.643 98.0823 274.086 93.7423 277.154 92.4942ZM301.062 94.6337C300.647 94.2046 299.929 94.6063 299.501 95.0238C298.098 96.3949 296.855 98.036 296.473 99.9504C296.091 101.865 296.762 104.081 298.457 105.079C300.44 102.27 301.453 98.8034 301.291 95.3812C301.278 95.1152 301.248 94.8259 301.062 94.6337ZM278.849 86.8414C279.437 88.6062 280.66 90.1571 282.247 91.1517C282.749 91.4664 283.237 90.6987 283.272 90.1118C283.38 88.2757 282.641 86.4068 281.3 85.1322C280.769 84.627 279.981 84.1962 279.324 84.5279C278.551 84.919 278.577 86.0251 278.849 86.8414Z" fill="#4EAD8B"/>
<path fill-rule="evenodd" clip-rule="evenodd" d="M218.596 161.472C216.033 161.54 213.435 161.626 210.983 162.368C216.904 191.464 217.511 221.326 220.602 250.85C220.661 251.414 220.74 252.021 221.133 252.435C221.578 252.904 222.291 252.985 222.94 253.035C264.988 256.31 307.271 256.646 349.367 254.038C349.9 254.005 350.479 253.953 350.871 253.595C351.345 253.162 351.379 252.444 351.375 251.806C351.305 240.617 349.696 229.499 348.09 218.423C345.601 201.249 343.112 184.074 340.622 166.9C340.527 166.246 340.392 165.523 339.858 165.128C339.46 164.834 338.932 164.796 338.435 164.769C298.522 162.594 258.555 160.419 218.596 161.472Z" fill="white"/>
<ellipse cx="318.372" cy="212.839" rx="1.20113" ry="1.19309" fill="#4F2222"/>
<ellipse cx="309.664" cy="212.839" rx="1.20113" ry="1.19309" fill="#4F2222"/>
<ellipse cx="286.842" cy="225.067" rx="0.900871" ry="0.894436" fill="#4F2222"/>
<ellipse cx="279.335" cy="225.067" rx="0.900871" ry="0.894436" fill="#4F2222"/>
<ellipse cx="256.213" cy="212.839" rx="1.8017" ry="1.78963" fill="#4F2222"/>
<ellipse cx="243.001" cy="213.435" rx="1.8017" ry="1.78963" fill="#4F2222"/>
<path fill-rule="evenodd" clip-rule="evenodd" d="M351.058 256.998C308.012 259.541 264.776 258.903 221.826 255.091C220.648 254.986 219.354 254.825 218.556 253.961C217.82 253.165 217.717 251.998 217.649 250.921C215.789 221.255 212.938 191.649 209.103 162.169C208.859 160.291 211.349 159.399 213.253 159.21C239.465 156.609 265.799 157.856 292.154 159.105C309.004 159.903 325.863 160.702 342.704 160.495C343.811 160.482 344.2 161.926 344.252 163.02C344.918 176.836 347.228 190.513 349.537 204.183C352.229 220.12 354.919 236.047 355 252.171C355.008 253.72 354.863 255.521 353.57 256.392C352.848 256.879 351.929 256.947 351.058 256.998ZM218.596 161.472C216.033 161.54 213.435 161.626 210.983 162.368C215.019 182.201 216.586 202.39 218.154 222.585C218.886 232.017 219.618 241.451 220.602 250.85C220.661 251.414 220.74 252.021 221.132 252.435C221.578 252.904 222.291 252.985 222.94 253.035C264.988 256.31 307.271 256.646 349.367 254.038C349.9 254.005 350.479 253.953 350.871 253.595C351.345 253.162 351.379 252.444 351.375 251.806C351.305 240.617 349.696 229.499 348.09 218.423L340.622 166.9C340.527 166.246 340.392 165.523 339.858 165.128C339.46 164.834 338.932 164.796 338.435 164.769C298.522 162.594 258.555 160.419 218.596 161.472ZM245.201 203.541C246.237 203.493 246.685 204.804 246.81 205.822C247.024 207.572 246.894 209.884 245.187 210.391C243.708 209.026 243.147 206.769 243.818 204.881C244.046 204.24 244.516 203.572 245.201 203.541ZM310.345 210.13C308.512 209.974 309.868 203.775 310.898 204.52C311.928 205.265 312.177 210.286 310.345 210.13ZM318.715 209.292C316.505 209.292 317.258 203.59 318.715 203.59C319.494 203.59 320.128 209.292 318.715 209.292ZM253.668 209.364C254.053 208.601 254.293 207.767 254.372 206.918C254.434 206.253 254.384 205.54 254.002 204.99C253.619 204.441 252.819 204.136 252.239 204.476C251.877 204.688 251.675 205.089 251.547 205.485C251.135 206.76 251.315 208.21 252.027 209.349C252.258 209.719 252.653 210.096 253.077 209.978C253.36 209.899 253.536 209.625 253.668 209.364ZM284.08 221.429C284.235 220.228 284.71 218.603 285.825 219.101C286.279 219.304 286.509 219.808 286.624 220.287C286.869 221.298 286.669 222.553 285.748 223.053C284.827 223.554 283.925 222.63 284.08 221.429ZM247.247 213.612C246.294 214.473 244.864 215.48 243.891 214.641C244.04 213.858 244.484 213.135 245.117 212.644C244.29 211.961 242.864 212.376 242.41 213.342C241.955 214.308 242.424 215.55 243.33 216.127C244.236 216.703 245.456 216.663 246.417 216.182C246.666 216.057 246.925 215.906 247.188 215.753C248.203 215.162 249.278 214.535 250.07 215.258C251.863 216.894 255.13 216.461 256.425 214.416C256.785 213.848 256.998 213.109 256.689 212.512C256.381 211.915 255.386 211.715 255.033 212.288C254.944 212.433 254.907 212.601 254.871 212.768L254.871 212.768L254.871 212.768C254.859 212.824 254.847 212.879 254.833 212.934C254.602 213.837 253.755 214.55 252.818 214.632C251.88 214.714 250.92 214.158 250.533 213.309C250.003 212.145 248.201 212.752 247.247 213.612ZM280.669 219.293C280.855 220.61 280.533 221.99 279.782 223.092C279.641 223.298 279.456 223.512 279.205 223.528C278.942 223.545 278.722 223.336 278.566 223.126C277.684 221.94 277.718 220.17 278.644 219.018C279.075 218.482 279.958 218.102 280.416 218.617C280.578 218.8 280.635 219.052 280.669 219.293ZM230.188 240.364C230.262 243.413 233.942 244.897 236.977 245.431C245.474 246.927 254.155 246.981 262.786 247.031C288.689 247.18 314.62 247.328 340.463 245.583C341.371 245.522 342.39 245.403 342.955 244.697C343.484 244.037 343.419 243.102 343.327 242.265C340.752 218.767 337.334 195.36 333.084 172.101C332.83 170.715 331.036 170.328 329.614 170.251C295.067 168.365 260.445 168.408 225.845 168.451C224.869 168.452 223.836 168.469 223.005 168.976C221.118 170.129 221.4 172.879 221.896 175.018C226.868 196.451 229.651 218.38 230.188 240.364ZM306.306 220.031C302.722 222.672 300.009 226.45 298.667 230.667C294.576 228.791 292.724 223.248 294.878 219.329C297.621 214.338 298.584 207.504 294.585 203.427C292.007 200.798 287.912 200.033 284.286 200.769C277.104 202.226 271.669 209.563 272.427 216.779C272.548 217.935 272.806 219.071 273.065 220.207C273.332 221.385 273.6 222.563 273.715 223.763C273.941 226.121 273.437 228.755 271.573 230.24C268.841 225.564 264.405 221.888 259.274 220.048C262.656 211.992 265.99 202.555 261.721 194.923C260.258 192.306 258.014 190.197 255.614 188.38C252.464 185.995 248.712 183.973 244.756 184.245C238.083 184.703 233.47 191.737 233.336 198.354C233.202 204.972 236.331 211.173 239.382 217.062L232.034 226.128C230.819 207.546 228.125 189.058 223.985 170.893C258.362 171.018 292.737 171.566 327.1 172.539C327.861 172.56 328.697 172.612 329.245 173.135C329.718 173.585 329.851 174.272 329.96 174.913L340.482 236.591C335.856 228.94 329.933 222.059 323.036 216.323C321.324 221.809 319.813 227.355 318.507 232.949L313.288 224.856C317.44 222.394 320.185 218.188 322.551 214.009C325.322 209.113 327.833 203.854 328.04 198.246C328.246 192.638 325.629 186.598 320.488 184.23C323.436 182.265 323.543 177.427 320.893 175.083C318.242 172.739 313.719 173.157 311.277 175.713C308.834 178.269 308.543 182.451 310.272 185.525C304.719 187.897 300.805 193.628 300.65 199.611C300.507 205.145 303.271 210.302 306.06 215.101C306.972 216.669 307.772 218.95 306.306 220.031ZM292.092 224.848L301.259 243.57C302.046 241.964 301.271 240.26 300.491 238.546C300.171 237.844 299.851 237.14 299.637 236.441C298.067 231.306 302.367 226.397 306.304 222.709C306.928 222.125 307.698 221.496 308.539 221.663C309.223 221.799 309.682 222.417 310.073 222.988C312.913 227.131 315.8 231.376 317.112 236.211L317.133 236.286C317.32 236.979 317.521 237.722 318.091 238.16C318.681 238.614 319.789 238.404 319.857 237.668C320.458 231.136 321.899 224.68 324.134 218.505L339.042 237.425C340.085 238.748 341.187 240.405 340.593 241.976C339.891 243.832 337.419 244.151 335.416 244.165L270.516 244.614C259.631 244.69 248.708 244.763 237.908 243.411C236.778 243.27 235.584 243.085 234.711 242.361C233.928 241.712 233.525 240.725 233.229 239.758C231.804 235.095 232.279 229.893 234.525 225.558C235.576 223.53 237.144 221.587 239.346 220.922C241.549 220.256 244.387 221.413 244.807 223.654C245.418 226.918 248.238 229.806 251.585 230.018C254.933 230.23 258.291 227.286 258.029 223.977C257.925 222.659 260.048 222.674 261.188 223.363C267.336 227.083 270.501 235.041 268.564 241.909C268.244 243.043 270.23 243.584 271.02 242.704C271.761 241.88 271.707 240.666 271.657 239.548C271.654 239.472 271.65 239.397 271.647 239.322C271.47 235.035 272.869 230.701 275.524 227.31C276.47 227.94 277.179 228.882 277.88 229.813C278.819 231.059 279.743 232.287 281.203 232.727C283.472 233.41 285.785 231.77 287.278 229.947C287.639 229.506 287.984 229.043 288.33 228.58C289.413 227.129 290.5 225.673 292.092 224.848ZM244.82 193.994C242.809 198.084 239.897 201.738 236.346 204.625C235.676 201.619 235.511 198.504 235.86 195.445C236.127 193.099 236.754 190.676 238.373 188.943C240.464 186.705 243.889 186.057 246.906 186.668C249.923 187.279 252.601 188.972 255.032 190.842C257.079 192.416 259.048 194.189 260.271 196.45C263.028 201.545 261.441 207.775 259.795 213.32C258.785 216.723 257.438 220.523 254.168 221.974C251.334 223.232 247.957 222.223 245.359 220.539C241.052 217.749 238.024 213.098 237.236 208.064C237.107 207.238 237.105 206.24 237.791 205.754C241.044 203.45 243.728 200.366 245.548 196.841C248.619 201.024 253.892 203.526 259.111 203.277C260.23 203.224 261.72 202.436 261.233 201.437C254.954 202.086 248.423 199.125 244.82 193.994ZM311.049 220.143C308.751 216.781 306.77 213.207 305.14 209.483C304.734 208.555 304.445 207.268 305.293 206.705C309.408 203.979 312.525 199.81 313.958 195.119L316.946 198.816C317.912 200.012 318.9 201.228 320.186 202.079C321.472 202.931 323.128 203.376 324.592 202.879C325.134 202.695 325.278 203.607 325.078 204.139C322.806 210.194 319.534 215.88 315.433 220.905C315.073 221.346 314.677 221.802 314.133 221.978C312.905 222.378 311.773 221.203 311.049 220.143ZM315.779 186.22C317.243 186.073 318.768 186.133 320.113 186.723C321.297 187.243 322.274 188.145 323.076 189.151C325.479 192.162 326.425 196.262 325.581 200.007C325.511 200.316 325.42 200.64 325.189 200.859C324.82 201.21 324.232 201.176 323.731 201.071C320.821 200.46 318.436 198.272 316.993 195.698C316.921 195.571 316.851 195.441 316.78 195.311C316.356 194.529 315.922 193.731 315.181 193.251C314.317 192.69 312.872 192.879 312.592 193.863C311.255 198.554 308.175 202.738 304.072 205.435C303.157 204.482 302.736 203.162 302.55 201.86C302.011 198.101 303.27 194.159 305.775 191.282C308.279 188.406 311.962 186.605 315.779 186.22ZM287.499 203.057C290.942 203.487 294.107 206.156 294.653 209.547C294.906 211.115 294.625 212.713 294.344 214.276C294.212 215.007 294.05 215.797 293.488 216.29C292.799 216.896 291.754 216.845 290.851 216.66C288.281 216.134 285.888 214.789 284.115 212.874C284.008 212.758 283.902 212.64 283.796 212.521C283.326 211.995 282.853 211.465 282.23 211.139C281.467 210.741 280.382 210.77 279.885 211.467C278.487 213.426 276.631 215.061 274.505 216.209C274.757 212.785 275.926 209.354 278.23 206.786C280.535 204.219 284.057 202.626 287.499 203.057ZM280.732 213.836C281.171 213.006 282.41 213.763 283.029 214.472C285.467 217.263 289.224 218.874 292.949 218.726C291.017 222.565 288.364 226.047 285.166 228.942C284.4 229.636 283.482 230.337 282.447 230.252C281.543 230.177 280.809 229.518 280.193 228.86C278.281 226.817 276.756 224.422 275.72 221.833C275.31 220.81 275.094 219.401 276.04 218.822C278.015 217.613 279.654 215.872 280.732 213.836ZM315.988 184.331C313.75 184.709 311.261 182.851 311.417 180.61C311.527 179.042 312.767 177.76 314.142 176.974C315.142 176.402 316.291 176.009 317.439 176.127C318.587 176.246 319.716 176.965 320.072 178.052C320.234 178.545 320.231 179.077 320.167 179.591C319.885 181.821 318.226 183.953 315.988 184.331ZM247.812 223.73C250.633 224.87 254.01 224.549 256.56 222.899C256.715 223.58 256.328 224.254 255.957 224.847C254.765 226.749 252.891 228.932 250.724 228.291C249.586 227.955 248.897 226.96 248.201 225.955C247.587 225.067 246.966 224.171 246.026 223.713C246.439 223.229 247.22 223.491 247.812 223.73Z" fill="#00160A"/>
</svg>
