<svg width="235" height="236" viewBox="0 0 235 236" fill="none" xmlns="http://www.w3.org/2000/svg">
<path d="M140.184 44.3192C139.979 43.7177 139.742 43.167 139.665 42.5948C139.505 41.4172 139.377 40.2301 139.332 39.0433C139.24 36.5806 139.211 33.7068 139.158 31.2427C139.15 30.867 139.076 30.4828 139.681 30.4616C140.287 30.4403 143.179 28.595 143.179 29.9959C143.179 32.9039 143.584 37.3548 143.839 40.2122C143.921 41.1355 144.304 41.8878 144.324 42.9598C144.357 44.7668 141.167 44.298 140.184 44.3192Z" fill="white"/>
<path fill-rule="evenodd" clip-rule="evenodd" d="M99.8621 18.0586C99.2276 18.1134 98.5936 18.2085 97.9585 18.2166C94.0199 18.2665 90.0808 18.2929 86.1422 18.3425C85.9062 18.3454 84.8528 18.3485 84.6169 18.3516C83.5837 18.3654 82.5504 18.3809 81.5173 18.3991C81.0341 18.4076 81.3685 18.4222 80.8855 18.4411C79.1678 18.5083 77.451 18.6291 75.7338 18.7169C74.7703 18.7662 73.8057 18.805 72.8445 18.8843C70.3326 19.0916 58.0133 19.7335 55.5015 19.9419C54.9088 19.9911 54.5684 20.1385 54.6175 20.8683C54.7281 22.5124 54.7702 52.7739 54.7835 54.4221C54.7874 54.9059 54.9217 55.0127 55.3708 54.9746C56.8848 54.846 68.2108 54.3379 69.7266 54.2303C71.2968 54.1189 72.8665 53.9958 74.4379 53.9049C76.5826 53.7807 78.729 53.6867 80.8739 53.5673C81.1819 53.5501 81.4844 53.4498 81.7923 53.4104C83.1202 53.2407 84.4472 53.0599 85.7784 52.9207C87.0722 52.7854 88.3695 52.6738 89.6677 52.591C92.4742 52.4118 95.2808 52.2217 98.0902 52.1041C100.612 51.9985 103.138 51.9852 105.662 51.9286C108.022 51.8757 110.382 51.8155 112.742 51.7657C115.54 51.7066 118.338 51.648 121.136 51.602C124.893 51.5403 128.649 51.4995 132.406 51.4322C134.273 51.3988 136.14 51.3295 138.007 51.2707C139.6 51.2205 141.192 51.142 142.786 51.1114C146.323 51.0434 149.861 50.9938 153.398 50.9439C157.593 50.8848 161.788 50.8596 165.982 50.7696C168.923 50.7065 176.358 50.5644 179.297 50.4347C179.441 50.4284 179.692 50.2039 179.695 50.0769C179.723 48.6808 179.712 18.6727 179.713 17.276C179.714 16.6842 179.372 16.35 178.838 16.2621C178.212 16.1588 177.572 16.1118 176.936 16.0917C174.768 16.023 168.104 15.9232 165.936 15.9316C158.071 15.962 150.207 16.0229 142.342 16.09C141.467 16.0975 140.591 16.1047 139.715 16.1126C136.588 16.1409 133.46 16.1783 130.334 16.2694C128.4 16.3257 126.472 16.5928 124.54 16.7404C122.199 16.9191 119.856 17.0738 117.514 17.2361C116.661 17.2953 115.807 17.3451 114.953 17.4014C112.474 17.5651 109.998 17.773 107.516 17.8821C105.022 17.9919 102.523 18.0038 99.8621 18.0586Z" fill="white"/>
<path fill-rule="evenodd" clip-rule="evenodd" d="M50.4762 5.48754C49.3882 5.38202 48.3104 5.17011 47.2285 5.00295C47.1549 4.99158 47.0855 4.95248 47.0142 4.92628C47.0822 4.8977 47.1481 4.86136 47.2188 4.84313C47.2701 4.82987 47.3277 4.84166 47.3824 4.84038C49.7154 4.78578 52.0489 4.74777 54.3811 4.67186C57.185 4.5806 59.988 4.46052 62.7911 4.34572C63.8644 4.30176 64.9366 4.22649 66.0101 4.18576C67.7127 4.12115 69.416 4.07761 71.1188 4.01752C72.4933 3.96901 73.8672 3.90592 75.2416 3.85511C78.264 3.74337 81.2866 3.63878 84.3088 3.52396C85.4643 3.48006 86.6187 3.40311 87.7743 3.36431C89.7234 3.29886 91.6733 3.25728 93.6226 3.19522C95.0519 3.14971 96.4806 3.08343 97.9098 3.03373C99.6126 2.97451 101.316 2.92779 103.019 2.86683C104.338 2.81958 105.657 2.74709 106.977 2.70665C109.091 2.64191 111.205 2.599 113.318 2.53817C114.967 2.49073 116.615 2.4276 118.263 2.37594C120.103 2.31829 121.943 2.26572 123.783 2.21093C125.623 2.15615 127.462 2.1001 129.302 2.04693C131.252 1.9906 133.201 1.93781 135.151 1.882C137.027 1.82828 138.904 1.76998 140.781 1.7186C142.895 1.66072 145.008 1.60859 147.122 1.55346C149.209 1.49903 151.295 1.44285 153.382 1.38949C155.577 1.33334 157.774 1.28015 159.969 1.22468C162.111 1.1706 164.253 1.13445 166.393 1.05425C168.027 0.99303 169.658 0.868987 171.291 0.789603C171.533 0.777851 171.779 0.894118 172.023 0.890739C175.397 0.843935 178.771 0.79175 182.145 0.73008C184.669 0.683926 187.194 0.620139 189.719 0.567993C192.49 0.510757 195.261 0.439022 198.032 0.409108C199.47 0.396221 200.416 1.04506 200.755 2.40181C200.923 3.07779 200.835 3.82127 200.84 4.53437C200.853 6.36734 200.874 8.20066 200.851 10.0333C200.836 11.1749 200.745 12.3154 200.691 13.4565C200.681 13.6737 200.679 13.8913 200.679 14.1088C200.678 16.5012 200.697 18.8938 200.674 21.286C200.634 25.4817 200.572 29.6771 200.513 33.8726C200.463 37.3561 200.404 40.8394 200.349 44.3227C200.294 47.8609 200.24 51.3991 200.185 54.9372C200.131 58.4206 200.083 61.9041 200.018 65.3873C199.979 67.4466 199.897 69.5051 199.861 71.5645C199.836 72.9978 199.872 74.4321 199.853 75.8656C199.808 79.4038 199.755 82.9421 199.689 86.48C199.651 88.512 199.568 90.5431 199.533 92.5751C199.507 94.0357 199.548 95.4976 199.523 96.9583C199.488 98.9629 199.402 100.967 199.368 102.971C199.343 104.514 199.384 106.058 199.358 107.601C199.326 109.441 199.237 111.281 199.204 113.121C199.178 114.609 199.214 116.098 199.196 117.586C199.151 121.207 199.092 124.827 199.034 128.447C198.983 131.547 198.931 134.647 198.868 137.747C198.823 139.998 198.745 142.248 198.711 144.499C198.685 146.234 198.727 147.97 198.7 149.704C198.672 151.49 198.576 153.274 198.547 155.06C198.52 156.767 198.563 158.475 198.535 160.183C198.509 161.804 198.409 163.424 198.383 165.045C198.356 166.78 198.394 168.515 198.374 170.25C198.331 173.843 198.27 177.436 198.212 181.029C198.161 184.184 198.162 187.341 198.032 190.492C197.906 193.523 198.604 196.334 200.111 198.921C201.647 201.557 203.292 204.13 204.923 206.708C206.536 209.257 207.952 211.911 208.702 214.836C209.237 216.925 209.315 219.093 208.714 221.208C208.509 221.93 207.257 226.918 208.322 228.214C209.69 229.877 211.418 230.624 213.548 230.672C215.623 230.72 217.594 230.215 219.583 229.754C222.001 229.194 224.429 228.79 226.864 229.674C228.076 230.113 229.168 230.734 229.885 231.856C229.994 232.026 230.259 232.313 229.68 232.317C228.278 232.324 226.877 232.411 225.475 232.466C222.672 232.575 219.869 232.688 217.065 232.793C215.445 232.854 213.824 232.906 212.203 232.958C210.39 233.016 208.578 233.072 206.765 233.122C204.652 233.181 202.538 233.238 200.424 233.286C197.79 233.346 195.155 233.402 192.521 233.45C189.284 233.51 186.048 233.568 182.811 233.614C178.506 233.676 174.2 233.719 169.895 233.783C166.96 233.826 164.024 233.891 161.089 233.943C160.586 233.952 160.084 233.941 159.581 233.945C153.523 233.999 147.465 234.055 141.407 234.108C140.877 234.113 140.347 234.105 139.817 234.11C133.622 234.163 127.427 234.219 121.232 234.273C120.675 234.278 120.118 234.269 119.561 234.274C113.42 234.328 107.28 234.383 101.14 234.437C100.61 234.442 100.08 234.434 99.5501 234.438C93.355 234.492 87.1599 234.548 80.9648 234.602C80.4624 234.606 79.9599 234.598 79.4575 234.603C73.2625 234.657 67.0674 234.712 60.8723 234.766C60.3425 234.77 59.8126 234.762 59.2828 234.767C53.0877 234.821 46.8926 234.876 40.6975 234.93C40.2225 234.934 39.7474 234.927 39.2724 234.931C32.9677 234.985 26.6631 235.04 20.3585 235.098C20.2578 235.099 20.1576 235.15 20.0572 235.218C20.0572 235.259 19.975 235.259 19.934 235.259C19.7125 235.205 19.5326 235.105 19.3516 235.102C18.1191 235.089 16.8864 235.098 15.6538 235.091C15.5361 235.09 15.4186 235.034 15.301 235.003C15.4006 234.979 15.5008 234.957 15.5997 234.93C18.2357 234.219 20.8533 233.425 23.5147 232.826C25.0232 232.486 26.601 232.433 28.1524 232.311C29.4681 232.208 30.7903 232.174 32.1103 232.146C32.6105 232.135 32.569 232.023 32.4375 231.588C31.8839 229.758 31.2475 227.929 30.9542 226.05C30.7106 224.49 30.8432 222.859 30.9249 221.265C30.9835 220.122 31.1501 218.969 31.4192 217.857C31.7289 216.577 32.1373 215.311 32.6209 214.086C33.8969 210.852 36.1663 208.326 38.5121 205.831C39.9141 204.341 41.1861 202.703 42.3344 201.008C43.0288 199.983 43.4023 198.732 43.3971 197.43C43.389 195.375 43.4149 193.321 43.3902 191.267C43.3536 188.221 43.2895 185.176 43.2293 182.131C43.181 179.688 43.1057 177.246 43.0696 174.803C43.0031 170.307 42.9818 165.809 42.8917 161.313C42.8438 158.921 42.637 156.532 42.6022 154.14C42.5726 152.108 42.7521 150.073 42.7219 148.04C42.6791 145.152 42.5231 142.265 42.4328 139.377C42.4225 139.047 42.5689 138.714 42.5665 138.383C42.5208 132.079 42.4382 125.774 42.4154 119.469C42.3878 111.845 42.4298 104.22 42.4023 96.5962C42.3798 90.3735 42.2546 84.1509 42.2565 77.9284C42.2586 71.1031 42.3646 64.278 42.4047 57.4527C42.4275 53.5812 42.3881 49.7093 42.4155 45.8379C42.4368 42.8473 42.5222 39.8571 42.5709 36.8666C42.5857 35.9536 42.5638 35.0399 42.5748 34.1267C42.6259 29.9037 42.6915 25.6808 42.7338 21.4576C42.7551 19.3393 42.7162 17.2203 42.7438 15.1021C42.7695 13.1248 42.8476 11.1482 42.9012 9.17129C42.9077 8.93307 42.9049 8.6946 42.9065 8.45624C42.9597 8.72033 43.0306 8.98225 43.0634 9.24887C43.288 11.0748 43.5108 12.9011 43.7203 14.7288C43.7959 15.3886 43.8408 16.0521 43.8865 16.7149C44.0006 18.3674 44.1058 20.0206 44.217 21.6734C44.3801 24.0981 54.2858 26.3232 54.3076 26.0583C54.3953 26.3122 54.4889 26.5643 54.5698 26.8203C55.3035 29.1407 55.7632 31.5109 56.072 33.929C56.5104 37.3609 56.5462 40.799 56.5458 44.246C56.5415 89.0587 56.5453 133.871 56.5221 178.684C56.5218 179.408 56.7444 179.696 57.3988 179.885C59.547 180.506 61.756 180.731 63.947 180.499C68.0906 180.061 75.52 178.604 78.7823 175.894C81.3884 173.729 83.2437 171.081 84.3463 167.93C84.7775 166.698 84.8759 165.336 85.0218 164.022C85.1551 162.821 85.2744 161.593 85.1745 160.396C85.0051 158.364 84.6793 156.343 84.3798 154.323C84.1362 152.68 83.788 151.051 83.5704 149.404C83.2531 147.003 82.9441 144.598 82.7583 142.184C82.6024 140.161 82.4542 138.109 82.6096 136.094C82.9269 131.976 83.5699 127.897 84.7062 123.909C85.9208 119.647 87.6137 115.579 89.7196 111.688C91.2861 108.794 93.0809 106.035 95.2387 103.541C96.9112 101.609 98.6494 99.7307 100.412 97.88C101.163 97.0916 102.068 96.4518 102.876 95.715C105.947 92.9143 108.196 89.4617 110.517 86.0638C112.328 83.4119 110.374 80.6866 112.363 78.1731C114.983 74.8631 118.197 72.2394 122.374 71.0852C123.91 70.6608 125.49 70.3888 127.058 70.0929C130.389 69.4647 133.765 69.503 137.124 69.6215C140.615 69.7447 143.932 70.6245 146.912 72.5509C149.368 74.1383 151.151 76.3645 152.67 78.7912C154.445 81.6278 156.123 84.5277 157.773 87.44C159.894 91.1843 161.954 94.9641 164.025 98.7368C165.139 100.766 166.236 102.804 167.315 104.852C169.552 109.101 178.089 125.836 180.135 129.946C180.212 130.099 180.306 130.244 180.392 130.393C180.47 130.207 180.607 130.023 180.618 129.833C180.742 127.715 180.848 125.596 180.956 123.478C181.067 121.277 181.177 119.076 181.284 116.876C181.396 114.565 181.507 112.255 181.612 109.945C181.726 107.443 181.837 104.941 181.941 102.438C182.056 99.6901 182.162 96.9415 182.27 94.1928C182.328 92.7365 182.383 91.28 182.435 89.8235C182.492 88.2028 182.544 86.5819 182.6 84.9611C182.654 83.3676 182.713 81.7744 182.763 80.1808C182.822 78.2862 182.874 76.3914 182.928 74.4967C182.984 72.5472 183.042 70.5977 183.092 68.6481C183.151 66.3426 183.205 64.037 183.256 61.7313C183.314 59.0971 183.373 56.4629 183.42 53.8284C183.481 50.3725 183.523 46.9162 183.589 43.4604C183.628 41.3736 183.725 39.2876 183.743 37.2009C183.77 34.1238 183.73 31.0462 183.757 27.9692C183.774 25.992 183.863 24.0154 183.909 22.0383C183.914 21.8397 183.843 21.6394 183.807 21.4399C183.639 21.562 183.445 21.6606 183.306 21.8098C182.237 22.9528 180.886 23.3607 179.365 23.4194C177.027 23.5095 174.819 22.8197 172.576 22.3422C170.428 21.8847 168.268 21.3728 166.066 21.6358C164.757 21.7921 163.459 22.1838 162.203 22.6081C160.178 23.2924 158.25 23.0849 156.331 22.2637C154.47 21.467 152.626 20.6215 150.729 19.9191C149.022 19.2868 147.211 19.293 145.555 20.015C144.747 20.3675 143.936 21.1235 143.531 21.9062C142.582 23.7371 141.15 24.5888 139.184 24.9123C136.59 25.339 134.303 24.4669 131.996 23.5201C130.123 22.7512 128.269 21.8853 126.329 21.3437C123.738 20.6207 121.358 21.4051 119.21 22.9502C117.861 23.9216 116.588 25.0391 115.135 25.8189C113.186 26.8647 110.345 27.0151 108.807 25.2893C108.538 24.9874 108.265 24.6254 108.167 24.2462C107.779 22.7452 106.807 22.4219 105.457 22.266C103.514 22.0415 102.086 23.087 100.676 24.2154C99.3711 25.2599 98.1544 26.4219 96.3806 26.7486C94.9725 27.0079 93.649 26.8235 92.4005 26.2868C90.2835 25.3769 88.2065 24.3683 86.1462 23.3342C84.3034 22.4093 82.3342 21.9489 80.3566 22.3264C79.0826 22.5696 77.883 23.362 76.7312 24.0451C75.3341 24.8737 74.0856 25.9639 72.6598 26.7306C70.2066 28.0497 68.0084 28.0794 64.8663 27.5645C61.7243 27.0496 54.1443 22.1388 53.765 21.6358C53.7122 21.5658 52.5412 5.68781 50.4762 5.48754Z" fill="white"/>
<path fill-rule="evenodd" clip-rule="evenodd" d="M98.0748 172.376C97.3985 167.427 97.2126 162.886 97.517 158.753C97.8214 154.619 98.7595 148.537 100.331 140.507C97.3254 148.428 95.5389 154.51 94.9718 158.753C94.4048 162.995 94.7337 168.042 95.9586 173.895L98.0748 172.376Z" fill="#4EAD8B"/>
<path fill-rule="evenodd" clip-rule="evenodd" d="M142.283 112.78C145.262 112.495 147.145 113.089 147.712 114.776C148.671 117.627 141.69 121.439 139.227 121.21C138.364 120.418 146.938 118.278 146.163 115.296C145.965 114.538 144.746 114.187 142.438 114.407C141.989 114.45 141.59 114.121 141.547 113.671C141.504 113.222 141.833 112.823 142.283 112.78Z" fill="#00160A"/>
<path fill-rule="evenodd" clip-rule="evenodd" d="M156.977 189.003C156.758 188.483 157.068 185.255 158.781 182.164C161.616 177.044 173.949 175.347 178.567 170.687C184.425 164.777 181.948 157.839 181.63 157.192C181.554 157.037 181.524 156.858 181.473 156.691C181.609 156.779 181.768 156.845 181.876 156.959C183.787 158.963 185.051 161.338 185.635 164.022C186.261 166.899 186.463 169.81 185.048 172.543C184.738 173.143 184.105 173.625 183.528 174.027C181.784 175.237 173.238 178.587 170.847 179.066C168.541 179.529 166.541 180.595 164.419 181.433C163.115 181.947 162.406 183.143 161.384 183.974C160.306 184.851 159.996 185.924 160.092 187.22C160.12 187.601 160.081 187.987 160.099 188.369C160.213 190.83 157.649 190.602 156.977 189.003Z" fill="#4EAD8B"/>
<path fill-rule="evenodd" clip-rule="evenodd" d="M107.774 120.577C108.948 120.577 109.385 119.663 108.763 118.534C108.153 117.405 106.961 116.49 106.087 116.49C105.212 116.49 104.745 117.405 105.054 118.534C105.376 119.663 106.6 120.577 107.774 120.577Z" fill="#4F2222"/>
<path fill-rule="evenodd" clip-rule="evenodd" d="M130.663 125.891C131.837 125.891 132.274 124.976 131.652 123.847C131.042 122.719 129.85 121.804 128.976 121.804C128.101 121.804 127.634 122.719 127.943 123.847C128.265 124.976 129.489 125.891 130.663 125.891Z" fill="#4F2222"/>
<path fill-rule="evenodd" clip-rule="evenodd" d="M199.667 0.000182804C201.105 -0.0125168 202.051 0.636329 202.389 1.99307C202.558 2.66905 202.47 3.41253 202.475 4.12564C202.488 5.9586 202.509 7.79192 202.485 9.62457C202.471 10.7661 202.38 11.9067 202.326 13.0478C202.316 13.2649 202.314 13.4826 202.314 13.7C202.313 16.0924 202.332 18.485 202.309 20.8772C202.269 25.0729 202.207 29.2684 202.147 33.4639C202.098 36.9473 202.039 40.4306 201.984 43.914C201.929 47.4521 201.875 50.9903 201.82 54.5285C201.765 58.0118 201.718 61.4953 201.653 64.9785C201.614 67.0378 201.532 69.0964 201.496 71.1557C201.471 72.589 201.507 74.0233 201.488 75.4568C201.443 78.9951 201.39 82.5333 201.324 86.0713C201.286 88.1032 201.203 90.1343 201.167 92.1663C201.142 93.627 201.183 95.0889 201.158 96.5495C201.123 98.5541 201.037 100.558 201.003 102.562C200.977 104.105 201.019 105.649 200.993 107.192C200.961 109.032 200.872 110.872 200.839 112.712C200.813 114.2 200.849 115.689 200.831 117.177C200.785 120.798 200.727 124.418 200.669 128.038C200.618 131.138 200.566 134.238 200.503 137.338C200.458 139.589 200.38 141.839 200.346 144.091C200.32 145.825 200.362 147.561 200.335 149.296C200.307 151.081 200.211 152.866 200.182 154.651C200.155 156.358 200.198 158.067 200.17 159.774C200.144 161.395 200.044 163.015 200.018 164.636C199.991 166.371 200.029 168.106 200.008 169.841C199.966 173.434 199.905 177.027 199.847 180.62C199.796 183.775 199.797 186.932 199.666 190.083C199.541 193.114 200.239 195.925 201.746 198.513C203.281 201.148 204.927 203.721 206.558 206.3C208.171 208.849 209.587 211.502 210.336 214.427C210.872 216.516 210.95 218.684 210.349 220.799C210.144 221.522 208.892 226.509 209.957 227.805C211.325 229.468 213.053 230.215 215.183 230.263C217.258 230.311 219.229 229.806 221.217 229.345C223.636 228.785 226.064 228.381 228.499 229.265C229.711 229.704 230.803 230.325 231.519 231.447C231.628 231.618 231.893 231.905 231.315 231.908C229.913 231.915 228.512 232.002 227.11 232.057C224.307 232.166 221.503 232.279 218.7 232.384C217.079 232.445 215.459 232.498 213.838 232.549C212.025 232.607 210.213 232.663 208.4 232.713C206.286 232.772 204.173 232.829 202.059 232.877C199.425 232.937 196.79 232.993 194.156 233.042C190.919 233.102 187.682 233.159 184.445 233.206C180.14 233.267 175.835 233.31 171.53 233.374C168.594 233.417 165.659 233.482 162.724 233.535C162.221 233.544 161.719 233.532 161.216 233.537C155.158 233.59 149.1 233.646 143.042 233.7C142.512 233.704 141.982 233.696 141.452 233.701C135.257 233.755 129.062 233.81 122.867 233.864L121.195 233.865C115.055 233.919 108.915 233.975 102.774 234.028C102.245 234.033 101.715 234.025 101.185 234.03C94.9899 234.083 88.7948 234.139 82.5997 234.193C82.0973 234.197 81.5948 234.19 81.0924 234.194C74.8973 234.248 68.7023 234.303 62.5072 234.357C61.9774 234.362 61.4475 234.354 60.9177 234.358C54.7226 234.412 48.5275 234.468 42.3324 234.521C41.8574 234.526 41.3823 234.519 40.9073 234.523C34.6026 234.577 28.298 234.631 21.9933 234.69C21.8927 234.691 21.7925 234.741 21.6921 234.81C21.6921 234.851 21.6099 234.851 21.5689 234.851C21.3474 234.796 21.1675 234.696 20.9865 234.694C19.754 234.68 18.5213 234.689 17.2887 234.682C17.171 234.682 17.0535 234.625 16.9359 234.594C17.0355 234.57 17.1357 234.548 17.2346 234.522C19.8706 233.81 22.4882 233.016 25.1496 232.417C26.6581 232.078 28.2359 232.024 29.7873 231.902C31.103 231.799 32.4251 231.765 33.7452 231.737C34.2454 231.726 34.2039 231.615 34.0724 231.18C33.5188 229.349 32.8824 227.52 32.5891 225.641C32.3455 224.081 32.4781 222.45 32.5598 220.856C32.6184 219.713 32.785 218.56 33.0541 217.449C33.3638 216.169 33.7722 214.902 34.2558 213.677C35.5318 210.443 37.8012 207.917 40.147 205.423C41.549 203.932 42.821 202.294 43.9693 200.599C44.6637 199.574 45.0372 198.324 45.032 197.021C45.0239 194.967 45.0498 192.912 45.0251 190.858C44.9885 187.812 44.9244 184.767 44.8642 181.722C44.8159 179.28 44.7406 176.837 44.7045 174.395C44.638 169.898 44.6167 165.4 44.5266 160.904C44.4787 158.512 44.2719 156.123 44.2371 153.731C44.2075 151.699 44.387 149.664 44.3568 147.632C44.314 144.743 44.158 141.856 44.0677 138.968C44.0574 138.639 44.2038 138.305 44.2014 137.975C44.1557 131.67 44.0731 125.365 44.0503 119.06C44.0227 111.436 44.0647 103.812 44.0372 96.1874C44.0147 89.9647 43.8895 83.7422 43.8914 77.5196C43.8935 70.6944 43.9995 63.8692 44.0396 57.0439C44.0624 53.1725 44.023 49.3006 44.0504 45.4291C44.0717 42.4385 44.1571 39.4484 44.2058 36.4579C44.2206 35.5448 44.1987 34.6312 44.2097 33.718C44.2608 29.4949 44.3264 25.272 44.3687 21.0489C44.39 18.9306 44.3511 16.8115 44.3787 14.6933C44.4044 12.7161 44.4825 10.7395 44.5361 8.76256C44.5426 8.52433 44.5398 8.28586 44.5414 8.0475C44.5946 8.3116 44.6655 8.57352 44.6983 8.84013C44.9229 10.6661 45.1457 12.4923 45.3552 14.3201C45.4308 14.9798 45.4757 15.6434 45.5214 16.3061C45.6355 17.9587 45.7407 19.6119 45.8519 21.2647C46.015 23.6893 46.1912 26.1132 46.3413 28.5386C46.4672 30.574 46.5796 32.6105 46.6695 34.6477C46.7943 37.4778 46.8984 40.3088 46.9999 43.1398C47.0659 44.9794 47.1475 46.8194 47.1604 48.6596C47.228 58.3061 47.2782 67.9527 47.329 77.5993C47.3406 79.7999 47.3498 82.0009 47.3265 84.2014C47.2874 87.8767 47.2223 91.5518 47.1661 95.227C47.1128 98.7104 47.0656 102.194 46.9983 105.677C46.9653 107.381 46.8858 109.083 46.8409 110.786C46.8219 111.507 46.8419 112.229 46.8371 112.951C46.7833 121.009 46.7032 129.067 46.6843 137.125C46.6753 140.937 46.774 144.749 46.8416 148.561C46.8737 150.374 46.9432 152.186 47.0033 153.999C47.0517 155.455 47.1027 156.912 47.1684 158.368C47.2702 160.624 47.3764 162.879 47.498 165.134C47.5931 166.898 47.7039 168.66 47.8264 170.422C47.9799 172.628 48.1398 174.834 48.3233 177.038C48.3929 177.872 48.4994 178.708 48.6659 179.527C48.7223 179.805 48.9622 180.12 49.2082 180.273C50.7615 181.239 52.3726 180.72 53.6607 179.758C55.1536 178.643 55.7995 177.005 55.8642 175.183C55.9668 172.294 56.0329 169.403 56.0341 166.513C56.046 138.235 56.061 109.957 56.0343 81.6798C56.0168 63.2679 55.9315 44.856 55.8798 26.4442C55.879 26.1794 55.9207 25.9144 55.9425 25.6496C56.0302 25.9035 56.1238 26.1555 56.2047 26.4116C56.9384 28.732 57.3981 31.1022 57.7069 33.5202C58.1453 36.9522 58.1811 40.3902 58.1807 43.8372L58.1759 111.056C58.1735 133.463 58.1686 155.869 58.157 178.275C58.1567 178.999 58.3793 179.287 59.0337 179.476C61.1819 180.097 63.3909 180.322 65.5819 180.09C69.7255 179.652 73.4763 178.195 76.7386 175.485C79.3447 173.321 81.2 170.673 82.3027 167.521C82.7338 166.289 82.8322 164.927 82.9781 163.613C83.1114 162.412 83.2307 161.184 83.1309 159.987C82.9614 157.955 82.6356 155.934 82.3362 153.915C82.0925 152.271 81.7443 150.642 81.5267 148.996C81.2094 146.595 80.9004 144.189 80.7146 141.776C80.5587 139.752 80.4105 137.701 80.5659 135.685C80.8833 131.567 81.5262 127.488 82.6625 123.5C83.8771 119.238 85.57 115.17 87.6759 111.28C89.2424 108.386 91.0372 105.626 93.195 103.133C94.8675 101.2 96.6057 99.322 98.3688 97.4712C99.1198 96.6829 100.024 96.043 100.832 95.3063C103.903 92.5056 106.152 89.053 108.473 85.6551C110.285 83.0031 112.009 80.2779 113.998 77.7644C116.618 74.4544 119.832 71.8306 124.009 70.6765C125.544 70.252 127.125 69.9801 128.693 69.6842C132.024 69.056 135.4 69.0942 138.759 69.2128C142.25 69.3359 145.567 70.2157 148.547 72.1422C151.003 73.7296 152.786 75.9557 154.305 78.3825C156.08 81.2191 157.758 84.119 159.408 87.0312C161.529 90.7756 163.589 94.5554 165.66 98.3281C166.774 100.357 167.871 102.395 168.95 104.443C170.297 107.002 171.07 108 172.158 110.786C172.876 112.627 174.148 116.075 175.017 117.776C176.751 121.17 177.052 123.408 178.318 126.558C178.577 127.203 179.942 127.992 180.254 128.71C180.837 130.048 182.022 131.986 182.108 132.135C182.186 131.948 182.242 129.615 182.253 129.424C182.377 127.306 182.483 125.188 182.59 123.069C182.702 120.868 182.812 118.668 182.919 116.467C183.031 114.157 183.142 111.846 183.247 109.536C183.361 107.034 183.472 104.532 183.576 102.03C183.69 99.2814 183.797 96.5327 183.905 93.7841C183.963 92.3277 184.018 90.8713 184.069 89.4147C184.127 87.794 184.179 86.1731 184.235 84.5523C184.289 82.9589 184.348 81.3656 184.398 79.772C184.457 77.8775 184.509 75.9827 184.563 74.0879C184.619 72.1384 184.677 70.189 184.727 68.2394C184.786 65.9339 184.84 63.6283 184.891 61.3226C184.949 58.6884 185.008 56.0541 185.055 53.4197C185.116 49.9637 185.158 46.5075 185.223 43.0516C185.263 40.9649 185.36 38.8789 185.378 36.7921C185.405 33.7151 185.365 30.6375 185.392 27.5605C185.409 25.5832 185.498 23.6067 185.544 21.6296C185.548 21.431 185.478 21.2307 185.442 21.0312C185.274 21.1532 185.08 21.2519 184.941 21.4011C183.872 22.5441 182.521 22.952 181 23.0106C178.662 23.1008 176.454 22.411 174.211 21.9334C172.062 21.476 169.903 20.9641 167.701 21.2271C166.392 21.3834 165.094 21.775 163.838 22.1994C161.813 22.8837 159.885 22.6761 157.966 21.8549C156.105 21.0583 154.261 20.2128 152.364 19.5103C150.657 18.8781 148.846 18.8843 147.19 19.6063C146.382 19.9587 145.571 20.7147 145.166 21.4975C144.217 23.3284 142.785 24.1801 140.819 24.5035C138.225 24.9303 135.937 24.0582 133.631 23.1113C131.758 22.3425 129.904 21.4766 127.964 20.935C125.373 20.212 122.992 20.9964 120.845 22.5415C119.496 23.5129 118.223 24.6304 116.77 25.4102C114.821 26.456 111.98 26.6064 110.442 24.8806C110.173 24.5786 109.9 24.2166 109.802 23.8375C109.414 22.3364 108.442 22.0132 107.092 21.8573C105.148 21.6328 103.721 22.6782 102.311 23.8066C101.006 24.8512 99.7893 26.0132 98.0155 26.3398C96.6074 26.5991 95.2839 26.4147 94.0354 25.8781C91.9184 24.9682 89.8414 23.9595 87.7811 22.9255C85.9384 22.0006 83.9691 21.5402 81.9915 21.9177C80.7175 22.1609 79.5179 22.9533 78.3661 23.6364C76.969 24.4649 75.7206 25.5551 74.2947 26.3218C71.8415 27.6409 69.2073 27.6962 66.5012 27.1557C63.694 26.5951 61.3823 25.2253 59.4373 23.1816C59.005 22.7274 58.6522 22.1968 58.2728 21.6938C58.22 21.6238 58.2251 21.51 58.2034 21.4165C58.2809 21.4562 58.3704 21.4821 58.4341 21.5377C60.4828 23.3267 62.8252 24.4341 65.5409 24.8258C69.4649 25.3917 73.1001 24.7352 76.3697 22.4537C77.2838 21.8159 78.0328 20.9455 78.9258 20.2724C80.3333 19.2116 81.9974 19.2618 83.6249 19.4587C86.6785 19.8281 89.3292 21.417 92.1861 22.3838C94.6579 23.2203 97.1955 23.8602 99.8101 22.8434C100.73 22.4858 101.5 21.9835 102.069 21.1415C103.068 19.6643 105.232 19.133 106.876 19.3103C109.527 19.5962 111.824 20.9143 114.34 21.5567C116.108 22.008 117.88 22.3131 119.686 21.6954C120.661 21.3619 121.342 20.6947 121.866 19.8649C122.715 18.5218 124.004 18.0435 125.485 17.9106C127.583 17.7223 129.471 18.3848 131.321 19.2954C133.098 20.1696 134.897 21.0647 136.878 21.3338C138.482 21.5518 140.07 21.2329 141.557 20.5618C143.888 19.5096 146.189 18.3871 148.54 17.383C150.799 16.4186 152.996 16.6084 155.11 17.9353C156.272 18.6648 157.475 19.3564 158.731 19.9001C160.235 20.5512 161.839 20.3439 163.368 19.9352C165.431 19.3841 167.433 18.5818 169.515 18.1378C170.961 17.8293 172.461 17.9471 173.639 19.2024C174.738 20.3737 176.19 20.6637 177.693 20.236C180.037 19.5688 182.345 18.7759 184.673 18.0489C185.82 17.6905 186.969 17.3437 188.192 17.7405C189.84 18.275 190.024 18.5451 189.823 20.2579C189.709 21.2255 189.573 22.1918 189.501 23.1627C189.414 24.3428 189.396 25.5279 189.327 26.7096C189.17 29.3811 189.003 32.0521 188.835 34.7229C188.731 36.3762 188.605 38.0281 188.51 39.6819C188.389 41.7997 188.293 43.919 188.178 46.0373C188.074 47.937 187.948 49.8356 187.853 51.7358C187.732 54.155 187.633 56.5754 187.521 58.9952C187.47 60.0957 187.405 61.1957 187.358 62.2964C187.245 64.9626 187.139 67.6291 187.028 70.2955C186.975 71.5876 186.913 72.8795 186.865 74.1718C186.752 77.1942 186.645 80.2168 186.535 83.2392C186.48 84.7778 186.423 86.3164 186.372 87.8551C186.314 89.5854 186.261 91.3159 186.207 93.0463C186.151 94.8314 186.095 96.6165 186.043 98.4017C185.986 100.324 185.931 102.246 185.878 104.168C185.822 106.2 185.767 108.231 185.714 110.263C185.658 112.404 185.602 114.546 185.55 116.687C185.493 119.02 185.439 121.353 185.385 123.686C185.33 126.046 185.274 128.407 185.221 130.767C185.165 133.237 185.11 135.707 185.056 138.177L184.949 143.281C184.931 144.132 184.911 144.982 184.888 145.833C184.853 147.208 184.783 148.582 184.726 149.956C184.722 150.031 184.692 150.106 184.675 150.181C184.638 150.106 184.584 150.036 184.566 149.957C183.96 147.386 183.29 144.828 182.779 142.238C182.435 140.491 182.291 138.701 182.108 136.926C181.999 135.876 181.99 134.817 181.931 133.762C181.926 133.661 181.888 133.561 181.866 133.461C181.834 133.548 181.778 133.633 181.773 133.721C181.579 137.024 180.998 140.247 179.836 143.356C179.499 144.259 179.214 145.18 178.9 146.091C178.859 146.21 178.786 146.317 178.728 146.43C178.712 146.282 178.65 146.119 178.689 145.987C178.879 145.356 179.057 144.716 179.311 144.109C180.475 141.323 180.411 138.386 180.254 135.478C180.137 133.301 179.592 131.166 178.697 129.151C178.643 129.029 178.353 128.461 178.35 128.31C178.35 128.285 178.243 128.262 178.185 128.238C178.229 128.441 178.273 128.643 178.318 128.845C178.427 130.936 178.614 133.844 178.627 135.936C178.642 138.378 178.233 139.966 177.571 142.316C177.22 143.56 176.768 144.776 176.359 146.004C176.331 146.088 176.283 146.166 176.245 146.247C176.223 146.146 176.155 146.025 176.188 145.948C177.271 143.44 177.152 140.753 177.311 138.12C177.461 135.656 177.593 133.174 177.46 130.714C177.274 127.28 176.629 123.907 175.193 120.737C175.161 120.667 175.074 120.622 175.043 120.552C174.937 120.319 174.846 120.079 174.749 119.841C174.686 120.138 174.539 120.444 174.574 120.729C174.691 121.682 174.94 122.622 175.017 123.577C175.173 125.527 175.298 127.483 175.347 129.439C175.402 131.638 175.466 133.846 175.329 136.038C175.195 138.18 174.815 140.306 174.536 142.438C174.38 143.631 174.211 144.822 174.041 146.013C174.03 146.091 173.97 146.162 173.932 146.236C173.915 146.161 173.877 146.084 173.884 146.011C173.932 145.458 173.991 144.906 174.044 144.353C174.101 143.774 174.187 143.195 174.203 142.614C174.272 140.254 174.36 137.893 174.361 135.533C174.362 133.282 174.289 131.03 174.201 128.781C174.13 126.962 174.018 125.144 173.874 123.329C173.682 120.925 173.444 118.525 173.221 116.123C173.18 115.679 173.118 115.237 173.054 114.795C173.042 114.708 172.973 114.629 172.93 114.546C172.863 114.633 172.745 114.715 172.738 114.806C172.67 115.659 172.609 116.513 172.568 117.367C172.503 118.741 172.473 120.116 172.398 121.49C172.245 124.298 172.08 127.106 171.905 129.914C171.814 131.376 171.673 132.835 171.583 134.297C171.407 137.159 171.258 140.023 171.083 142.885C170.991 144.402 170.855 145.916 170.76 147.433C170.587 150.241 170.442 153.05 170.257 155.857C170.193 156.828 170.437 159.995 170.402 160.431C170.192 163.006 169.464 165.472 168.585 167.887C168.414 168.357 168.063 168.842 167.66 169.132C166.525 169.951 165.774 169.821 165.175 168.395C165.029 168.045 164.951 167.666 164.84 167.301C164.826 167.253 164.801 167.207 164.781 167.161C164.746 167.241 164.701 167.318 164.678 167.402C164.457 168.242 164.326 169.119 163.995 169.913C163.663 170.707 163.209 171.48 162.67 172.15C162.017 172.963 160.829 173.005 160.072 172.284C159.641 171.874 159.645 172.397 159.611 172.476C159.272 173.266 159.042 174.11 158.648 174.869C158.035 176.052 156.975 176.583 155.656 176.492C155.065 176.452 154.954 176.634 154.964 177.195C154.99 178.658 154.409 179.851 153.099 180.579C152.779 180.757 152.331 180.794 151.954 180.761C151.417 180.714 151.312 180.911 151.355 181.391C151.398 181.88 151.371 182.376 151.363 182.869C151.344 184.037 150.541 184.855 149.389 184.888C148.513 184.914 148.348 185.158 148.695 185.917C149.043 186.679 148.496 187.413 147.468 187.513C146.421 187.615 145.549 187.379 144.72 186.585C141.313 183.322 138.702 179.508 136.755 175.244C135.492 172.479 134.507 169.598 134.118 166.562C133.844 164.413 133.604 162.256 133.468 160.096C133.313 157.641 133.7 155.224 134.2 152.821C135.146 148.267 136.917 143.989 138.495 139.644C138.86 138.64 139.119 137.593 139.358 136.551C139.773 134.745 140.168 132.932 140.499 131.11C140.614 130.473 140.54 129.797 140.495 129.142C140.488 129.033 140.172 128.838 140.028 128.861C138.777 129.065 137.527 129.281 136.289 129.547C134.168 130.003 132.139 130.709 130.177 131.658C129.451 132.009 128.54 131.971 127.719 132.135C126.405 132.397 125.098 132.689 123.784 132.946C123.511 132.999 123.219 132.947 122.935 132.955C122.45 132.968 121.651 132.828 121.54 133.041C121.244 133.611 121.155 134.333 121.139 134.999C121.053 138.591 120.969 142.184 120.978 145.777C120.983 147.65 121.173 149.522 121.29 151.393C121.391 152.992 121.465 154.594 121.629 156.186C121.794 157.799 122.069 159.401 122.27 161.011C122.404 162.085 122.474 163.168 122.608 164.242C122.809 165.852 123.049 167.457 123.258 169.066C123.434 170.42 123.588 171.778 123.754 173.134C123.862 174.02 123.97 174.906 124.088 175.791C124.098 175.87 124.172 175.987 124.24 176.006C125.472 176.367 125.746 177.45 126.043 178.469C126.508 180.062 127.018 181.657 127.286 183.288C127.492 184.538 127.488 185.86 127.332 187.12C127.173 188.402 126.738 189.654 126.377 190.906C125.833 192.794 124.756 194.386 123.525 195.887C123.444 195.985 123.406 196.117 123.348 196.234C123.468 196.232 123.587 196.229 123.707 196.229C123.926 196.228 124.145 196.228 124.364 196.228H134.307C136.837 196.228 139.366 196.248 141.895 196.224C146.036 196.185 150.177 196.118 154.318 196.065C154.738 196.059 155.158 196.07 155.579 196.063C159.171 196.01 162.764 195.954 166.357 195.9C166.723 195.895 167.089 195.909 167.454 195.898C170.483 195.808 173.512 195.71 176.542 195.627C176.84 195.619 177.14 195.734 177.439 195.73C181.059 195.684 184.68 195.632 188.3 195.569C190.77 195.526 193.24 195.457 195.71 195.41C196.396 195.397 196.762 195.248 196.753 194.387C196.727 192.028 196.839 189.667 196.887 187.307C196.902 186.558 196.922 185.807 196.882 185.06C196.804 183.586 195.703 183.003 194.434 182.938C191.913 182.809 189.386 182.774 186.861 182.759C182.469 182.733 178.077 182.744 173.685 182.759C172.886 182.762 172.087 182.863 171.288 182.914C171.184 182.92 171.077 182.895 170.972 182.884C171.036 182.787 171.094 182.687 171.163 182.594C171.845 181.676 172.87 181.401 173.904 181.293C175.242 181.154 176.602 181.225 177.941 181.092C179.419 180.945 180.884 180.668 182.355 180.454C182.516 180.431 182.683 180.454 182.847 180.45C187.157 180.341 191.467 180.236 195.776 180.107C195.971 180.101 196.27 179.92 196.333 179.75C196.845 178.379 197.132 177.012 196.996 175.487C196.852 173.863 197.127 172.201 197.217 170.556C197.226 170.392 197.218 170.227 197.218 170.063C197.218 168.638 197.205 167.214 197.22 165.79C197.269 161.265 197.321 156.741 197.385 152.217C197.428 149.117 197.493 146.017 197.547 142.917C197.602 139.708 197.656 136.498 197.711 133.289C197.765 130.152 197.821 127.015 197.875 123.879L198.04 114.415C198.095 111.251 198.15 108.087 198.204 104.923C198.259 101.731 198.313 98.5396 198.369 95.3481C198.423 92.2482 198.479 89.1484 198.533 86.0485C198.588 82.857 198.642 79.6655 198.697 76.4741C198.752 73.292 198.806 70.1099 198.862 66.9279C198.916 63.828 198.972 60.7281 199.026 57.6282C199.081 54.4187 199.135 51.2093 199.19 47.9998L199.355 38.618C199.41 35.4359 199.464 32.2538 199.519 29.0718C199.573 25.9993 199.63 22.9268 199.683 19.8542C199.74 16.5627 199.787 13.2709 199.85 9.9794C199.894 7.63687 199.946 5.29433 200.021 2.95263C200.037 2.46067 199.957 2.26529 199.388 2.28022C196.125 2.3659 192.86 2.39766 189.596 2.46219C187.527 2.50309 185.459 2.57104 183.39 2.62344C181.14 2.68046 178.889 2.7317 176.638 2.78883C174.579 2.8411 172.52 2.89957 170.461 2.95219C168.238 3.00901 166.014 3.0609 163.791 3.11738C161.704 3.17038 159.618 3.22824 157.532 3.28089C155.281 3.33769 153.03 3.38612 150.779 3.44725C149.049 3.49425 147.319 3.56505 145.588 3.60775C143.009 3.6714 140.429 3.7154 137.85 3.77574C135.791 3.8239 133.732 3.88623 131.673 3.93814C129.395 3.99558 127.116 4.04602 124.838 4.10379C122.807 4.15531 120.775 4.21496 118.743 4.26684C116.493 4.3243 114.242 4.37199 111.991 4.43344C110.288 4.47994 108.585 4.55185 106.882 4.59371C104.276 4.65778 101.668 4.70175 99.0617 4.76175C96.9478 4.8104 94.8341 4.87117 92.7202 4.92455C90.4969 4.98069 88.2734 5.03284 86.0501 5.08966C83.991 5.14228 81.9321 5.20103 79.873 5.25294C77.5949 5.31038 75.317 5.38246 73.0385 5.41392C68.131 5.48167 63.2228 5.58153 58.3155 5.55662C56.2463 5.54611 54.1761 5.27907 52.1111 5.0788C51.0231 4.97328 49.9453 4.76138 48.8634 4.59421C48.7898 4.58284 48.7204 4.54375 48.6491 4.51754C48.7171 4.48896 48.783 4.45262 48.8536 4.43439C48.905 4.42113 48.9626 4.43292 49.0173 4.43164C51.3503 4.37704 53.6838 4.33903 56.016 4.26312C58.8199 4.17186 61.6229 4.05179 64.426 3.93699C65.4994 3.89303 66.5715 3.81776 67.645 3.77702C69.3475 3.71241 71.0509 3.66887 72.7537 3.60878C74.1282 3.56027 75.5021 3.49719 76.8765 3.44637C79.8988 3.33463 82.9215 3.23005 85.9437 3.11523C87.0992 3.07133 88.2536 2.99438 89.4092 2.95557C91.3583 2.89013 93.3082 2.84855 95.2575 2.78648C96.6868 2.74097 98.1155 2.6747 99.5447 2.62499C101.247 2.56578 102.951 2.51905 104.653 2.45809C105.973 2.41084 107.292 2.33835 108.612 2.29792C110.725 2.23317 112.84 2.19026 114.953 2.12943C116.602 2.08199 118.25 2.01886 119.898 1.96721C121.738 1.90955 123.578 1.85698 125.418 1.8022C127.257 1.74741 129.097 1.69136 130.937 1.63819C132.887 1.58187 134.836 1.52908 136.786 1.47327C138.662 1.41954 140.539 1.36125 142.416 1.30986C144.529 1.25198 146.643 1.19986 148.757 1.14472C150.844 1.09029 152.93 1.03411 155.016 0.980754C157.212 0.924598 159.408 0.871412 161.604 0.815945C163.746 0.76186 165.888 0.725717 168.028 0.645514C169.661 0.584293 171.293 0.460251 172.926 0.380868C173.168 0.369115 173.414 0.48538 173.658 0.482001C177.032 0.435197 180.406 0.383014 183.779 0.321343C186.304 0.27519 188.829 0.211401 191.354 0.159255C194.125 0.102019 196.896 0.0302846 199.667 0.000182804ZM146.484 215.142C144.775 215.186 143.069 215.345 141.362 215.458C139.764 215.564 138.166 215.666 136.569 215.789C134.582 215.942 132.597 216.114 130.611 216.279C128.653 216.443 126.695 216.62 124.735 216.769C122.395 216.947 120.054 217.171 117.709 217.249C114.147 217.366 110.58 217.377 107.015 217.428C106.221 217.439 105.422 217.485 104.634 217.419C102.367 217.23 100.104 216.989 97.8392 216.773C96.6254 216.658 95.409 216.568 94.1965 216.44C92.232 216.233 90.2745 215.922 88.3053 215.81C86.385 215.701 84.4535 215.765 82.5274 215.793C81.016 215.814 79.5039 215.868 77.9949 215.957C75.5968 216.098 73.2009 216.276 70.8046 216.445C68.5445 216.604 66.2849 216.771 64.0253 216.937C62.5643 217.044 61.1036 217.156 59.6427 217.265C57.4377 217.43 55.2327 217.594 53.0278 217.758C51.5669 217.868 50.1062 217.98 48.6452 218.086C46.3582 218.253 44.0715 218.424 41.7836 218.577C39.9676 218.7 38.1495 218.791 36.3334 218.912C35.3066 218.98 34.9861 219.331 35.0118 220.382C35.0259 220.962 35.1173 221.541 35.1683 222.121C35.3887 224.632 35.59 227.145 35.837 229.653C35.908 230.373 35.9838 231.18 36.7412 231.545C37.1916 231.763 37.7372 231.877 38.2392 231.875C39.7777 231.868 41.3156 231.748 42.8543 231.735C45.876 231.71 48.8981 231.747 51.9198 231.724C57.3471 231.684 62.7742 231.618 68.2013 231.564C68.7036 231.559 69.2061 231.572 69.7083 231.562C72.5064 231.51 75.3043 231.435 78.1026 231.403C84.1321 231.336 90.1618 231.281 96.1916 231.239C99.1585 231.218 102.126 231.254 105.093 231.231C110.411 231.191 115.728 231.125 121.046 231.071C121.575 231.066 122.105 231.079 122.635 231.069C125.433 231.017 128.231 230.942 131.029 230.91C137.059 230.843 143.088 230.788 149.118 230.746C152.058 230.725 154.998 230.76 157.937 230.738C163.282 230.697 168.627 230.632 173.972 230.578C174.502 230.573 175.032 230.585 175.561 230.576C178.907 230.524 182.253 230.454 185.599 230.418C187.899 230.393 190.2 230.431 192.5 230.41C196.969 230.368 201.437 230.306 205.906 230.247C206.886 230.235 207.63 229.534 207.732 228.496C207.965 226.15 208.175 223.803 208.394 221.292C208.449 220.438 208.536 219.585 208.552 218.731C208.572 217.433 207.919 216.934 206.632 217.092C204.148 217.396 201.662 217.817 199.168 217.883C195.47 217.981 191.765 217.839 188.064 217.747C186.327 217.704 184.593 217.556 182.86 217.425C180.954 217.281 179.051 217.108 177.148 216.934C175.463 216.78 173.779 216.605 172.094 216.444L168.616 216.109C167.456 215.998 166.297 215.89 165.136 215.79C162.988 215.606 160.838 215.422 158.685 215.304C156.766 215.198 154.843 215.16 152.921 215.135C150.775 215.107 148.629 215.087 146.484 215.142ZM90.3905 199.433C88.7535 199.515 87.1169 199.605 85.4796 199.678C83.9963 199.743 82.5121 199.789 81.0284 199.844C79.572 199.899 78.1157 199.956 76.6592 200.008C73.5822 200.119 70.505 200.226 67.428 200.338C66.0262 200.389 64.625 200.456 63.2231 200.499C61.1918 200.563 59.1597 200.602 57.1286 200.67C56.2466 200.7 55.3606 200.732 54.4865 200.843C53.6434 200.95 52.8196 201.233 51.9759 201.305C50.9202 201.394 49.8335 201.418 49.1238 200.356C49.0725 200.279 48.6713 200.316 48.6653 200.346C48.2861 202.27 47.0282 203.64 45.7289 204.964C44.6663 206.047 43.5223 207.05 42.438 208.113C41.072 209.451 39.6871 210.775 38.3916 212.18C37.429 213.224 36.5933 214.385 35.7084 215.5C35.6205 215.61 35.5834 215.761 35.5227 215.893C35.6792 215.912 35.8363 215.952 35.9921 215.947C37.6403 215.898 39.2886 215.846 40.9364 215.785C42.2014 215.738 43.4655 215.668 44.7305 215.624C46.5153 215.561 48.3018 215.538 50.0852 215.449C51.4388 215.382 52.7878 215.226 54.1403 215.131C56.6189 214.958 59.099 214.806 61.5776 214.633C62.9574 214.537 64.3388 214.447 65.7137 214.299C67.4614 214.112 69.2014 213.853 70.9482 213.655C72.1596 213.517 73.3782 213.444 74.591 213.318C76.583 213.11 78.569 212.826 80.5653 212.683C81.9644 212.583 83.3769 212.642 84.7827 212.67C86.1575 212.696 87.537 212.713 88.9039 212.844C90.4904 212.995 92.0641 213.277 93.646 213.482C95.0276 213.662 96.416 213.79 97.7955 213.984C99.5754 214.234 101.348 214.534 103.126 214.795C103.583 214.862 104.048 214.865 104.509 214.898C104.132 214.51 103.793 214.075 103.372 213.744C101.265 212.088 99.5459 210.052 97.9842 207.921C96.5655 205.984 95.4224 203.845 94.1734 201.785C93.3218 200.381 92.3199 199.23 90.3905 199.433ZM195.915 198.352C194.602 198.477 193.278 198.485 191.958 198.527C189.927 198.591 187.895 198.643 185.864 198.693C183.394 198.752 180.924 198.818 178.454 198.855C173.958 198.921 169.461 198.968 164.965 199.021C164.353 199.029 163.741 199.013 163.129 199.024C160.221 199.075 157.313 199.132 154.241 199.187H137.422C132.3 199.187 127.178 199.165 122.057 199.209C121.239 199.216 120.419 199.521 120.019 200.378C119.312 201.892 118.682 203.445 117.913 204.927C116.098 208.426 113.531 211.347 110.64 213.979C110.031 214.533 110.446 214.713 110.785 214.77C111.407 214.875 112.062 214.839 112.698 214.793C114.658 214.648 116.616 214.474 118.574 214.306C120.451 214.145 122.327 213.974 124.204 213.815C126.217 213.645 128.231 213.49 130.244 213.32C132.122 213.161 133.996 212.967 135.875 212.834C138.544 212.645 141.215 212.474 143.887 212.345C145.181 212.283 146.482 212.295 147.777 212.344C149.677 212.417 151.576 212.543 153.475 212.666C155.818 212.819 158.159 212.992 160.501 213.156C162.072 213.266 163.643 213.375 165.213 213.485C167.528 213.649 169.843 213.813 172.158 213.979C173.673 214.087 175.189 214.2 176.705 214.306C178.303 214.419 179.901 214.524 181.499 214.636C183.015 214.743 184.53 214.867 186.047 214.961C188.027 215.084 190.01 215.279 191.99 215.269C194.548 215.257 197.109 215.142 199.659 214.944C201.963 214.766 204.255 214.425 206.55 214.139C207.742 213.991 208.187 213.11 207.569 212.103C205.276 208.368 202.947 204.654 200.677 200.905C199.576 199.087 198.095 198.144 195.915 198.352ZM104.939 108.305C104.823 108.638 104.743 108.989 104.584 109.3C104.039 110.364 103.46 111.409 102.907 112.468C101.641 114.896 100.384 117.29 98.0783 118.992C96.5757 120.102 94.8152 120.932 93.7426 122.59C93.4263 123.079 92.8701 123.411 92.5417 123.895C91.9543 124.761 91.4852 125.706 90.9159 126.585C88.709 129.993 86.6921 133.491 85.5145 137.414C84.6024 140.452 83.9539 143.532 83.9874 146.72C84.0047 148.368 84.0432 150.019 84.1599 151.663C84.2563 153.023 84.4723 154.374 84.6519 155.727C84.9135 157.698 85.2369 159.662 85.4373 161.639C85.5196 162.451 85.2615 163.295 85.3154 164.114C85.4085 165.53 85.5449 166.952 85.8057 168.345C86.3031 171.001 86.8695 173.646 87.4655 176.283C88.0754 178.98 88.772 181.659 89.4005 184.353C90.3624 188.476 91.7677 192.442 93.6213 196.244C95.4906 200.077 97.7195 203.704 100.252 207.132C101.461 208.769 102.721 210.398 104.159 211.828C105.76 213.418 107.848 213.73 109.529 211.834C110.563 210.668 111.544 209.451 112.494 208.216C114.568 205.522 116.607 202.801 118.656 200.088C118.729 199.992 118.762 199.865 118.813 199.752C118.686 199.728 118.559 199.7 118.432 199.68C117.453 199.529 116.45 199.47 115.501 199.212C112.378 198.366 109.869 196.414 107.343 194.518C104.955 192.724 102.607 190.877 100.23 189.068C99.8508 188.78 99.496 188.772 99.2102 189.286C98.4284 190.691 97.6115 192.077 96.795 193.462C96.6591 193.693 96.455 193.883 96.2825 194.092C96.0716 193.834 95.8181 193.601 95.6573 193.315C95.0528 192.241 95.6641 191.247 95.9619 190.268C96.5905 188.202 97.0565 186.126 96.9689 183.948C96.8928 182.054 96.793 180.158 96.8217 178.265C96.8411 176.979 97.3127 175.714 98.4225 175.042C99.2676 174.531 99.1442 173.935 99.0626 173.275C98.77 170.912 98.286 168.562 98.152 166.191C97.9793 163.136 98.0565 160.064 98.608 156.867C98.6628 156.507 98.6979 156.142 98.7757 155.788C99.1387 154.132 99.4296 152.454 99.9043 150.83C100.559 148.592 101.316 146.38 102.107 144.185C102.56 142.926 104.673 138.654 104.521 139.935C104.458 140.64 103.574 144.066 103.057 145.708C102.255 148.256 101.458 150.809 100.789 153.394C99.9794 156.518 99.3731 159.687 99.4337 162.94C99.4664 164.698 99.515 166.456 99.6016 168.212C99.675 169.703 99.8112 171.19 99.9239 172.678C99.9622 173.182 100.328 173.556 100.606 173.382C101.13 173.054 101.647 172.716 102.162 172.376C104.762 170.661 107.059 168.592 109.184 166.328C109.591 165.895 110.097 165.433 110.242 164.899C110.668 163.336 110.973 161.737 111.251 160.139C111.475 158.848 111.591 157.538 111.756 156.237C112.03 154.077 112.411 151.923 112.536 149.755C112.605 148.549 112.219 147.322 112.093 146.099C111.97 144.896 111.979 143.677 111.816 142.481C111.575 140.707 111.31 138.93 110.908 137.187C110.625 135.96 110.291 134.67 109.642 133.617C108.324 131.478 106.69 129.536 105.353 127.409C104.314 125.756 103.412 123.949 103.246 121.973C103.081 120.006 103.142 118.009 103.256 116.035C103.286 115.522 103.789 114.802 104.252 114.612C104.743 114.411 105.153 115.025 105.352 115.582C105.651 116.416 105.99 117.235 106.313 118.06C106.347 118.146 106.39 118.228 106.429 118.312C106.451 118.212 106.499 118.11 106.491 118.013C106.481 117.888 106.421 117.769 106.392 117.645C105.97 115.843 105.473 114.061 105.49 112.176C105.499 111.236 105.302 110.293 105.177 109.355C105.129 109.001 105.02 108.654 104.939 108.305ZM85.4265 181.427C84.5491 181.516 83.6663 181.554 82.7849 181.599C81.5759 181.662 80.3665 181.716 79.1568 181.765C76.3549 181.877 73.5527 181.985 70.5863 182.094C68.277 182.204 65.9686 182.341 63.6581 182.416C61.026 182.502 58.3922 182.566 55.759 182.57C54.7896 182.572 53.8186 182.388 52.8506 182.27C51.5504 182.111 50.2566 181.859 48.9523 181.785C47.449 181.701 47.0206 182.192 47.0009 183.697C46.9628 186.598 46.9166 189.502 47.828 192.309C48.1956 193.441 48.4524 194.65 49.0401 195.661C49.9202 197.174 51.4953 197.839 53.1745 197.84C56.2777 197.842 59.381 197.654 62.4842 197.543C63.9127 197.491 65.341 197.432 66.7695 197.379C69.7358 197.269 72.7022 197.162 75.6685 197.049C76.9876 196.999 78.3059 196.923 79.6253 196.889C82.2307 196.822 84.8368 196.779 87.4424 196.72L87.6325 196.716C88.9631 196.682 90.2812 196.65 91.0646 198.099C91.134 198.228 91.5315 198.178 91.7766 198.212C91.7933 198.002 91.8879 197.759 91.8146 197.588C91.1778 196.099 90.516 194.621 89.8518 193.144C88.2315 189.541 87.053 185.791 86.1175 181.959C86.0291 181.597 85.8715 181.382 85.4265 181.427ZM108.218 171.766C106.274 172.767 104.33 173.779 102.464 174.915C101.633 175.421 100.885 176.156 100.293 176.934C99.8358 177.536 99.6742 178.364 99.3904 179.095C98.647 181.009 99.2453 182.758 100.288 184.307C101.916 186.724 103.749 188.999 106.006 190.88C107.395 192.038 117.51 199.024 121.249 195.852C121.768 195.412 121.987 194.739 122.29 194.148C123.527 191.733 125.523 189.69 125.939 186.877C126.106 185.753 126.253 184.593 126.159 183.471C126.049 182.172 125.657 180.897 125.399 179.609C125.23 178.764 125.182 177.866 124.338 177.339C124.231 177.272 124.113 177.222 124 177.164C123.973 177.289 123.904 177.422 123.924 177.539C124.178 179.007 124.328 180.467 124.836 181.919C125.449 183.666 125.132 185.548 124.416 187.305C124.097 188.086 122.996 188.459 122.244 188.368C120.147 188.115 118.404 187.087 116.885 185.659C114.74 183.643 113.404 181.125 112.331 178.314C112.085 177.595 111.848 176.872 111.589 176.157C111.159 174.967 110.77 173.757 110.259 172.602C109.857 171.692 109.019 171.354 108.218 171.766ZM144.999 93.543C145.066 93.7494 145.095 93.9802 145.207 94.1582C145.879 95.2245 146.684 95.406 147.233 96.5307C148.498 99.1235 149.441 101.015 150.552 103.678C150.981 104.708 151.025 106.051 151.382 107.753C151.396 107.816 151.584 107.994 151.719 108.074C152.423 108.486 153.187 108.816 153.836 109.3C155.693 110.686 156.288 112.215 155.724 114.188C154.729 117.667 153.547 115.928 154.256 113.851C154.544 113.007 154.329 112.145 153.663 111.53C153.441 111.325 152.446 110.824 151.218 110.253C151.101 110.199 151.186 110.577 150.691 111.578C150.542 111.877 149.968 112.741 149.804 112.303C149.524 111.553 150.043 109.717 149.804 109.61L149.549 109.497C147.593 108.629 145.635 107.821 145.395 107.791C144.663 107.7 143.985 108.058 143.979 109.364C143.962 112.562 142.694 115.145 140.263 117.181C138.102 118.992 135.693 119.938 132.804 119.494C130.687 119.168 128.882 118.282 127.315 116.869C125.934 115.623 124.887 114.149 124.416 112.321C124.303 111.882 124.181 111.911 123.879 112.191C122.371 113.587 121.374 115.286 120.809 117.249C120.742 117.483 120.728 117.732 120.689 117.974C120.947 117.951 121.215 117.966 121.46 117.899C122.172 117.706 122.874 117.479 123.581 117.268C123.673 117.24 123.767 117.223 123.861 117.201C123.825 117.28 123.781 117.357 123.755 117.439C123.426 118.451 122.696 119.087 121.735 119.425C120.661 119.803 119.032 118.759 119.337 117.681C119.556 116.91 119.94 116.178 120.306 115.457C120.939 114.21 121.616 112.986 122.357 111.752C122.427 111.549 122.497 111.345 122.567 111.141C122.415 111.29 122.262 111.439 122.028 111.588C121.912 111.759 121.827 111.967 121.674 112.096C119.563 113.875 117.207 114.845 114.363 114.575C112.739 114.421 111.326 113.852 109.989 113.014C108.86 112.307 107.645 112.734 107.516 114.049C107.426 114.966 107.52 115.946 107.753 116.841C108.506 119.741 109.312 122.611 110.549 125.377C111.46 127.411 112.729 128.82 114.799 129.49C116.349 129.992 117.917 130.489 119.514 130.789C121.432 131.149 123.377 131.135 125.309 130.673C126.714 130.337 128.152 130.144 129.561 129.821C130.928 129.506 132.355 129.283 133.616 128.71C136.682 127.319 142.14 122.754 144.604 120.483C144.72 120.376 144.836 120.268 144.952 120.16C144.976 120.315 145.028 120.471 145.017 120.624C144.923 122.051 141.329 125.459 140.044 126.079C139.798 126.198 139.731 126.687 139.581 127.004C139.855 127.125 140.126 127.333 140.404 127.343C140.719 127.354 141.038 127.172 141.362 127.108C141.452 127.091 141.645 127.184 141.655 127.247C141.733 127.741 141.817 128.24 141.825 128.738C141.846 130.144 141.859 131.551 141.817 132.956C141.803 133.434 141.664 133.926 141.495 134.379C140.361 137.414 139.134 140.416 138.072 143.476C137.106 146.259 136.202 149.074 135.477 151.927C134.954 153.987 134.574 156.124 134.484 158.242C134.358 161.184 134.308 164.137 134.898 167.08C135.551 170.335 136.79 173.318 138.557 176.085C140.472 179.084 142.466 182.035 144.488 184.964C144.988 185.688 145.511 186.465 146.394 186.838C146.619 186.934 147.209 186.82 147.531 186.627C147.886 186.413 148.002 186.043 147.765 185.55C146.955 183.861 146.211 182.141 145.449 180.43C144.337 177.933 143.22 175.438 142.125 172.933C140.235 168.611 139.505 164.03 139.407 159.368C139.35 156.647 139.672 153.916 139.869 151.193C139.983 149.614 140.129 148.033 140.366 146.469C140.755 143.904 141.269 141.358 141.657 138.793C142.077 136.015 142.781 133.33 144.174 130.879C145.219 129.039 146.583 127.442 148.562 126.558C150.953 125.489 153.206 124.301 154.874 122.164C156.429 120.173 157.373 117.954 157.585 115.482C157.863 112.241 157.102 109.226 155.138 106.566C153.487 104.33 151.92 102.048 150.691 99.536C149.446 96.9946 148.027 95.3688 145.511 93.8175C145.347 93.716 145.17 93.6341 144.999 93.543ZM104.132 116.044C104.044 116.296 103.891 116.545 103.877 116.802C103.749 119.165 104.095 121.488 104.885 123.695C105.562 125.586 106.376 127.468 107.74 128.996C108.819 130.203 109.532 131.721 110.896 132.687C111.017 132.772 111.047 133.002 111.097 133.171C111.535 134.656 112.014 136.131 112.391 137.631L112.491 138.034C112.806 139.31 113.074 140.602 112.91 141.94C112.886 142.129 112.888 142.325 112.909 142.514C113.179 144.894 113.446 147.274 113.731 149.652C113.962 151.588 113.267 153.412 113.064 155.295C112.935 156.491 112.758 157.683 112.573 158.871C112.374 160.153 112.158 161.433 111.915 162.707C111.664 164.023 111.488 165.37 111.053 166.625C110.814 167.313 110.894 167.812 111.129 168.41C111.63 169.682 112.073 170.977 112.583 172.246C113.773 175.204 114.908 178.188 116.219 181.092C117.216 183.3 118.958 184.808 121.33 185.505C122.48 185.843 123.514 185.441 123.709 184.498C123.802 184.045 123.749 183.533 123.644 183.076C123.539 182.619 123.164 182.208 123.119 181.756C122.997 180.526 122.986 179.284 122.932 178.047C122.923 177.83 122.937 177.611 122.915 177.396C122.76 175.9 122.588 174.406 122.442 172.909C122.309 171.554 122.235 170.191 122.075 168.839C121.904 167.387 121.641 165.947 121.461 164.496C121.359 163.676 121.384 162.839 121.279 162.019C121.092 160.545 120.792 159.083 120.645 157.605C120.427 155.433 120.284 153.252 120.143 151.072C120.009 148.983 119.863 146.892 119.823 144.799C119.768 141.924 119.762 139.046 119.835 136.172C119.86 135.206 120.156 134.239 120.398 133.29C120.5 132.889 120.467 132.828 120.048 132.773C118.709 132.598 117.361 132.426 116.05 132.115C113.865 131.597 112.084 130.425 110.941 128.445C109.732 126.349 108.579 124.221 107.319 122.024C107.047 121.643 106.755 121.275 106.509 120.879C106.053 120.145 105.558 119.423 105.203 118.64C104.933 118.044 104.887 117.35 104.673 116.723C104.585 116.465 104.318 116.269 104.132 116.044ZM142.423 90.5479C142.346 90.5562 142.271 90.5784 142.196 90.5941C142.25 90.6716 142.288 90.7731 142.361 90.8228C143.278 91.4474 144.208 92.0533 145.12 92.6859C147.131 94.0813 148.859 94.953 150.207 96.9979C151.878 99.5307 153.516 102.085 155.14 104.648C156.691 107.096 158.15 109.552 158.474 112.563C158.688 114.553 158.581 116.468 157.991 118.33C156.664 122.521 153.854 125.468 149.836 127.117C147.007 128.278 145.355 130.381 144.327 133.063C143.718 134.65 143.343 136.336 142.965 138.001C142.479 140.139 142.053 142.292 141.682 144.452C141.393 146.129 141.198 147.825 141.018 149.518C140.769 151.861 140.42 154.209 140.395 156.557C140.37 158.979 140.592 161.415 140.875 163.825C141.091 165.664 141.461 167.502 141.954 169.288C143.316 174.221 145.852 178.637 148.247 183.109C148.641 183.845 149.451 184.019 149.925 183.396C150.206 183.025 150.37 182.356 150.244 181.921C149.6 179.704 148.785 177.538 148.143 175.321C147.142 171.868 146.232 168.388 145.283 164.755C145.229 164.696 145.135 164.643 145.125 164.577C144.898 163.135 144.659 161.695 144.467 160.248C144.225 158.425 143.864 156.599 143.842 154.77C143.808 152.024 143.895 149.262 144.174 146.531C144.388 144.439 144.87 142.356 145.424 140.321C146.408 136.707 147.989 133.343 150.225 130.323C151.107 129.132 152.085 128.007 153.075 126.903C154.282 125.556 155.724 124.386 156.75 122.92C158.707 120.123 159.55 116.868 159.712 113.49C159.797 111.71 159.719 109.875 159.371 108.133C158.903 105.793 158.213 103.481 157.42 101.227C156.163 97.6571 154.246 94.5032 151.127 92.1926C148.526 90.2656 145.656 90.1969 142.423 90.5479ZM143.361 85.9846C142.011 85.9454 140.65 87.0914 139.296 87.2757C139.242 87.283 139.151 87.5501 139.192 87.6455C139.581 88.5341 140.376 89.0078 141.23 89.2052C142.82 89.5731 144.447 88.9704 146.06 89.2349C149.875 89.8603 152.729 92.0985 155.104 94.9248C157.086 97.2843 158.41 100.086 159.178 103.079C159.755 105.325 160.328 107.609 160.51 109.907C160.708 112.4 160.674 114.923 160.109 117.429C159.427 120.45 158.158 123.107 156.064 125.372C154.978 126.547 153.833 127.668 152.762 128.857C151.228 130.559 149.986 132.47 148.898 134.483C147.688 136.722 146.724 139.057 146.007 141.504C145.204 144.246 144.708 147.049 144.666 149.887C144.633 152.171 144.9 154.467 145.137 156.746C145.323 158.532 145.592 160.317 145.957 162.074C146.611 165.215 147.308 168.349 148.096 171.458C148.712 173.892 149.463 176.303 150.697 178.508C150.991 179.034 151.587 179.659 152.11 179.727C152.951 179.837 154.221 177.756 153.988 176.912C153.663 175.732 153.336 174.553 153.008 173.374C151.928 169.506 151.435 165.53 151.253 161.549C151.103 158.238 151.346 154.9 151.556 151.583C151.684 149.551 151.985 147.518 152.375 145.518C152.815 143.258 153.453 141.038 153.983 138.795C154.626 136.072 156.11 133.705 157.185 131.165C158.369 128.368 159.65 125.611 160.762 122.787C161.686 120.443 162.222 117.987 162.572 115.476C162.866 113.369 163.016 111.257 162.661 109.192C162.264 106.882 161.6 104.61 160.931 102.358C160.03 99.3233 158.982 96.3294 159.089 92.9344C159.153 91.5148 158.289 90.6349 157.252 89.9015C155.549 88.696 153.555 88.1219 151.617 87.4447C148.948 86.512 146.171 86.066 143.361 85.9846ZM83.497 169.364C82.6284 170.914 81.7895 172.48 80.8582 174.123C80.7425 174.349 80.626 174.574 80.5111 174.799C79.9649 175.872 79.0554 176.846 79.8176 178.224C79.9808 178.518 80.0227 178.67 80.3762 178.65C81.6367 178.577 82.9079 178.603 84.1556 178.442C84.618 178.383 85.2664 177.992 85.4013 177.603C85.583 177.08 85.383 176.407 85.2878 175.808C85.1546 174.969 84.9537 174.142 84.808 173.305C84.7309 172.862 84.6826 172.411 84.6682 171.962C84.6398 171.074 84.7277 170.203 84.0869 169.408C83.7844 169.033 83.6579 169.076 83.497 169.364ZM160.243 94.5554C160.345 95.6607 160.317 96.8032 160.601 97.8613C161.266 100.339 162.122 102.765 162.826 105.233C163.405 107.265 163.889 109.328 163.849 111.465C163.829 112.511 163.743 113.556 163.691 114.601C163.574 116.971 162.942 119.236 162.253 121.484C160.852 126.056 158.59 130.265 156.704 134.634C155.882 136.537 155.214 138.525 154.682 140.53C154.108 142.695 153.717 144.915 153.354 147.129C153.049 148.996 152.735 150.887 152.713 152.77C152.667 156.724 152.483 160.688 153.003 164.632C153.196 166.094 153.337 167.563 153.501 169.193C153.775 170.997 153.996 172.812 154.359 174.598C154.453 175.061 154.93 175.716 155.33 175.797C156.646 176.066 157.713 175.44 158.256 174.193C159.083 172.295 159.693 170.408 159.135 168.225C158.595 166.115 158.378 163.914 158.117 161.741C157.835 159.393 157.584 157.034 157.467 154.673C157.338 152.049 157.361 149.407 157.955 146.829C158.396 144.918 158.897 143.01 159.539 141.159C160.692 137.835 162.099 134.594 163.166 131.244C164.581 126.806 165.293 122.205 165.64 117.565C165.781 115.676 165.639 113.767 165.668 111.868C165.711 109.115 165.492 106.385 165.001 103.678C164.697 102.002 164.444 100.307 163.994 98.6689C163.482 96.806 162.399 95.3057 160.663 94.3121C160.199 94.046 160.211 94.211 160.243 94.5554ZM165.066 98.1332C165.101 98.345 165.135 98.5569 165.17 98.851C165.553 101.02 166.039 103.177 166.293 105.361C166.576 107.799 166.74 110.259 166.784 112.713C166.819 114.636 166.654 116.57 166.469 118.489C166.265 120.601 166.055 122.724 165.634 124.799C165.055 127.657 164.394 130.51 163.547 133.298C162.784 135.812 161.749 138.245 160.789 140.696C159.069 145.087 158.242 149.624 158.427 154.343C158.458 155.136 158.368 155.937 158.444 156.724C158.624 158.581 158.845 160.435 159.098 162.284C159.263 163.49 159.555 164.679 159.713 165.885C159.881 167.172 160.171 168.499 160.001 169.754C159.886 170.606 160.274 171.114 160.523 171.743C160.59 171.913 160.953 172.036 161.19 172.055C161.839 172.109 162.863 171.168 163.201 170.317C164.054 168.172 164.269 165.907 164.313 163.645C164.339 162.292 163.989 160.936 163.862 159.577C163.68 157.625 163.373 155.663 163.436 153.716C163.513 151.355 163.823 148.988 164.212 146.654C164.569 144.507 164.982 142.337 165.691 140.288C167.393 135.371 168.409 130.344 168.613 125.155C168.717 122.496 168.748 119.833 168.775 117.172C168.784 116.292 168.667 115.411 168.623 114.529C168.56 113.265 168.589 111.991 168.44 110.738C168.171 108.485 167.967 106.202 167.42 104.01C166.955 102.15 166.046 100.402 165.334 98.5223C165.245 98.3926 165.155 98.2629 165.066 98.1332ZM169.17 106.684C169.097 106.79 168.987 106.888 168.959 107.005C168.922 107.161 168.937 107.333 168.952 107.496C169.113 109.263 169.325 111.026 169.43 112.796C169.542 114.659 169.546 116.529 169.613 118.395C169.625 118.73 169.717 119.061 169.772 119.559C169.717 120.988 169.704 122.419 169.598 123.844C169.412 126.357 169.315 128.89 168.909 131.369C168.5 133.864 167.898 136.348 167.131 138.757C165.85 142.781 164.793 146.845 164.547 151.061C164.411 153.381 164.58 155.725 164.688 158.054C164.801 160.489 164.989 162.922 165.18 165.353C165.238 166.101 165.317 166.875 165.566 167.573C165.748 168.085 166.225 168.492 166.57 168.946C167.028 168.488 167.645 168.105 167.909 167.553C168.397 166.531 168.772 165.431 169.022 164.325C169.313 163.03 169.54 161.695 169.569 160.373C169.593 159.323 169.18 158.269 169.136 157.209C169.058 155.341 169.05 153.465 169.131 151.597C169.222 149.499 169.402 147.402 169.619 145.313C169.841 143.176 170.17 141.05 170.425 138.916L170.675 136.832C170.883 135.096 171.082 133.358 171.237 131.617C171.413 129.642 171.545 127.657 171.561 125.675C171.582 123.043 171.497 120.408 171.406 117.776C171.347 116.068 171.235 114.359 171.076 112.656C170.889 110.65 170.301 108.75 169.344 106.97C169.291 106.872 169.228 106.779 169.17 106.684ZM208.352 154.352C209.83 154.694 211.315 155.013 212.806 155.296C213.654 155.457 214.521 155.524 215.461 155.634C217.556 155.798 219.566 156.052 221.582 156.108C225.377 156.213 229.075 155.594 232.652 154.299C232.699 154.282 232.73 154.192 232.77 154.19C233.117 154.181 233.465 154.183 233.813 154.182C233.581 154.392 233.376 154.648 233.112 154.805C231.141 155.973 229.041 156.736 226.765 157.145C224.233 157.6 221.692 157.532 219.177 157.39C216.408 157.234 213.647 156.837 210.92 156.169C208.607 155.603 206.382 154.849 204.185 153.969C204.047 153.913 203.926 153.817 203.797 153.739C203.923 153.713 204.05 153.691 204.175 153.661C205.665 153.308 206.973 154.033 208.352 154.352ZM209.637 133.457C210.539 133.787 211.435 134.136 212.322 134.505C212.858 134.729 213.374 135.003 213.941 135.296C216.487 136.438 219.062 137.261 221.772 137.756C224.359 138.227 226.946 138.292 229.536 138.178C231.162 138.107 232.773 137.696 234.392 137.448C234.59 137.418 234.797 137.451 235 137.455C234.877 137.645 234.799 137.911 234.624 138.013C232.905 139.019 231.083 139.699 229.069 139.866C224.244 140.263 219.724 139.057 215.375 137.173C213.33 136.287 211.444 135.033 209.493 133.932C209.328 133.839 209.22 133.643 209.086 133.495C209.271 133.479 209.479 133.399 209.637 133.457ZM82.2382 133.464C82.1037 133.762 81.9867 134.071 81.8312 134.358C81.5139 134.945 80.9969 135.477 81.1943 136.217C81.4947 137.342 81.8412 138.456 82.1821 139.57C82.1991 139.626 82.4209 139.678 82.425 139.67C82.5157 139.491 82.5893 139.303 82.666 138.952C82.8199 138.689 82.925 138.372 83.1396 138.175C83.4329 137.905 83.4716 137.696 83.34 137.31C83.0048 136.327 82.7518 135.316 82.468 134.316C82.3877 134.033 82.3146 133.748 82.2382 133.464ZM84.0716 129.182C83.9866 129.277 83.8728 129.359 83.8212 129.47C83.5127 130.132 83.1296 130.776 82.938 131.472C82.5239 132.977 83.2383 134.376 83.4878 135.818C83.5974 135.767 83.7627 135.746 83.8079 135.662C84.2825 134.77 84.7775 133.885 85.1772 132.959C85.3187 132.632 85.3112 132.167 85.2 131.82C85.0405 131.322 84.7236 130.875 84.4739 130.242C84.4191 130.019 84.38 129.791 84.304 129.576C84.2541 129.435 84.1509 129.313 84.0716 129.182ZM85.9816 121.449C85.9173 121.62 85.794 121.792 85.7981 121.96C85.8282 123.18 85.4906 124.299 85.0523 125.428C84.7769 126.138 84.621 126.883 84.742 127.741C84.8711 128.656 85.4647 129.16 85.8798 129.827C86.0673 130.129 86.3375 130.379 86.5702 130.653C86.7753 130.379 86.9805 130.105 87.2678 129.749C87.5962 129.147 87.9397 128.552 88.2498 127.94C88.9384 126.583 88.9311 126.58 87.8417 125.39C87.7532 125.294 87.6735 125.188 87.5972 125.082C86.9167 124.129 86.5388 123.058 86.3232 121.916C86.2909 121.745 86.0995 121.604 85.9816 121.449ZM88.3176 116.044C88.2404 116.176 88.156 116.304 88.0872 116.441C87.7566 117.096 87.4952 117.797 87.0873 118.4C86.4564 119.332 86.8973 120.201 87.1078 121.088C87.4873 122.688 87.9997 124.232 89.1054 125.506C89.3608 125.801 89.3578 125.803 89.6509 125.229C90.1915 124.469 90.7135 123.695 91.281 122.956C91.5466 122.61 91.7845 122.393 91.3434 121.957C90.8486 121.468 90.3737 120.899 90.0849 120.274C89.5031 119.016 89.0556 117.696 88.5457 116.404C88.4944 116.274 88.3948 116.164 88.3176 116.044ZM111.945 121.315C112.522 121.582 113.084 121.933 113.564 122.352C114.896 123.514 116.414 124.042 118.175 123.924C118.421 123.908 123.656 123.644 123.265 124.317C122.998 124.776 119.044 125.536 118.591 125.542C116.77 125.567 114.584 124.696 113.67 124.317C113.3 124.163 110.578 122.524 111.089 121.562C111.287 121.19 111.741 121.22 111.945 121.315ZM90.8958 111.987C90.6178 112.414 90.2201 112.81 90.0923 113.278C89.9356 113.854 89.3775 114.305 89.5667 114.984C89.9568 116.384 90.2574 117.815 90.7477 119.179C91.0565 120.038 91.6406 120.798 92.1146 121.595C92.1251 121.612 92.3401 121.563 92.3877 121.495C93.0316 120.574 93.8962 119.933 94.9923 119.395C95.2688 119.203 95.5296 118.981 95.826 118.827C96.1738 118.648 96.1315 118.607 95.8205 118.396C93.8476 117.061 92.4796 115.201 91.3811 113.124C91.189 112.761 91.0561 112.367 90.8958 111.987ZM0.0420917 96.0128C0.100183 96.1004 0.152534 96.1924 0.217207 96.2748C1.82347 98.3213 3.43154 100.366 5.03755 102.413C5.19858 102.618 5.34853 102.832 5.54471 103.083C7.15444 104.747 8.65047 106.45 10.3103 107.974C12.3228 109.822 14.4655 111.529 16.5673 113.278C18.0805 114.537 19.5916 115.833 21.4689 116.514C22.6645 116.947 23.9172 117.365 25.1707 117.467C27.9638 117.697 30.7763 117.68 33.5747 117.86C34.4237 117.914 35.256 118.272 36.0865 118.521C36.2095 118.558 36.5611 118.755 36.022 118.835C34.4584 119.066 32.9126 119.426 31.3455 119.62C30.3921 119.737 29.4121 119.653 28.4443 119.639C25.9534 119.602 23.601 118.965 21.3056 118.032C18.3814 116.843 15.7627 115.175 13.4177 113.081C11.8068 111.642 10.1262 110.253 8.69497 108.647C6.13955 105.781 3.70448 102.802 1.31545 99.7936C0.546233 98.825 0.0533643 97.6252 0.000381948 96.3231C-0.00379583 96.2204 0.0273589 96.1163 0.0420917 96.0128ZM93.3013 107.788C92.5744 108.705 91.6427 109.567 91.8886 110.884C92.065 111.828 92.3993 112.746 92.6951 113.666C93.3361 115.659 94.9804 116.78 96.5172 117.985C96.5992 118.049 96.8818 117.984 96.9769 117.887C98.2635 116.57 99.5333 115.237 100.808 113.908C101.052 113.654 101.396 113.433 100.664 113.374C100.171 113.334 99.6977 113.079 99.2115 112.934C98.6017 112.752 97.9876 112.584 97.211 112.41C96.637 111.891 96.1124 111.299 95.478 110.868C94.399 110.137 93.7311 109.186 93.505 107.909C93.4955 107.856 93.3092 107.778 93.3013 107.788ZM133.054 102.225L132.492 102.413C131.056 102.893 129.632 103.404 128.48 104.474C127.158 105.702 126.481 107.28 126.066 108.977C125.982 109.32 125.923 109.661 125.892 109.997C125.922 109.872 125.96 109.749 126 109.638C126.111 109.335 126.389 109.086 126.616 108.834L126.709 108.734C127.156 108.255 127.636 107.889 128.357 108.358C129.151 108.876 128.8 109.52 128.578 110.15C128.503 110.362 128.39 110.561 128.254 110.807C127.884 111.419 127.378 111.752 126.747 111.56C126.404 111.455 126.023 111.109 125.894 110.78C125.883 110.754 125.875 110.727 125.867 110.699C125.894 111.855 126.267 112.949 127.06 113.918C127.754 114.765 128.6 115.504 129.452 116.2C131.517 117.884 133.835 118.179 136.182 116.957C139.173 115.4 140.662 112.579 141.996 109.534C142.08 108.85 142.27 108.16 142.225 107.485C142.137 106.161 141.284 105.224 140.324 104.425C138.22 102.672 135.986 101.241 133.054 102.225ZM96.3858 101.731C96.1952 101.952 95.9915 102.164 95.8196 102.4C95.7332 102.518 95.6939 102.675 95.6514 102.82C95.265 104.137 94.8007 105.437 94.5292 106.777C94.3588 107.618 94.5786 108.491 95.1566 109.369C95.8111 109.835 96.4643 110.303 97.1203 110.766C98.4433 111.701 100.005 112 101.529 112.39C101.653 112.421 101.951 112.196 101.998 112.04C102.424 110.618 102.813 109.186 103.2 107.753C103.208 107.725 103.074 107.623 102.999 107.613C101.657 107.435 100.33 107.358 99.1942 106.383C97.9523 105.317 97.19 104.006 96.6377 102.521C96.5413 102.262 96.4691 101.994 96.3858 101.731ZM111.885 95.967C110.296 96.2322 109.25 97.3952 108.336 98.6529C107.218 100.192 106.587 101.933 106.526 103.808C106.475 105.363 106.918 106.859 107.64 108.264L107.754 108.487C108.193 109.34 108.638 110.154 109.584 110.611C111.929 111.743 114.386 112.12 116.942 111.731C117.707 111.615 118.601 111.435 119.146 110.955C121.232 109.114 122.387 106.744 122.685 103.864C122.658 103.24 122.667 102.613 122.596 101.995C122.384 100.149 121.414 98.7447 119.983 97.6168C118.724 96.625 117.252 96.0566 115.713 95.8526C114.461 95.6865 113.137 95.7582 111.885 95.967ZM115.867 84.2254C115.015 86.7934 114.168 89.3631 113.335 91.9372C113.52 91.8998 113.717 91.8264 113.871 91.8787C114.798 92.1928 115.689 92.5692 116.413 93.2784C116.82 93.6774 117.319 93.9834 117.817 94.3724C117.923 94.4623 118.027 94.547 118.129 94.6292C118.191 94.645 118.252 94.6621 118.313 94.6794C120.178 95.2077 121.787 96.1939 122.933 97.8249C124.464 100.005 124.836 102.55 125.232 105.089C125.253 105.218 125.268 105.348 125.286 105.478C125.418 105.42 125.572 105.388 125.678 105.299C125.887 105.123 126.072 104.919 126.263 104.723C127.757 103.19 129.433 101.877 131.364 100.967C133.416 99.9995 135.527 99.7601 137.748 100.644C139.416 101.307 140.755 102.373 142.058 103.525C142.625 104.027 145.296 105.3 150.068 107.344C149.288 104.048 148.484 101.68 147.656 100.239C146.614 98.4251 145.438 97.0393 143.972 95.6837C141.412 93.3157 138.733 91.1397 135.761 89.3016C132.633 87.3676 129.253 86.0841 125.733 85.1404C123.26 84.4772 120.753 83.9386 118.264 83.3321C117.176 83.0672 116.13 83.4325 115.867 84.2254ZM99.6218 98.6153C98.3145 99.5014 97.2716 101.013 97.8652 102.874C98.5232 104.937 100.85 106.72 103.058 106.799C103.267 106.807 103.588 106.544 103.684 106.329C103.95 105.729 104.138 105.093 104.323 104.461C104.358 104.34 104.237 104.048 104.184 104.046C102.783 104.016 101.888 103.119 100.909 102.138C100.277 101.104 99.8448 100.012 99.9094 98.7681C99.9119 98.7188 99.6668 98.5848 99.6218 98.6153ZM31.0506 100.829C31.7768 101.191 32.5001 101.563 33.195 101.981C34.6409 102.85 36.0383 103.804 37.5153 104.615C38.3026 105.047 39.2176 105.244 40.0675 105.567C40.255 105.638 40.4111 105.791 40.5816 105.907C40.4058 105.993 40.1994 106.045 40.0592 106.17C39.0378 107.085 38.0769 106.239 37.1231 106.042C35.1528 105.634 33.776 104.283 32.416 102.836C31.8181 102.293 31.2524 101.801 30.7113 101.283C30.5814 101.158 30.5335 100.948 30.4479 100.778C30.6505 100.792 30.8828 100.746 31.0506 100.829ZM109.202 102.335C109.894 102.629 109.833 103.185 109.796 103.724C109.734 104.617 108.518 105.784 107.74 105.64C107.462 105.588 107.045 105.167 107.052 104.924C107.068 104.294 107.285 103.669 107.463 103.001C107.582 102.882 107.66 102.806 107.736 102.727C108.146 102.305 108.566 102.066 109.202 102.335ZM101.977 96.1392C101.731 96.5012 101.392 96.8313 101.253 97.2307C100.574 99.1885 101.815 102.242 104.402 102.985C104.526 103.021 104.801 102.909 104.838 102.806C105.246 101.663 105.622 100.509 105.999 99.3546C106.022 99.2814 105.973 99.1084 105.955 99.1082C104.03 99.0816 103.095 97.8971 102.536 96.2388C102.501 96.1363 102.224 96.1157 101.977 96.1392ZM135.786 99.6916C135.949 99.7784 136.085 99.9185 136.233 100.034C136.072 99.9956 135.913 99.9475 135.75 99.9208C134.066 99.6444 132.38 99.378 130.698 99.0899C130.463 99.0497 130.246 98.9072 130.02 98.812C130.267 98.7428 130.513 98.6736 130.842 98.6044C132.633 98.5703 134.266 98.8849 135.786 99.6916ZM106.076 91.0542C105.888 91.3315 105.696 91.607 105.514 91.8884C105.489 91.927 105.53 92.006 105.508 92.0487C104.986 93.0357 104.483 94.0345 103.923 94.9996C103.61 95.5397 103.592 96.5977 104.06 96.8833C104.727 97.2908 105.453 97.6038 106.16 97.9448C106.629 98.1712 106.913 97.8842 107.15 97.5377C107.6 96.8787 108.013 96.1921 108.493 95.5551C108.867 95.0574 108.497 95.1608 108.14 95.0709C106.436 94.6448 106.24 93.2194 106.013 91.8289C105.972 91.5807 106.052 91.3129 106.076 91.0542ZM108.865 87.1152C108.623 87.3109 108.292 87.4579 108.155 87.7104C107.399 89.1099 107.118 90.641 107.17 92.2106C107.212 93.4394 107.967 94.2776 109.156 94.5927C109.32 94.6363 109.554 94.57 109.707 94.4758C110.103 94.232 110.472 93.9442 110.934 93.5918C111.099 93.3047 111.308 93.0336 111.416 92.7268C111.569 92.2956 111.668 91.8415 111.744 91.3896C111.771 91.2314 111.72 90.9743 111.609 90.8918C110.508 90.0747 109.689 89.0398 109.128 87.7951C109.028 87.5738 108.952 87.3421 108.865 87.1152ZM113.313 92.0066L112.975 93.0502C112.938 93.1664 113.098 93.4658 113.212 93.493C114.215 93.7337 115.228 93.9383 116.235 94.1634C115.681 93.7551 115.127 93.3454 114.572 92.9393C114.282 92.7278 113.96 92.5611 113.668 92.3524C113.536 92.2573 113.428 92.1275 113.313 92.0066ZM113.845 80.009C113.272 80.4934 112.725 81.0091 112.085 81.5942C111.006 82.4235 110.563 83.612 110.294 84.8729C109.936 86.5508 110.113 88.1076 111.461 89.3601C111.918 89.7844 112.218 89.6043 112.407 89.1401C112.988 87.7119 113.541 86.272 114.102 84.8354C114.691 83.3273 115.022 81.8249 114.417 80.2066C114.231 79.71 114.095 79.7978 113.845 80.009ZM134.371 81.5407C133.655 81.7016 132.841 82.7994 132.551 83.6505C132.424 84.0245 132.237 84.3136 132.963 84.5124C134.554 84.9482 136.073 85.6432 137.477 86.767C137.793 86.7798 138.119 86.8502 138.423 86.7953C139.563 86.5888 140.691 85.3657 141.833 85.3309C143.371 85.284 144.929 85.4271 146.456 85.6441C148.032 85.868 149.622 86.1526 151.133 86.6379C153.128 87.2787 155.051 88.1415 157.007 88.9062C157.137 88.9571 157.276 88.9854 157.411 89.0242C157.376 88.9114 157.322 88.8007 157.308 88.6853C157.216 87.9247 156.707 87.4487 156.11 87.111C154.405 86.1482 152.704 85.1696 150.942 84.3212C147.993 82.9015 144.948 81.7957 141.667 81.312C139.195 80.9474 136.777 81.0001 134.371 81.5407ZM132.63 77.2408C130.204 77.3423 128.166 78.2605 126.643 80.1904C125.906 81.1245 126.071 82.4886 127.194 82.8167C128.588 83.2244 129.995 83.5895 131.56 83.973C131.889 83.4799 132.118 82.0337 132.567 81.7023C133.819 80.7772 135.307 80.4004 136.848 80.3772C138.193 80.357 139.551 80.3812 140.882 80.5492C142.468 80.7493 144.063 81.0128 145.599 81.4455C148.98 82.3982 152.125 83.9362 155.199 85.6193C155.386 85.7214 155.584 85.8016 155.777 85.892C155.774 85.5989 155.807 85.299 155.753 85.0156C155.728 84.8822 155.553 84.7553 155.418 84.6681C154.21 83.8875 153.05 83.0099 151.773 82.3645C149.106 81.017 146.386 79.7905 143.493 78.9619C139.935 77.9432 136.366 77.0844 132.63 77.2408ZM127.591 71.6314C124.895 71.9276 122.543 72.8297 120.729 74.9197C119.679 76.1306 119.051 77.5118 118.987 79.2933C118.987 79.5401 118.938 80.6179 119 80.8477C119.078 81.1356 119.203 81.5955 119.387 81.6381C120.2 81.8263 121.04 81.9087 121.874 81.9815C121.996 81.9921 122.238 81.757 122.258 81.6128C122.348 80.9549 122.28 79.4451 122.448 78.8128C123.099 76.3648 124.855 74.959 127.129 74.1232C129.04 73.4211 131.027 73.4076 133.046 73.4294C136.042 73.4619 138.968 73.8947 141.848 74.6343C143.015 74.9339 144.114 75.5024 145.234 75.9717C145.379 76.0324 145.466 76.2326 145.579 76.3682C145.411 76.3427 145.235 76.3426 145.077 76.2882C141.268 74.973 137.327 74.3565 133.322 74.1258C131.358 74.0127 129.388 74.2156 127.524 74.8053C125.464 75.4572 123.733 76.6249 123.031 78.862C122.652 80.0695 123.197 81.9546 124.375 82.3899C125.063 82.6441 125.31 82.3249 125.577 81.765C125.918 81.0527 126.277 79.4919 126.797 78.9131C128.435 77.0884 130.65 76.4839 132.984 76.4523C134.529 76.4314 136.098 76.647 137.623 76.9334C139.917 77.3641 142.22 77.8221 144.45 78.4989C147.786 79.5113 150.973 80.9117 153.916 82.8197C154.127 82.9564 154.402 82.994 154.647 83.0777C154.573 82.8359 154.527 82.5804 154.419 82.3543C153.08 79.5453 151.447 76.9404 149.074 74.8746C147.683 73.6634 146.098 72.7622 144.301 72.3233C142.999 72.0051 141.685 71.9258 140.312 72.0976C139.02 72.2594 137.679 72.0434 136.36 71.9759C135.724 71.9433 135.085 71.9038 134.457 71.8093C132.174 71.4664 129.899 71.378 127.591 71.6314ZM118.241 76.7459C118.149 76.7859 118.044 76.8096 117.965 76.8686C117.485 77.2298 117.055 77.6908 116.525 77.9448C115.667 78.3561 115.821 79.0085 115.937 79.6919C115.954 79.7906 116.019 79.8832 116.026 79.9811C116.059 80.4888 116.08 80.9974 116.105 81.5057C116.22 82.2178 117.095 82.2178 117.673 82.083C117.782 81.6642 117.937 81.2513 117.992 80.8255C118.121 79.8332 118.204 78.0173 118.298 77.0207C118.306 76.9317 118.261 76.8376 118.241 76.7459ZM86.6078 30.8681C86.7598 31.0522 86.6445 31.4745 86.6113 31.7877C86.5902 31.9869 86.4425 32.1833 86.4554 32.3739C86.6052 34.58 86.8316 36.7824 86.9222 38.9905C87.0029 40.9591 86.9358 42.9337 86.9432 44.9056C86.9442 45.1651 86.9734 45.6416 87.0351 45.6492C87.5195 45.7092 88.0153 45.6863 88.5062 45.6609C88.5379 45.6592 88.5894 45.4208 88.5766 45.2983C88.5387 44.9358 88.4569 44.5778 88.4209 44.2152C88.1966 41.9511 87.9078 39.6902 87.7829 37.4205C87.6763 35.4818 87.724 33.5312 87.7999 31.5896C87.8115 31.2919 88.3234 30.8089 88.6392 30.7785C89.0583 30.7382 89.2998 31.1547 89.2538 31.6787C89.1965 32.3309 89.1912 32.9964 89.2489 33.6486C89.4448 35.8604 89.6749 45.0322 89.7516 45.5769C89.7592 45.631 90.0243 45.6791 90.17 45.6793C94.196 45.6848 98.2224 45.7164 102.248 45.6688C104.038 45.6476 105.827 45.4569 107.617 45.3576C108.853 45.2891 110.098 45.3071 111.327 45.1789C114.757 44.8212 118.192 44.6878 121.641 44.6704C123.381 44.6616 125.118 44.345 126.86 44.2103C129.282 44.023 131.706 43.82 134.133 43.7258C137.093 43.6109 140.057 43.5919 143.02 43.5578C143.472 43.5526 143.68 43.5263 143.656 42.9682C143.562 40.7741 143.537 38.5773 143.473 36.3818C143.43 34.8704 143.373 33.3594 143.307 31.8489C143.288 31.4133 143.416 31.2086 143.896 31.2086C144.394 31.2086 144.46 31.4514 144.47 31.8675C144.504 33.3242 144.407 34.8099 144.665 36.2295C145.049 38.3527 144.89 40.4706 144.956 42.5912C144.981 43.4017 145.362 43.7022 146.13 43.5499C146.487 43.479 146.851 43.3902 147.211 43.3898C154.716 43.3805 162.22 43.3694 169.724 43.3903C172.221 43.3973 178.806 43.4841 181.302 43.5527C181.965 43.5709 182.628 43.6435 183.288 43.7151C183.986 43.7908 184.533 44.5113 184.539 45.3705C184.549 46.8494 184.542 48.3284 184.542 49.8073C184.542 49.9442 184.535 50.0816 184.543 50.218C184.568 50.6229 184.76 51.2769 184.596 51.3829C184.191 51.6442 183.627 51.73 183.122 51.7522C180.046 51.8868 172.882 52.0163 169.804 52.0852C165.856 52.1735 161.907 52.2085 157.959 52.2563C152.942 52.3169 147.925 52.3581 142.909 52.4265C140.877 52.4542 138.846 52.5274 136.815 52.5877C135.194 52.6359 133.574 52.7032 131.953 52.749C129.757 52.8109 127.562 52.8658 125.366 52.9137C122.595 52.9742 119.824 53.0221 117.053 53.0802C114.611 53.1314 112.169 53.189 109.727 53.2438C107.284 53.2986 104.841 53.33 102.4 53.4151C100.199 53.4918 97.9983 53.6136 95.799 53.7417C94.3639 53.8254 92.9281 53.9234 91.4989 54.0739C89.751 54.258 88.0117 54.5222 86.2647 54.7168C84.999 54.8578 83.7288 54.9804 82.4573 55.0437C79.7378 55.1792 77.0141 55.2363 74.2961 55.3934C72.6894 55.4863 62.9176 55.7348 61.3118 55.8586C60.7941 55.8985 60.2526 55.8074 59.7428 55.6878C59.5356 55.6392 59.2594 55.3744 59.2279 55.1744C59.0721 54.1863 58.9739 53.1883 58.8824 52.1913C58.8067 51.3669 58.7119 50.5376 58.7323 49.7131C58.7477 49.0895 58.9189 48.4924 58.7788 47.8349C58.7376 47.6415 59.4479 47.0969 59.8632 47.0327C61.1728 46.8303 70.6839 46.8097 72.0037 46.6622C73.6698 46.4759 75.3294 46.2324 76.9926 46.0187C77.1539 45.998 77.3201 46.0187 77.4836 46.0116C80.0127 45.9032 82.5413 45.778 85.0713 45.6983C85.5065 45.6846 85.465 45.4866 85.4631 45.203C85.4555 44.1076 85.4386 43.0115 85.4661 41.9167C85.493 40.8434 85.5695 39.7714 85.6243 38.6166C85.4114 37.0068 85.158 35.4832 85.0011 33.9498C84.9098 33.0573 84.9219 32.1445 85.0002 31.2507C85.0219 31.0034 85.4171 30.6667 85.6963 30.5986C85.975 30.5307 86.4336 30.6572 86.6078 30.8681ZM170.023 44.5429C162.159 44.5733 154.294 44.6341 146.43 44.7012C142.426 44.7353 138.422 44.764 134.421 44.8806C132.487 44.937 130.559 45.204 128.627 45.3516C126.286 45.5304 123.944 45.685 121.602 45.8473C120.748 45.9065 119.894 45.9563 119.041 46.0126C116.562 46.1763 114.085 46.3842 111.604 46.4934C109.109 46.6031 106.611 46.615 103.949 46.6698C103.315 46.7246 102.681 46.8197 102.046 46.8278C96.838 46.8938 91.6294 46.9187 86.4221 47.0103C84.2206 47.049 82.0212 47.2156 79.8211 47.3281C78.8576 47.3774 77.893 47.4162 76.9318 47.4955C74.4199 47.7028 63.7356 47.936 61.2238 48.1444C60.631 48.1936 60.2907 48.341 60.3398 49.0708C60.4503 50.7149 60.4924 52.3651 60.5058 54.0133C60.5097 54.4971 60.644 54.6039 61.093 54.5658C62.607 54.4373 72.2982 54.3379 73.8139 54.2303C75.3842 54.1189 76.9538 53.9958 78.5253 53.9048C80.6699 53.7807 82.8163 53.6867 84.9612 53.5673C85.2693 53.5501 85.5717 53.4498 85.8796 53.4104C87.2075 53.2407 88.5345 53.0599 89.8657 52.9207C91.1596 52.7854 92.4568 52.6738 93.755 52.591C96.5615 52.4118 99.3681 52.2217 102.178 52.1041C104.7 51.9985 107.225 51.9852 109.75 51.9286C112.11 51.8757 114.469 51.8155 116.829 51.7657C119.627 51.7066 122.425 51.648 125.224 51.602C128.98 51.5403 132.737 51.4995 136.493 51.4322C138.36 51.3988 140.227 51.3295 142.094 51.2707C143.687 51.2205 145.28 51.142 146.873 51.1113C150.411 51.0434 153.948 50.9938 157.486 50.9439C161.68 50.8848 165.876 50.8596 170.07 50.7696C173.01 50.7064 180.037 50.5644 182.976 50.4347C183.119 50.4284 183.371 50.2039 183.373 50.0769C183.402 48.6808 183.39 47.2839 183.392 45.8872C183.393 45.2954 183.05 44.9612 182.517 44.8733C181.89 44.7701 181.25 44.7231 180.615 44.7029C178.447 44.6342 172.191 44.5345 170.023 44.5429ZM147.266 29.9959C147.464 32.858 147.672 35.7198 147.926 38.5773C148.008 39.5005 148.217 40.4153 148.411 41.3249C148.579 42.1113 148.115 42.663 147.132 42.6843C146.927 42.0828 146.691 41.532 146.613 40.9598C146.454 39.7822 146.325 38.5952 146.281 37.4084C146.189 34.9457 146.159 32.4806 146.106 30.0165C146.098 29.6408 146.024 29.2566 146.629 29.2354C147.235 29.2141 147.235 29.5404 147.266 29.9959Z" fill="#00160A"/>
<path fill-rule="evenodd" clip-rule="evenodd" d="M118.023 192.907C114.774 201.047 101.563 191.129 99.9069 185.292C99.286 183.103 103.54 178.619 105.668 180.392C109.457 183.55 109.185 188.557 115.01 189.811C115.877 189.998 117.742 189.97 118.585 190.212C119.018 190.337 118.831 191.235 118.023 192.907Z" fill="#4EAD8B"/>
<path fill-rule="evenodd" clip-rule="evenodd" d="M171.108 153.333C171.487 155.167 171.819 156.919 171.78 158.729C171.756 159.8 171.863 160.875 171.932 161.947C172.128 164.996 170.723 167.136 168.256 168.791C166.564 169.926 165.035 171.303 163.363 172.472C161.958 173.454 160.484 174.349 158.984 175.179C155.951 176.858 152.844 178.43 151.465 181.935C150.826 183.56 149.977 185.147 149.638 186.834C149.246 188.783 149.604 190.721 151.398 192.053C151.459 192.099 151.489 192.189 151.552 192.232C151.83 192.419 152.13 192.752 152.394 192.727C152.597 192.708 152.786 192.25 152.932 191.962C153.256 191.319 152.959 190.751 152.813 190.104C152.593 189.125 152.766 188.055 152.795 187.024C152.798 186.913 152.958 186.805 153.044 186.696C153.094 186.827 153.176 186.954 153.188 187.088C153.254 187.804 153.236 188.535 153.38 189.233C153.485 189.741 153.744 190.24 154.03 190.681C154.326 191.139 155.323 190.921 155.486 190.368C155.788 189.344 155.735 188.317 155.515 187.27C155.404 186.74 155.493 186.164 155.526 185.611C155.531 185.529 155.723 185.458 155.828 185.381C155.881 185.481 155.967 185.587 155.979 185.68C156.468 189.46 157.182 189.46 157.475 189.572C157.769 189.683 158.144 189.533 158.281 189.46C158.453 189.369 158.582 189.067 158.605 188.844C158.691 187.993 158.587 187.098 158.816 186.294C159.112 185.257 159.561 184.232 160.131 183.318C160.509 182.711 161.2 182.292 161.775 181.818C163.271 180.585 164.823 179.438 166.708 178.856C168.044 178.442 169.391 178.064 170.729 177.655C173.038 176.95 175.388 176.352 177.639 175.493C181.148 174.153 183.763 171.828 184.56 167.985C184.997 165.878 184.661 163.754 183.865 161.77C183.234 160.198 182.379 158.717 181.63 157.192C181.553 157.037 181.524 156.858 181.473 156.691C181.609 156.779 181.768 156.845 181.876 156.959C183.787 158.963 185.051 161.338 185.635 164.022C186.261 166.899 186.463 169.81 185.048 172.543C184.738 173.143 184.105 173.625 183.528 174.027C181.784 175.237 179.836 176.053 177.842 176.751C175.521 177.564 173.238 178.587 170.847 179.066C168.541 179.529 166.541 180.595 164.419 181.433C163.115 181.947 162.406 183.143 161.384 183.974C160.306 184.851 159.996 185.924 160.092 187.22C160.12 187.601 160.081 187.987 160.099 188.369C160.213 190.83 158.99 191.052 157.137 190.322C157.058 190.29 156.829 190.396 156.823 190.454C156.67 191.842 155.877 192.521 154.611 192.068C154.066 191.874 154.094 192.24 154.04 192.368C153.483 193.702 152.119 194.133 151.184 193.102C150.214 192.031 149.312 190.846 148.649 189.572C148.32 188.94 148.472 187.972 148.619 187.196C148.87 185.871 149.209 184.549 149.655 183.276C150.245 181.591 151.214 180.118 152.338 178.71C153.487 177.274 154.918 176.244 156.468 175.375C158.595 174.183 160.691 172.946 162.672 171.528C163.484 170.947 164.173 170.196 164.971 169.594C166.025 168.799 167.133 168.076 168.215 167.319C169.691 166.285 170.701 165.049 170.652 163.069C170.619 161.745 171.05 160.415 171.078 159.083C171.106 157.762 170.872 156.437 170.786 155.112C170.745 154.476 170.774 153.834 170.784 153.195C170.785 153.081 170.844 152.969 170.877 152.855C170.954 152.987 171.031 153.119 171.108 153.333Z" fill="#00160A"/>
<path fill-rule="evenodd" clip-rule="evenodd" d="M9.22292 64.2553C9.30033 64.0862 9.44504 63.9225 9.44569 63.9231C11.1354 65.4051 12.2031 67.2503 12.8767 69.3987C13.1667 70.3235 13.8063 71.1686 14.4057 71.96C15.5364 73.4529 16.7565 74.878 17.9213 76.3456C17.9674 76.4036 17.8675 76.6754 17.7681 76.7352C17.1 77.1365 15.9063 76.9228 15.1873 76.197C14.5738 75.5776 14.0345 74.8806 13.4968 74.1912C12.6898 73.1565 11.5597 72.7481 10.3453 72.4711C8.41402 72.0306 6.97585 70.844 5.77713 69.3465C3.75495 66.8201 2.90888 63.8298 2.49291 60.6902C2.39226 59.9305 2.23394 59.1236 2.38475 58.397C2.69635 56.8959 4.03785 56.0751 5.71684 56.5678C8.72993 57.452 11.7277 58.4367 14.6335 59.6209C16.5223 60.3906 17.2757 62.1721 17.6281 64.1527C17.9256 65.8252 17.5552 67.3334 16.8946 68.8191C16.6659 69.3334 16.6256 69.3145 16.2884 68.8323C15.6301 67.8911 15.4632 66.7817 15.6668 65.7424C16.1141 63.459 15.0834 61.6575 13.2662 60.9743C11.1568 60.1813 9.0535 59.3595 6.9044 58.6885C4.77733 58.0244 4.80676 58.1678 5.19971 60.2301C5.73251 63.0265 6.75479 65.7518 7.78924 68.4215C8.34084 69.8451 9.4811 70.9145 11.0962 71.347C11.6705 71.5008 11.5916 71.1789 11.5098 70.9469C11.1227 69.8497 10.7109 68.7596 10.2614 67.6864C9.80679 66.6009 9.1655 65.5796 9.22292 64.2553Z" fill="#4F2222"/>
<path fill-rule="evenodd" clip-rule="evenodd" d="M175.997 150.745C173.892 150.095 171.916 150.387 169.943 151.166C169.48 151.349 168.832 151.243 168.334 151.076C168.105 150.999 168.825 149.767 169.403 149.548C170.089 149.287 170.794 149 171.513 148.916C173.705 148.66 175.736 149.245 177.666 150.268C178.514 150.718 179.41 151.08 180.253 151.538C180.615 151.735 180.914 152.059 181.207 152.358C181.288 152.442 181.306 152.74 181.251 152.774C181.116 152.857 180.894 152.912 180.755 152.857C179.887 152.513 179.028 152.144 178.174 151.767C177.457 151.451 176.75 151.114 175.997 150.745Z" fill="#00160A"/>
<path fill-rule="evenodd" clip-rule="evenodd" d="M111.079 33.9737C109.653 34.961 108.304 35.9635 106.875 36.8381C105.316 37.7927 103.695 38.6485 102.073 39.4944C101.841 39.6154 101.276 39.5435 101.178 39.377C101.008 39.0865 100.945 38.6876 101.492 38.4289C102.455 37.9727 103.373 37.4065 104.27 36.8251C105.655 35.928 107.001 34.9721 108.373 34.0553C109.118 33.5567 109.851 33.0174 110.656 32.6383C110.985 32.4837 111.744 32.5623 111.867 32.7819C112.236 33.4381 111.662 33.727 111.079 33.9737Z" fill="#E7EAEE"/>
<path fill-rule="evenodd" clip-rule="evenodd" d="M121.269 137.021C121.748 136.596 122.181 136.206 122.628 135.833C122.759 135.724 122.931 135.665 123.085 135.583C123.15 135.725 123.254 135.862 123.276 136.01C123.417 136.99 123.434 138.031 124.345 138.682C124.731 138.959 125.184 139.247 125.636 139.308C127.319 139.536 129.308 139.363 130.458 137.56C130.923 136.83 130.78 136.086 130.854 135.335C130.874 135.136 131.008 134.818 131.145 134.785C131.699 134.653 131.504 135.125 131.488 135.352C131.425 136.258 131.657 137.152 131.043 138.048C130.301 139.132 129.324 139.823 128.141 139.97C126.981 140.114 125.759 140.198 124.579 139.712C123.523 139.277 123.016 138.512 122.787 137.469C122.756 137.331 122.699 137.198 122.655 137.062C122.547 137.133 122.44 137.204 122.331 137.273C121.187 138.004 120.099 138.883 118.64 138.851C118.432 138.846 118.228 138.583 118.023 138.44C118.21 138.364 118.398 138.292 118.583 138.212C119.465 137.83 120.346 137.446 121.269 137.021Z" fill="#00160A"/>
<path fill-rule="evenodd" clip-rule="evenodd" d="M156.111 34.4668C157.07 33.6177 157.967 32.7848 158.918 32.0182C159.173 31.8129 159.587 31.7579 159.935 31.7375C160.09 31.7283 160.395 31.9724 160.396 32.1047C160.4 32.3567 160.305 32.6922 160.125 32.8481C159.699 33.2169 159.165 33.4601 158.737 33.8266C157.339 35.0237 155.985 36.2733 154.567 37.4469C154.373 37.6078 153.828 37.5758 153.604 37.4139C153.303 37.1959 153.419 36.7954 153.714 36.5379C154.496 35.8569 155.284 35.184 156.111 34.4668Z" fill="#E7EAEE"/>
<path fill-rule="evenodd" clip-rule="evenodd" d="M129.527 180.615C128.725 180.725 128.008 180.884 127.284 180.931C126.43 180.986 125.566 180.993 124.716 180.916C124.442 180.891 124.197 180.534 123.939 180.329C124.192 180.205 124.433 180.014 124.699 179.969C126.109 179.73 127.52 179.458 128.943 179.333C130.144 179.227 131.363 179.291 132.573 179.318C132.711 179.321 132.946 179.561 132.95 179.697C132.955 179.835 132.748 180.078 132.601 180.106C131.609 180.301 130.608 180.451 129.527 180.615Z" fill="#00160A"/>
<path fill-rule="evenodd" clip-rule="evenodd" d="M70.5667 33.8916C70.8992 33.6314 71.1625 33.3304 71.4905 33.2177C71.7795 33.1183 72.376 33.139 72.4244 33.265C72.5521 33.5976 72.6124 33.9701 72.15 34.3224C70.7423 35.3951 69.418 36.577 68.0572 37.7116C67.9206 37.8254 67.7618 37.9763 67.6045 37.9877C67.3287 38.0077 66.8985 38.0266 66.8021 37.875C66.67 37.6671 66.6652 37.1592 66.82 37.0228C68.0262 35.9599 69.2838 34.9553 70.5667 33.8916Z" fill="#E7EAEE"/>
<path fill-rule="evenodd" clip-rule="evenodd" d="M159.768 37.6305C160.876 36.6587 162.004 35.7913 163.084 34.8676C163.477 34.5318 163.879 34.2763 164.252 34.678C164.582 35.0339 164.381 35.466 164.004 35.7814C162.925 36.6842 161.875 37.6223 160.765 38.4847C160.551 38.6513 160.118 38.5378 159.787 38.5535C159.78 38.2733 159.774 37.993 159.768 37.6305Z" fill="#E7EAEE"/>
<path fill-rule="evenodd" clip-rule="evenodd" d="M122.501 140.473C122.789 140.843 123.243 141.177 123.235 141.5C123.223 142.042 123.063 142.607 122.437 142.951C121.514 143.459 120.731 143.259 119.974 142.7C119.314 142.213 119.348 141.338 120.013 140.414C120.29 140.029 121.363 139.875 121.845 140.141C122.043 140.251 122.255 140.336 122.501 140.473ZM122.296 140.925C122.07 140.809 121.855 140.663 121.618 140.583C121.066 140.398 120.629 140.531 120.33 141.075C120.038 141.607 120.297 141.99 120.691 142.248C120.952 142.418 121.347 142.513 121.649 142.459C121.98 142.4 122.389 142.199 122.544 141.932C122.664 141.726 122.446 141.322 122.296 140.925Z" fill="#00160A"/>
<path fill-rule="evenodd" clip-rule="evenodd" d="M112.722 38.0825C113.421 37.6583 114.059 37.2346 114.747 36.9195C114.928 36.8367 115.489 37.0951 115.487 37.1884C115.479 37.5567 115.432 38.0734 115.189 38.2583C114.568 38.7308 113.858 39.1148 113.132 39.4072C112.864 39.5154 112.253 39.37 112.148 39.1628C111.927 38.7296 112.148 38.2917 112.722 38.0825Z" fill="#E7EAEE"/>
</svg>
