<svg width="19" height="20" viewBox="0 0 19 20" fill="none" xmlns="http://www.w3.org/2000/svg">
<path d="M2.00305 20H16.0031C17.1061 20 18.0031 19.103 18.0031 18V8.99999C18.0032 8.86865 17.9774 8.73858 17.9271 8.61725C17.8768 8.49592 17.803 8.38573 17.7101 8.29299L9.71005 0.292987C9.61726 0.200042 9.50706 0.126304 9.38575 0.0759932C9.26443 0.0256825 9.13439 -0.000213623 9.00305 -0.000213623C8.87172 -0.000213623 8.74167 0.0256825 8.62036 0.0759932C8.49904 0.126304 8.38884 0.200042 8.29605 0.292987L0.296052 8.29299C0.203054 8.38573 0.129296 8.49592 0.0790134 8.61725C0.0287313 8.73858 0.00291662 8.86865 0.00305229 8.99999V18C0.00305229 19.103 0.900052 20 2.00305 20ZM7.00305 18V13H11.0031V18H7.00305ZM2.00305 9.41399L9.00305 2.41399L16.0031 9.41399L16.0041 18H13.0031V13C13.0031 11.897 12.1061 11 11.0031 11H7.00305C5.90005 11 5.00305 11.897 5.00305 13V18H2.00305V9.41399Z" fill="white"/>
</svg>
