<svg width="335" height="346" viewBox="0 0 335 346" fill="none" xmlns="http://www.w3.org/2000/svg">
<ellipse cx="152.436" cy="60.2368" rx="17.4199" ry="20.7216" fill="white"/>
<path fill-rule="evenodd" clip-rule="evenodd" d="M9.75761 319.671C4.39654 322.359 -0.00547588 325.589 1.63475 329.604C4.49304 336.601 13.4732 339.181 23.685 341.244C37.9714 344.13 57.8026 344.492 83.4614 343.376C126.354 341.511 121.489 337.406 162.193 335.476C189.895 334.162 237.948 341.457 276.496 341.325C300.08 341.244 402.943 312.812 256.921 306.5C110.9 300.187 30.5865 309.226 9.75761 319.671Z" fill="white"/>
<path fill-rule="evenodd" clip-rule="evenodd" d="M9.75761 319.671C4.39654 322.359 -0.00547588 325.59 1.63475 329.605C4.49304 336.601 123.258 314.059 163.962 312.129C191.664 310.815 233.893 319.803 272.441 319.671C296.025 319.59 349.88 314.799 256.921 306.5C163.962 298.201 30.5865 309.227 9.75761 319.671Z" fill="#4EAD8B"/>
<path fill-rule="evenodd" clip-rule="evenodd" d="M86.3054 305.522C47.4165 308.159 20.5151 312.842 9.18263 318.524C6.0113 320.114 3.69243 321.625 2.1413 323.256C0.139137 325.36 -0.538175 327.678 0.447176 330.09C1.93142 333.723 4.92148 336.403 9.36792 338.441C12.8334 340.029 16.9496 341.179 23.0316 342.421L23.4311 342.502C37.0856 345.26 56.0315 345.854 83.5172 344.658L85.7915 344.556C101.731 343.818 110.111 342.913 122.505 340.934L125.888 340.388C138.33 338.391 146.119 337.534 161.681 336.785L162.984 336.724C173.915 336.247 183.997 336.763 211.827 338.972L227.614 340.234C231.211 340.516 234.263 340.746 237.341 340.967L240.617 341.197C254.479 342.148 265.742 342.627 275.964 342.609L276.501 342.608C282.574 342.587 293.559 340.756 304.244 337.979L305.079 337.76C316.712 334.68 326.223 330.965 331.087 327.271C337.761 322.202 335.938 316.968 325.31 313.378C313.805 309.491 291.398 306.706 256.977 305.218C188.512 302.258 130.73 302.509 86.3054 305.522ZM256.866 307.782L258.903 307.872C291.943 309.371 313.502 312.097 324.489 315.808L324.986 315.98C329.388 317.525 331.76 319.169 332.291 320.694C332.722 321.931 331.873 323.452 329.535 325.228C325.009 328.665 315.746 332.281 304.412 335.282L303.599 335.495C293.24 338.188 282.592 339.975 276.721 340.04L276.492 340.042C265.665 340.079 253.661 339.55 238.587 338.483L233.683 338.126C230.534 337.891 227.174 337.628 223.032 337.296L212.939 336.486C183.653 334.156 173.625 334.676 162.132 335.221L159.867 335.332C145.311 336.068 137.556 336.943 125.485 338.88L121.677 339.494C109.177 341.479 100.744 342.356 83.9805 343.096L83.4058 343.121C56.3854 344.296 37.7159 342.705 24.3427 340.067L23.9391 339.987C11.1507 337.404 3.66671 335.495 1.49022 329.17C0.589226 326.552 4.26801 323.859 10.3327 320.818C21.2639 315.336 47.92 310.697 86.479 308.081C130.801 305.075 188.49 304.826 256.866 307.782Z" fill="#00160A"/>
<path fill-rule="evenodd" clip-rule="evenodd" d="M137.691 50.2289C140.753 42.9027 149 38.1153 156.887 39.086C151.813 36.4037 145.931 32.2113 146.858 26.5512C147.571 22.1991 152.237 19.5613 156.615 19C163.048 18.1751 170.313 21.0945 172.823 27.0704C175.332 33.0463 170.855 41.3079 164.374 41.0539C169.827 46.4439 171.805 55.0628 169.249 62.2883C167.965 65.9163 162.41 66.1279 159.568 63.5314C156.725 60.9349 155.909 56.8535 155.246 53.0629C152.049 55.1351 148.34 56.4126 144.544 56.7493C146.335 57.3518 147.839 58.7546 148.564 60.4982C145.403 58.032 141.713 56.2466 137.816 55.2982C136.399 60.0563 134.967 64.9888 135.62 69.91C136.272 74.8311 139.605 79.763 144.496 80.6337C155.583 82.6073 163.175 63.444 174.389 64.4733C179.008 64.8973 182.499 62.846 184.175 58.5251C185.851 54.2041 184.333 48.8596 180.635 46.0627C178.436 46.1655 176.323 44.3389 176.109 42.1506C175.894 39.9623 177.613 37.7608 179.789 37.4354C175.168 30.8533 176.331 20.881 182.343 15.5371C188.355 10.1931 198.403 10.1996 204.408 15.5513C201.12 10.2474 204.237 2.23426 210.205 0.400608C216.174 -1.43304 223.179 3.27572 223.878 9.47555C224.576 15.6754 218.967 21.769 212.723 21.744C213.762 26.5417 218.159 30.4112 223.053 30.8361C220.961 33.2534 216.953 30.9753 215.219 28.29C213.485 25.6047 211.839 22.1139 208.654 21.8166C212.566 26.4243 215.148 32.1475 216.011 38.1282C213.315 33.9458 211.383 29.2733 210.339 24.4091C210.721 28.2997 209.993 32.293 208.264 35.7996C210.301 34.8204 212.551 37.4159 212.223 39.6508C211.896 41.8858 210.098 43.5667 208.495 45.1592C203.931 49.6918 199.968 56.576 202.979 62.2584C205.007 66.0876 209.441 67.8127 213.097 70.1427C220.976 75.1645 225.926 83.8685 228.319 92.8953C230.713 101.922 230.83 111.374 230.933 120.711C231.152 140.697 231.372 160.683 231.592 180.669C231.664 187.258 231.314 194.8 226.201 198.963C229.327 194.627 230.679 189.051 229.884 183.767C224.635 201.516 220.51 219.262 219.074 239.834C217.637 260.406 220.478 269.026 214.437 297.074C213.893 299.599 215.082 302.576 216.585 304.991C219.21 309.21 229.124 311.573 227.23 315.018C224.815 319.412 214.23 318.379 207.556 318.073C204.812 317.948 201.863 317.498 199.899 315.58C197.457 313.195 197.319 309.382 197.327 305.97C197.412 269.754 196.034 233.534 193.197 197.428C192.655 225.396 192.109 253.428 188.572 281.177C187.575 288.994 185.559 297.174 185.873 304.991C186.044 309.245 188.02 313.805 188.707 318.073C189.253 321.462 186.792 322.627 184.175 322.436C183.481 322.386 182.931 322.966 182.219 322.921C181.628 322.884 181.03 322.483 180.361 322.436C179.646 322.386 178.855 322.688 178.087 322.627C177.513 322.582 177.383 322.106 176.352 322.106C175.321 322.106 175.014 322.426 173.984 322.263C172.954 322.101 171.083 323.377 170.146 321.967C168.45 319.417 172.823 312.584 172.564 309.025C172.306 305.466 170.95 294.124 170.843 291.112C169.92 265.082 164.219 215.422 164.219 215.422C164.219 215.422 160.891 254.889 149.652 278.622C146.864 284.509 143.066 294.197 146.858 299.187C150.651 304.178 148.474 308.604 149.831 313.687C150.915 317.748 153.62 321.222 153.87 326.053C153.993 328.438 150.474 327.929 150.128 327.684C149.783 327.44 149.197 326.044 148.904 326.163C148.465 326.342 149.626 327.589 148.242 328.45C146.858 329.311 146.307 328.364 145.65 328.647C145.009 328.923 144.669 329.782 143.941 329.659C142.466 329.409 142.384 328.825 142.229 328.876C142.068 328.929 142.306 329.843 141.701 330.017C141.097 330.191 139.346 329.43 138.99 329.084C138.47 328.578 138.658 330.42 137.961 330.331C135.117 329.968 134.144 327.358 134.406 325.807C132.913 329.388 130.845 331.737 127.213 333.035C126.39 333.33 125.95 332.405 125.532 332.452C125.303 332.478 125.723 333.207 125.037 333.429C124.351 333.652 124.02 333.568 123.152 333.31C122.283 333.053 122.506 330.866 122.294 330.866C122.081 330.866 122.092 331.994 121.712 332.312C120.983 332.923 120.565 332.977 119.933 332.15C119.579 331.686 119.993 330.918 119.742 330.866C119.571 330.83 119.249 331.756 118.664 331.895C117.641 332.138 117.306 332.231 116.525 331.174C116.184 330.712 116.83 329.427 116.419 329.311C116.007 329.195 115.496 331.338 114.964 331.737C114.431 332.135 114.076 331.791 113.595 331.427C110.933 326.36 114.787 320.531 117.445 315.461C124.96 301.129 123.072 283.729 119.012 268.065C114.952 252.402 108.882 236.984 108.564 220.807C108.44 214.505 109.197 208.163 108.33 201.92C107.386 195.121 104.561 188.75 102.503 182.201C98.5923 169.76 97.4424 156.628 96.9312 143.598C96.5286 133.338 96.5256 122.912 99.2186 113.002C101.912 103.093 107.61 93.6334 116.419 88.3448C121.913 85.0464 128.724 83.1929 132.272 77.8596C135.591 72.8704 135.011 66.3477 134.305 60.3987C131.956 59.9722 130.213 57.4376 130.658 55.0941C131.102 52.7505 133.651 51.0279 135.993 51.4888C134.978 49.5056 133.963 47.5224 132.948 45.5392C133.598 46.4832 136.733 52.1383 136.536 44.9095C136.784 46.7052 137.225 47.2497 137.691 50.2289Z" fill="white"/>
<path fill-rule="evenodd" clip-rule="evenodd" d="M124.156 177.878C123.14 178.466 121.823 179.229 120.978 178.432C118.667 176.254 114.817 175.967 112.187 177.726L112.03 177.835L111.905 179.311C114.535 177.333 118.583 177.559 120.978 179.816C121.736 180.531 122.875 179.99 123.836 179.446L124.374 179.139C127.081 177.664 130.643 177.903 133.119 179.744C134.504 180.775 136.171 180.125 137.896 179.452C139.337 178.889 140.82 178.311 142.213 178.683C142.865 178.857 143.508 179.233 144.137 179.6C145.291 180.274 146.402 180.923 147.445 180.261C149.512 178.95 152.368 179.016 154.371 180.422L154.19 179.351L154.111 178.865C152.126 177.629 149.424 177.621 147.445 178.877C146.402 179.539 145.291 178.89 144.137 178.216C143.508 177.848 142.865 177.473 142.213 177.299C140.82 176.927 139.337 177.505 137.896 178.067C136.171 178.74 134.504 179.39 133.119 178.36C130.592 176.481 126.935 176.271 124.209 177.847L124.156 177.878ZM124.137 193.618C123.144 194.245 121.857 195.057 120.982 194.293C118.59 192.206 111.949 195.52 111.949 195.52C112.349 195.7 113.266 195.513 114.397 195.283C116.527 194.85 119.415 194.263 121.035 195.677C121.821 196.363 122.938 195.778 123.877 195.198L124.403 194.87C127.051 193.292 130.619 193.394 133.164 195.139C134.588 196.115 136.228 195.402 137.927 194.663C139.345 194.046 140.804 193.411 142.212 193.73C142.869 193.879 143.526 194.229 144.169 194.572C145.348 195.202 146.483 195.807 147.5 195.106L147.642 195.011C148.803 194.26 151.369 194.728 153.695 195.151C155.387 195.459 156.952 195.744 157.757 195.52C157.757 195.52 149.376 192.392 147.447 193.722C146.43 194.424 145.295 193.818 144.116 193.189C143.473 192.846 142.816 192.495 142.158 192.347C140.751 192.028 139.292 192.663 137.873 193.28C136.175 194.019 134.535 194.732 133.111 193.756C130.514 191.976 126.852 191.906 124.189 193.586L124.137 193.618ZM124.966 136.728C124.057 137.382 122.63 137.787 121.941 136.906C119.776 134.137 114.725 134.595 113.094 137.707C115 136.651 117.248 135.568 119.265 136.394C119.827 136.624 120.342 136.994 120.852 137.361C121.701 137.971 122.535 138.57 123.543 138.493C124.292 138.435 124.938 138.001 125.582 137.57C126.272 137.107 126.959 136.646 127.765 136.655C128.661 136.665 129.39 137.247 130.119 137.83C130.846 138.411 131.574 138.991 132.466 139.006C133.197 139.018 133.862 138.639 134.521 138.264C135.258 137.845 135.987 137.43 136.791 137.569C137.752 137.735 138.329 138.593 138.906 139.452C139.481 140.306 140.055 141.161 141.009 141.337C141.574 141.441 142.134 141.268 142.679 141.059L143.22 140.845C144.495 140.349 145.917 140.074 147.231 140.456C148.359 140.784 149.364 141.697 149.63 142.814C149.614 142.566 149.595 142.319 149.573 142.072L149.54 140.661C148.094 139.466 146.07 139.002 144.248 139.45C143.935 139.526 143.627 139.628 143.32 139.73C142.728 139.926 142.137 140.121 141.518 140.136C140.577 140.158 139.509 139.543 139.502 138.602L139.499 138.501C139.397 136.942 137.192 136.426 135.64 136.833C135.31 136.919 134.975 137.024 134.638 137.13C133.355 137.532 132.042 137.943 130.878 137.37C130.428 137.149 130.048 136.794 129.671 136.444C129.145 135.953 128.626 135.469 127.932 135.364C127.08 135.236 126.321 135.725 125.603 136.256L124.966 136.728ZM113.169 125.521C113.788 124.041 113.772 122.405 113.698 121.096C113.698 121.096 112.623 122.987 111.195 122.783L111.094 122.772C110.451 122.725 109.778 123.093 109.143 123.439C108.287 123.906 107.502 124.335 106.959 123.652C105.628 121.978 103.452 121.012 101.317 121.147C100.71 121.185 100.068 121.328 99.6475 121.766C99.2266 122.204 99.1553 123.011 99.638 123.38C100.132 122.144 101.858 121.907 103.093 122.407C103.796 122.692 104.414 123.136 105.032 123.581C105.499 123.917 105.966 124.253 106.471 124.522C107.647 125.147 109.298 125.296 110.148 124.272L110.215 124.197C110.879 123.499 112.162 123.513 112.795 124.248C113.095 124.597 113.212 125.065 113.169 125.521ZM119.141 106.67C117.691 107.322 116.089 106.175 115.009 105.008L114.492 104.452C113.539 103.446 112.46 102.474 111.12 102.546C110.397 102.585 109.731 102.939 109.111 103.313C107.26 104.43 105.57 105.811 104.105 107.4C105.526 107.52 106.709 106.543 107.881 105.575C109.112 104.558 110.331 103.551 111.8 103.835C112.921 104.052 113.702 104.962 114.48 105.87C115.279 106.803 116.076 107.733 117.238 107.903C118.008 108.015 118.763 107.754 119.509 107.495C119.69 107.432 119.871 107.37 120.052 107.313C123.638 106.178 127.853 107.396 130.279 110.269C131.387 111.58 133.455 110.958 135.023 110.166L135.454 109.943C137.022 109.152 139.096 108.54 140.194 109.86L140.298 109.981C142.062 111.953 145.158 111.781 147.847 111.326L148.326 111.242C148.354 111.402 148.381 111.578 148.408 111.767L148.461 112.162C149.04 110.133 148.812 109.669 148.326 110.744C147.456 109.965 145.758 110.202 144.617 110.458L144.513 110.48C143.386 110.708 141.953 110.618 141.533 109.567C140.763 107.643 137.952 107.912 136.036 108.705L135.789 108.807C133.912 109.569 131.581 110.31 130.219 108.867C127.463 105.948 122.803 105.024 119.141 106.67ZM149.112 104.576C149.133 103.93 149.201 103.161 149.324 102.287L149.355 102.075C148.034 101.251 146.358 101.019 144.863 101.453C143.633 101.81 142.596 100.962 141.534 100.093C140.588 99.3195 139.622 98.5295 138.482 98.5585C137.563 98.5819 136.809 99.1326 136.047 99.6898C135.431 100.14 134.809 100.594 134.089 100.778C132.336 101.227 130.723 100 129.289 98.7979L128.717 98.3161C127.145 96.9946 124.663 95.9267 123.203 97.3711L123.11 97.4587C121.879 98.5591 119.867 98.1682 118.412 97.3392C117.951 97.0766 117.505 96.7768 117.06 96.4774C116.065 95.8075 115.072 95.1392 113.911 94.8911C112.231 94.5321 110.065 95.6814 110.291 97.383C111.523 96.0793 113.595 95.6533 115.241 96.3653C116.017 96.7006 116.74 97.2611 117.451 97.8125C118.747 98.8167 120.003 99.7908 121.469 99.321C121.914 99.1781 122.299 98.9088 122.686 98.6389C123.012 98.4105 123.34 98.1816 123.705 98.0286C125.557 97.2518 127.283 98.5715 129.029 99.9071C130.716 101.197 132.423 102.503 134.282 101.947C134.972 101.741 135.577 101.287 136.173 100.84C136.99 100.226 137.791 99.6245 138.775 99.6874C139.781 99.7517 140.556 100.499 141.297 101.215C141.346 101.262 141.394 101.308 141.442 101.354L141.646 101.549C142.498 102.345 143.784 103.028 144.776 102.415C146.366 101.432 148.511 102.796 149.112 104.576ZM150.516 96.765C150.842 96.374 151.148 95.8782 151.435 95.2777C151.822 94.4661 151.828 93.0692 151.435 93.8935C150.957 94.8944 149.852 95.6894 148.771 95.4353C148.296 95.3236 147.89 95.0318 147.485 94.7413C147.035 94.4182 146.588 94.0965 146.049 94.0258C145.44 93.9457 144.865 94.2037 144.293 94.4602C144.11 94.5425 143.926 94.6246 143.742 94.6954C142.986 94.9868 141.939 94.9885 141.568 94.2676C140.29 91.7821 136.314 91.3308 134.511 93.4665C133.768 94.3464 132.291 93.7823 131.51 92.9365C131.314 92.7254 131.129 92.4966 130.943 92.2674C130.384 91.5786 129.822 90.886 128.989 90.6566C128.049 90.398 127.139 90.8196 126.22 91.2455C125.391 91.6295 124.555 92.0171 123.682 91.9124C122.784 91.8046 122.073 91.2073 121.364 90.6126C121.125 90.4122 120.887 90.2121 120.641 90.0311C119.669 89.313 118.094 88.9651 117.394 89.9506C118.596 90.127 119.638 90.7735 120.682 91.4212C121.123 91.6945 121.564 91.9681 122.017 92.2066C123.545 93.0101 125.664 93.3218 126.812 92.0343L126.881 91.9623C127.728 91.1399 129.237 91.8153 130.054 92.7139C130.204 92.878 130.351 93.0511 130.5 93.2256C131.188 94.0338 131.902 94.8707 132.925 94.9633C133.843 95.0464 134.631 94.4915 135.42 93.936C136.205 93.3842 136.99 92.8319 137.902 92.9046C138.837 92.9791 139.525 93.6752 140.215 94.3729C140.892 95.0576 141.571 95.7438 142.485 95.8456C142.975 95.9003 143.457 95.7716 143.938 95.6428C144.139 95.589 144.34 95.5353 144.542 95.4948C146.42 95.1178 148.303 95.8914 150.048 96.7197L150.407 96.8915L150.516 96.765ZM115.958 113C116.228 113.148 116.486 113.395 116.515 113.721C116.545 114.046 116.218 114.387 115.948 114.24C114.896 113.666 113.624 114.111 112.565 114.671C112.441 114.737 112.316 114.804 112.191 114.872L112.191 114.872C111.249 115.382 110.277 115.907 109.241 115.812C108.343 115.729 107.509 115.191 106.694 114.665C105.611 113.965 104.56 113.287 103.433 113.725C102.862 113.946 102.434 114.419 102.003 114.894C101.684 115.247 101.362 115.602 100.979 115.858C100.87 115.931 100.745 115.998 100.618 115.977C100.268 115.92 100.284 115.361 100.436 115.015C101.422 112.771 104.231 111.722 106.289 112.829C106.647 113.022 106.984 113.269 107.319 113.515C107.897 113.94 108.471 114.363 109.15 114.499C110.249 114.721 111.321 114.14 112.331 113.593L112.331 113.593C112.4 113.555 112.469 113.518 112.537 113.481C113.607 112.906 114.893 112.415 115.958 113ZM124.482 115.904C126.016 116.741 128.031 116.64 129.47 115.655C130.494 114.954 131.917 115.546 132.882 116.323C133.073 116.476 133.262 116.638 133.451 116.801L133.451 116.801L133.451 116.801L133.451 116.801L133.451 116.801L133.451 116.801C134.219 117.463 135 118.134 135.99 118.275C136.798 118.389 137.577 118.125 138.362 117.859C139.01 117.639 139.662 117.417 140.336 117.408C141.462 117.392 142.473 117.957 143.468 118.513L143.468 118.513C143.681 118.632 143.894 118.751 144.106 118.863C145.31 119.5 146.861 119.936 147.985 119.17L142.855 117.012C142.148 116.714 141.421 116.412 140.652 116.381C139.952 116.352 139.267 116.55 138.585 116.746C137.796 116.974 137.012 117.2 136.213 117.075C135.208 116.919 134.416 116.252 133.628 115.589C133.368 115.37 133.109 115.152 132.843 114.952C131.768 114.147 130.079 113.68 129.172 114.665C128.361 115.545 126.918 115.516 125.792 115.085C125.259 114.88 124.758 114.605 124.257 114.329C123.701 114.023 123.144 113.717 122.544 113.509C121.403 113.114 119.941 113.187 119.223 114.142C119.153 114.454 119.529 114.706 119.853 114.687C120.061 114.676 120.254 114.598 120.448 114.52C120.557 114.476 120.666 114.432 120.778 114.4C121.762 114.115 122.66 114.719 123.553 115.319C123.862 115.527 124.171 115.735 124.482 115.904ZM150.682 165.333C150.269 166.397 148.808 166.556 147.811 166.061C147.227 165.771 146.732 165.336 146.236 164.899C145.885 164.59 145.533 164.28 145.149 164.021C144.221 163.397 142.863 163.143 142.092 163.965C140.177 166.007 137.139 166.828 134.507 166.016C133.499 165.705 132.574 165.183 131.647 164.661L131.647 164.661C131.128 164.369 130.608 164.076 130.073 163.82C128.584 163.107 126.812 162.689 125.326 163.41C124.759 163.686 124.278 164.106 123.797 164.527C123.384 164.887 122.971 165.248 122.502 165.519C120.914 166.438 118.866 166.17 117.299 165.213C117.031 165.049 116.77 164.865 116.51 164.682C115.916 164.263 115.323 163.844 114.634 163.661C113.642 163.397 112.344 163.903 112.236 164.958C111.539 163.908 112.66 162.401 113.886 162.303C115.112 162.204 116.226 162.978 117.234 163.708C118.242 164.439 119.375 165.195 120.597 165.055C121.62 164.937 122.414 164.238 123.218 163.529C123.764 163.049 124.314 162.564 124.944 162.254C127.034 161.222 129.489 162.278 131.53 163.411C133.57 164.544 135.853 165.806 138.079 165.149C138.956 164.89 139.716 164.356 140.476 163.822C140.77 163.615 141.064 163.408 141.365 163.218C142.444 162.534 143.795 162.042 144.956 162.563C145.465 162.792 145.873 163.188 146.282 163.585L146.282 163.585L146.282 163.585C146.467 163.765 146.652 163.944 146.846 164.108C147.91 165.007 149.316 165.455 150.682 165.333ZM161.499 207.727C160.309 209.265 157.901 208.74 156.079 208.055C154.258 207.37 151.87 206.809 150.641 208.317C149.943 209.174 148.562 209.038 147.596 208.501C147.181 208.27 146.8 207.984 146.419 207.697C145.912 207.316 145.407 206.936 144.825 206.69C142.56 205.733 140.094 207.063 137.894 208.249C137.763 208.32 137.633 208.39 137.504 208.459C135.208 209.689 131.971 210.472 130.312 208.466C129.178 207.095 126.974 207.441 125.379 208.232C125.056 208.392 124.732 208.567 124.408 208.743C123.134 209.432 121.841 210.131 120.428 210.006C119.174 209.896 118.043 209.149 116.937 208.418C115.533 207.491 114.167 206.588 112.636 207.043C112.155 207.186 111.721 207.459 111.29 207.73C110.743 208.074 110.199 208.415 109.567 208.487C109.568 206.919 111.284 205.804 112.853 205.831C114.355 205.858 115.728 206.613 117.05 207.34L117.226 207.437C118.602 208.193 120.109 208.924 121.668 208.745C122.745 208.621 123.697 208.082 124.651 207.542L124.651 207.542L124.651 207.542L124.651 207.542L124.651 207.542L124.651 207.541C125.062 207.309 125.473 207.076 125.894 206.876C127.294 206.212 129.203 206.011 130.193 207.202C131.482 208.753 133.899 208.784 135.799 208.104C136.696 207.783 137.543 207.339 138.389 206.895L138.389 206.895C139.334 206.399 140.278 205.903 141.292 205.58C143.214 204.967 145.661 205.182 146.78 206.859C147.466 207.887 149.022 207.813 150.162 207.334C150.479 207.201 150.791 207.044 151.104 206.888C151.914 206.483 152.724 206.078 153.616 206.073C154.565 206.067 155.487 206.512 156.388 206.948C157.585 207.527 158.746 208.088 159.886 207.55L161.499 207.727ZM136.026 151.813C134.736 152.039 133.579 151.347 132.407 150.646C131.401 150.045 130.383 149.436 129.259 149.396C127.922 149.348 126.722 150.104 125.534 150.854C124.226 151.679 122.932 152.496 121.484 152.219C120.909 152.109 120.388 151.83 119.865 151.552C119.606 151.413 119.346 151.274 119.079 151.156C117.079 150.269 114.602 150.625 112.921 152.04C113.243 150.551 114.734 149.533 116.227 149.411C117.721 149.289 119.187 149.902 120.452 150.719C121.53 151.415 122.966 151.127 124.107 150.546C124.564 150.313 125 150.038 125.435 149.763C126.088 149.351 126.74 148.94 127.459 148.673C129.462 147.93 131.87 148.49 133.359 150.044C134.264 150.989 135.812 150.736 137.013 150.239C137.186 150.167 137.36 150.092 137.534 150.016C138.576 149.564 139.653 149.097 140.735 149.355C141.694 149.583 142.454 150.337 143.198 151.075C144.104 151.975 144.988 152.852 146.181 152.729C146.57 152.688 146.933 152.537 147.297 152.386C147.565 152.274 147.833 152.163 148.113 152.095C148.772 151.934 149.641 152.162 149.783 152.838C147.893 153.558 145.689 154.256 143.953 153.211C143.408 152.883 142.945 152.399 142.487 151.921C141.762 151.164 141.051 150.421 140.052 150.335C139.237 150.265 138.51 150.668 137.774 151.077C137.211 151.389 136.643 151.704 136.026 151.813ZM127.443 126.779C128.133 126.343 128.822 125.908 129.628 125.842C130.853 125.743 131.884 126.51 132.882 127.253L132.883 127.253C133.105 127.419 133.326 127.583 133.547 127.736C134.761 128.578 136.754 129.008 137.555 127.802C138.024 127.095 139.146 127.054 139.928 127.438C140.497 127.718 140.948 128.156 141.399 128.594C141.568 128.758 141.737 128.922 141.912 129.078C142.645 129.73 143.55 130.263 144.551 130.354C145.552 130.446 146.648 130.01 147.086 129.152C144.714 129.635 142.078 128.576 140.798 126.623C140.152 125.638 138.554 126.112 137.508 126.714C136.462 127.317 134.923 127.871 134.186 126.945C132.469 124.786 128.758 124.403 126.591 126.162C125.534 127.02 123.87 126.449 122.807 125.596C122.529 125.373 122.26 125.13 121.992 124.887C121.236 124.203 120.479 123.517 119.488 123.262C117.747 122.812 115.752 124.148 115.618 125.853C116.107 125.911 116.621 125.655 116.849 125.241C117.355 124.318 118.742 124.146 119.754 124.55C120.558 124.872 121.199 125.449 121.837 126.024C122.002 126.172 122.166 126.32 122.333 126.463C123.146 127.162 124.153 127.798 125.247 127.716C126.057 127.655 126.75 127.217 127.443 126.779Z" fill="#4F2222"/>
<path fill-rule="evenodd" clip-rule="evenodd" d="M137.942 50.2289C141.004 42.9027 149.251 38.1153 157.137 39.086C152.064 36.4037 146.182 32.2113 147.109 26.5512C147.822 22.1991 152.488 19.5613 156.866 19C163.299 18.1751 170.563 21.0945 173.073 27.0704C175.583 33.0463 171.106 41.3079 164.625 41.0539C170.077 46.4439 172.056 55.0628 169.5 62.2883C168.216 65.9163 162.661 66.1279 159.819 63.5314C156.976 60.9349 156.16 56.8535 155.497 53.0629C152.3 55.1351 148.591 56.4126 144.795 56.7493C146.586 57.3518 148.09 58.7546 148.815 60.4982C145.654 58.032 141.964 56.2466 138.067 55.2982C136.65 60.0563 135.218 64.9888 135.871 69.91C136.523 74.8311 139.856 79.763 144.747 80.6337C150.385 81.6375 155.12 77.1741 159.887 72.6803C164.493 68.3381 169.129 63.9675 174.64 64.4733C179.259 64.8973 182.749 62.846 184.426 58.5251C186.102 54.2041 184.584 48.8596 180.885 46.0627C178.687 46.1655 176.574 44.3389 176.36 42.1506C176.145 39.9623 177.863 37.7608 180.04 37.4354C175.419 30.8533 176.582 20.881 182.594 15.5371C188.606 10.1931 198.654 10.1996 204.659 15.5513C201.371 10.2474 204.488 2.23426 210.456 0.400608C216.424 -1.43304 223.43 3.27572 224.129 9.47555C224.827 15.6754 219.218 21.769 212.974 21.744C214.013 26.5417 218.409 30.4112 223.304 30.8361C221.212 33.2534 217.204 30.9753 215.47 28.29C215.223 27.9074 214.978 27.5085 214.729 27.1047L214.729 27.1044L214.729 27.104L214.729 27.1036L214.728 27.1031L214.728 27.1027L214.728 27.1022C213.234 24.673 211.635 22.0715 208.905 21.8166C212.817 26.4243 215.398 32.1475 216.262 38.1282C213.566 33.9458 211.634 29.2733 210.59 24.4091C210.972 28.2997 210.244 32.293 208.515 35.7996C210.552 34.8204 212.802 37.4159 212.474 39.6508C212.163 41.7762 210.522 43.4006 208.983 44.9242L208.98 44.9268L208.968 44.9391L208.883 45.0227L208.746 45.1592C204.182 49.6918 200.219 56.576 203.23 62.2584C204.788 65.2002 207.766 66.9002 210.72 68.5866C211.611 69.0953 212.5 69.6027 213.347 70.1427C221.227 75.1645 226.177 83.8685 228.57 92.8953C230.964 101.922 231.081 111.374 231.184 120.711L231.842 180.669C231.915 187.258 231.565 194.8 226.452 198.963C229.578 194.627 230.93 189.051 230.135 183.767C224.886 201.516 220.761 219.262 219.324 239.834C218.858 246.513 218.843 251.932 218.828 257.165C218.797 268.051 218.768 278.132 214.688 297.074C214.144 299.599 215.333 302.576 216.836 304.991C217.974 306.819 220.48 308.299 222.801 309.669C225.836 311.461 228.554 313.066 227.481 315.018C225.294 318.997 216.406 318.525 209.791 318.174H209.791C209.101 318.137 208.437 318.102 207.807 318.073C205.062 317.948 202.114 317.498 200.15 315.58C197.708 313.195 197.57 309.382 197.578 305.97C197.663 269.754 196.285 233.534 193.448 197.428C192.906 225.396 192.359 253.428 188.822 281.177C188.526 283.5 188.14 285.855 187.752 288.224L187.752 288.224C186.833 293.824 185.903 299.497 186.124 304.991C186.224 307.49 186.948 310.095 187.667 312.684C188.172 314.502 188.675 316.312 188.958 318.073C189.504 321.462 187.043 322.627 184.426 322.436C184.079 322.411 183.769 322.543 183.456 322.676C183.143 322.809 182.827 322.944 182.47 322.921C182.182 322.903 181.892 322.798 181.593 322.691C181.279 322.577 180.955 322.46 180.612 322.436C180.264 322.412 179.898 322.471 179.525 322.531C179.132 322.594 178.732 322.658 178.338 322.627C178.103 322.609 177.943 322.518 177.764 322.417C177.507 322.272 177.212 322.106 176.603 322.106C176.165 322.106 175.858 322.164 175.571 322.217C175.181 322.29 174.827 322.357 174.235 322.263C173.89 322.209 173.452 322.316 172.987 322.429C172.059 322.654 171.021 322.906 170.397 321.967C169.435 320.52 170.426 317.695 171.416 314.871C172.172 312.717 172.927 310.565 172.815 309.025C172.705 307.504 172.394 304.563 172.066 301.457C171.626 297.294 171.155 292.837 171.094 291.112C170.171 265.082 168.158 238.852 164.087 213.126C157.395 217.667 150.086 221.298 142.424 223.887C139.73 224.798 139.096 228.249 138.909 231.084C137.541 251.837 136.266 273.299 143.397 292.838C152.651 268.692 159.614 243.671 164.162 218.218C161.934 238.886 156.952 259.256 149.389 278.622C146.842 285.143 143.317 294.197 147.109 299.187C149.492 302.323 149.518 305.236 149.545 308.229C149.561 309.999 149.577 311.798 150.082 313.687C150.495 315.234 151.143 316.695 151.801 318.179C152.871 320.591 153.966 323.062 154.121 326.053C154.244 328.438 150.725 327.929 150.379 327.684C150.233 327.581 150.045 327.272 149.853 326.959C149.591 326.531 149.325 326.094 149.155 326.163C148.999 326.227 149.045 326.425 149.107 326.693C149.22 327.179 149.385 327.894 148.493 328.45C147.635 328.984 147.098 328.823 146.656 328.691C146.385 328.61 146.151 328.54 145.901 328.647C145.65 328.755 145.445 328.953 145.245 329.146C144.934 329.445 144.635 329.734 144.192 329.659C143.146 329.482 142.8 329.136 142.632 328.969C142.564 328.9 142.525 328.861 142.48 328.876C142.425 328.894 142.416 329.012 142.405 329.166C142.383 329.465 142.351 329.902 141.952 330.017C141.348 330.191 139.695 329.49 139.339 329.144C139.081 328.894 138.974 329.203 138.846 329.569C138.715 329.943 138.564 330.376 138.211 330.331C135.368 329.968 134.395 327.358 134.657 325.807C133.164 329.388 131.096 331.737 127.464 333.035C126.959 333.216 126.598 332.938 126.299 332.707C126.11 332.561 125.945 332.434 125.783 332.452C125.699 332.462 125.702 332.565 125.706 332.703C125.713 332.943 125.723 333.288 125.288 333.429C124.602 333.652 124.271 333.568 123.402 333.31C122.824 333.139 122.73 332.111 122.668 331.444C122.638 331.109 122.615 330.866 122.544 330.866C122.448 330.866 122.398 331.097 122.336 331.38C122.262 331.721 122.171 332.138 121.963 332.312C121.234 332.923 120.815 332.977 120.184 332.15C119.987 331.891 120.028 331.538 120.06 331.268C120.085 331.052 120.104 330.889 119.993 330.866C119.926 330.852 119.838 330.982 119.72 331.155C119.533 331.429 119.274 331.81 118.915 331.895L118.881 331.903C117.884 332.14 117.548 332.219 116.776 331.174C116.606 330.945 116.681 330.512 116.748 330.12C116.816 329.724 116.877 329.369 116.67 329.311C116.451 329.25 116.205 329.824 115.942 330.436C115.71 330.978 115.465 331.55 115.215 331.737C114.725 332.103 114.385 331.842 113.96 331.514C113.923 331.486 113.885 331.457 113.846 331.427C111.487 326.937 114.245 321.848 116.753 317.22L116.753 317.22C117.075 316.625 117.393 316.038 117.696 315.461C125.21 301.129 123.323 283.729 119.263 268.065C118.214 264.017 117.03 259.984 115.846 255.951C112.449 244.381 109.051 232.802 108.815 220.807C108.771 218.59 108.836 216.368 108.902 214.148C109.022 210.056 109.142 205.967 108.581 201.92C107.91 197.091 106.291 192.479 104.672 187.865C104.011 185.982 103.35 184.099 102.753 182.201C98.8432 169.76 97.6933 156.628 97.182 143.598C96.7795 133.338 96.7765 122.912 99.4694 113.002C102.162 103.093 107.861 93.6334 116.67 88.3448C118.271 87.3831 119.985 86.5442 121.697 85.7061L121.698 85.7061L121.698 85.706C125.858 83.6697 130.009 81.6378 132.523 77.8596C135.842 72.8704 135.262 66.3477 134.556 60.3987C132.207 59.9722 130.464 57.4376 130.908 55.0941C131.352 52.7505 133.902 51.0279 136.244 51.4888L133.199 45.5392C133.261 45.6292 133.345 45.7619 133.447 45.9222C134.416 47.4441 136.966 51.4494 136.787 44.9095C136.9 45.7268 137.053 46.2848 137.23 46.9313L137.23 46.9313L137.23 46.9313L137.23 46.9314L137.23 46.9314L137.23 46.9315L137.23 46.9315L137.23 46.9315L137.23 46.9316L137.23 46.9316L137.23 46.9317L137.23 46.9317L137.23 46.9318L137.23 46.9318C137.442 47.7056 137.688 48.606 137.942 50.2289ZM223.504 184.383C224.141 183.619 224.387 182.612 224.593 181.64C227.84 166.287 225.53 150.848 218.184 136.979C201.888 138.373 185.453 138.144 169.202 136.296C166.796 136.023 165.26 138.743 164.496 141.038C160.25 153.791 158.738 167.445 160.092 180.816C160.325 183.122 163.095 184.124 165.385 184.49C170.635 185.33 173.535 184.792 177.835 183.994C181.137 183.381 185.265 182.615 191.917 182.201C192.702 182.153 192.666 179.466 192.621 176.041C192.573 172.386 192.514 167.892 193.428 164.865C196.248 213.177 198.22 261.538 199.341 309.92C199.376 311.426 199.441 313.032 200.309 314.264C201.54 316.01 203.928 316.412 206.061 316.56C212.667 317.018 225.26 317.287 225.776 314.868C225.452 312.708 222.993 311.479 220.69 310.327C220.228 310.096 219.774 309.869 219.343 309.638C215.649 307.654 213.688 303.361 213.317 299.187C212.986 295.458 213.713 291.739 214.433 288.053L214.433 288.05L214.536 287.521C214.587 287.259 214.638 286.997 214.688 286.736C216.871 275.319 217.803 263.663 217.461 252.044C217.432 251.038 217.393 250.032 217.354 249.026L217.353 249.024C217.216 245.493 217.079 241.96 217.352 238.439C217.691 234.056 218.66 229.756 219.628 225.463L219.629 225.46L219.629 225.458L219.63 225.455L219.63 225.453L219.631 225.451C219.83 224.569 220.028 223.688 220.221 222.807C222.853 210.788 224.476 198.549 225.066 186.26C215.45 190.441 203.843 189.708 194.83 184.353C202.65 187.435 211.297 187.367 219.604 186.075C221.037 185.852 222.577 185.497 223.504 184.383ZM229.955 109.606C228.938 100.69 226.825 91.9004 223.678 83.4963C223.108 81.9725 222.223 80.8235 221.276 79.5931C221.01 79.248 220.739 78.8965 220.469 78.5285C218.216 75.4584 214.959 73.4539 211.684 71.439C209.124 69.8639 206.554 68.2825 204.445 66.1807C201.551 68.8609 197.541 70.2988 193.602 70.0689C189.663 69.839 185.848 67.9443 183.286 64.9456C183.096 64.724 182.761 64.7197 182.47 64.7354C177.625 64.9972 172.756 65.8792 168.365 67.9422C163.974 70.0052 160.076 73.3227 157.879 77.6454C156.981 79.412 156.379 81.3114 155.815 83.2109C152.964 92.819 151.001 102.69 149.959 112.658C149.897 113.254 149.859 113.923 150.243 114.384C150.503 114.695 150.904 114.843 151.29 114.967C154.674 116.051 158.346 116.227 161.819 115.471L152.146 114.11C151.57 114.029 150.824 113.416 151.289 113.068C151.44 112.954 151.65 112.972 151.838 112.996L163.235 114.423C163.741 114.486 164.041 113.871 164.124 113.367C164.366 111.91 164.179 110.376 163.994 108.86C163.716 106.586 163.444 104.354 164.631 102.483C165.674 112.626 165.484 122.896 164.064 132.994C163.898 134.173 165.44 134.753 166.623 134.894C182.816 136.813 199.185 137.25 215.458 136.196C218.001 136.031 219.924 133.597 220.379 131.092C220.833 128.587 220.166 126.03 219.504 123.571L214.518 105.059C214.216 103.938 213.989 102.547 214.864 101.785L217.888 113.457C218.013 113.939 218.184 114.479 218.635 114.69C218.965 114.845 219.351 114.774 219.708 114.699L227.646 113.05C228.314 112.911 229.028 112.747 229.49 112.245C230.114 111.565 230.06 110.523 229.955 109.606ZM149.593 104.949C149.593 103.804 149.963 102.04 150.374 100.083C151.622 94.1417 153.246 86.4143 146.021 88.7834L145.895 88.8248C143.026 89.7663 139.634 90.8789 136.56 89.902C133.44 88.9108 130.792 86.5266 129.482 83.5287C130.314 82.9137 131.343 83.9356 131.973 84.755C135.032 88.7275 140.977 90.1517 145.506 87.997C147.724 86.9417 147.738 83.8424 147.416 81.409C142.542 83.0538 136.612 79.6258 135.609 74.5841C134.646 77.9367 132.409 80.9071 129.452 82.7604C128.34 83.4574 127.14 83.9965 125.942 84.5354L125.941 84.5355L125.941 84.5356L125.941 84.5357L125.941 84.5357L125.941 84.5358L125.941 84.5358L125.941 84.5359L125.941 84.5359L125.94 84.536L125.94 84.536L125.94 84.536L125.94 84.5361L125.94 84.5361L125.94 84.5362L125.94 84.5362L125.94 84.5363C125.563 84.7054 125.187 84.8745 124.814 85.0485C110.06 91.9227 99.6186 107.234 98.6146 123.469C98.5702 124.188 98.7161 125.138 99.4277 125.255L110.376 127.056C110.506 127.077 110.627 127.101 110.741 127.124L110.742 127.124L110.742 127.124L110.742 127.124L110.742 127.124L110.743 127.124C111.335 127.243 111.786 127.333 112.759 126.886C113.922 126.352 114.141 120.691 114.032 118.936C113.922 117.182 113.806 114.942 115.395 114.188C115.54 119.867 114.609 125.482 113.677 131.102C112.92 135.665 112.162 140.232 111.98 144.841C111.921 146.325 111.967 147.813 112.012 149.299C112.062 150.936 112.112 152.571 112.023 154.197C110.847 175.616 110.633 224.236 110.633 224.236C110.633 224.236 131.311 222.622 138.909 220.807C150.111 218.13 157.437 214.861 161.134 213.212C162.828 212.456 163.76 212.041 163.955 212.177C163.273 208.202 161.477 200.434 159.395 191.427C155.311 173.757 150.124 151.319 150.082 143.407C150.079 142.858 149.825 142.12 149.615 141.512C149.303 140.606 149.09 139.988 149.957 140.715L149.79 133.645C149.751 132.015 149.636 128.441 149.516 127.633C148.224 118.944 148.817 113.45 149.261 109.336C149.439 107.692 149.593 106.268 149.593 104.949ZM177.063 319.9C177.247 322.106 178.756 322.416 180.04 321.352C180.463 321 180.619 319.748 180.776 318.481C180.805 318.249 180.834 318.018 180.864 317.791C181.101 318.343 181.135 319.17 181.167 319.937C181.211 320.969 181.249 321.894 181.77 321.894C183.843 321.894 183.513 318.284 183.356 316.578C183.346 316.465 183.337 316.36 183.329 316.265C183.754 315.647 184.442 317.304 184.267 318.262C184.092 319.22 184.069 320.451 184.761 321.138C185.861 322.232 187.562 320.465 187.767 318.927C188.124 316.243 187.217 313.668 186.304 311.072C185.659 309.241 185.011 307.399 184.799 305.5C184.523 303.022 185.002 300.534 185.474 298.082L185.545 297.713C189.825 275.373 190.526 252.524 191.215 229.788L192.586 184.506C182.55 186.922 172.013 187.243 161.848 185.442C161.28 185.342 161.089 186.174 161.153 186.746C162.337 197.333 163.99 207.881 165.642 218.426L165.642 218.426L165.642 218.426L165.642 218.426L165.642 218.427L165.642 218.427L165.643 218.427L165.643 218.428L165.643 218.428L165.643 218.428L165.643 218.429L165.643 218.429L165.643 218.429L165.643 218.43L165.643 218.43L165.643 218.43L165.643 218.43C168.781 238.454 171.917 258.463 171.831 278.692C171.825 280.078 171.804 281.466 171.783 282.854C171.69 289.028 171.598 295.219 172.815 301.255C172.928 301.813 173.051 302.373 173.175 302.935C173.791 305.73 174.417 308.565 173.729 311.309C173.451 312.418 172.962 313.507 172.478 314.587C171.549 316.656 170.633 318.698 171.231 320.805C171.403 321.409 171.873 322.074 172.492 321.967C173.254 321.836 173.257 320.904 173.26 319.99C173.263 319.07 173.266 318.168 174.043 318.118C173.908 319.487 174.692 321.768 175.586 321.495C176.156 321.495 176.259 320.469 176.37 319.368C176.447 318.603 176.527 317.803 176.77 317.287C177.217 318.008 177.144 318.735 177.087 319.297C177.064 319.531 177.043 319.736 177.063 319.9ZM158.246 170.343C158.192 163.763 159.475 157.253 160.753 150.798C161.792 145.552 162.897 140.145 165.915 135.728C165.015 136.152 163.904 135.5 163.472 134.604C163.04 133.708 163.102 132.664 163.174 131.672L164.161 117.981C164.214 117.241 163.88 116.165 163.173 116.39C159.522 117.552 155.48 117.445 151.896 116.092C151.359 115.889 151.031 116.681 151.006 117.253C149.837 143.736 158.328 180.324 158.246 170.343ZM144.596 324.696C145.124 324.622 145.522 325.821 145.854 326.82C146.016 327.306 146.162 327.745 146.299 327.965C146.74 328.674 147.942 328.404 148.365 327.684C148.589 327.303 148.553 326.419 148.522 325.67C148.495 325.006 148.472 324.449 148.64 324.449C149.581 324.449 149.884 325.203 150.173 325.92C150.459 326.631 150.73 327.306 151.593 327.182C152.298 327.081 152.753 326.373 152.952 325.69C153.671 323.216 152.324 320.941 150.949 318.618C150.206 317.363 149.454 316.094 149.017 314.772C148.431 313.002 148.421 311.115 148.412 309.229C148.402 307.244 148.392 305.261 147.708 303.42C147.27 302.24 146.575 301.181 145.883 300.125L145.882 300.125L145.881 300.122L145.88 300.121C145.739 299.906 145.599 299.692 145.46 299.477C138.328 288.378 137.043 274.587 136.787 261.4C136.556 249.463 137.006 237.513 138.135 225.627L133.666 226.266L111.142 229.488C114.578 249.834 120.266 269.722 125.944 289.561C126.669 292.096 127.397 294.638 128.408 297.074C129.489 299.678 130.89 302.148 132.57 304.413C135.09 307.808 134.9 312.388 134.723 316.642C134.716 316.824 134.708 317.005 134.701 317.185C134.69 317.465 134.677 317.75 134.664 318.037C134.476 322.266 134.258 327.141 137.942 329.011C138.849 329.471 138.724 328.626 138.57 327.579C138.45 326.769 138.313 325.838 138.622 325.298C138.723 326.272 138.835 327.283 139.339 328.123C139.843 328.964 140.859 329.583 141.801 329.311C142.067 329.166 141.957 328.519 141.825 327.743C141.683 326.91 141.516 325.928 141.759 325.255C142.054 325.736 142.183 326.238 142.317 326.761C142.46 327.32 142.61 327.903 142.974 328.51C143.604 329.562 145.193 328.969 145.299 327.995C145.359 327.448 145.129 326.94 144.904 326.441C144.641 325.862 144.385 325.295 144.596 324.696ZM108.366 195.753C109.68 179.693 110.996 163.606 110.814 147.493C110.811 147.2 110.807 146.906 110.803 146.612C110.772 144.165 110.74 141.715 110.992 139.283C111.256 136.749 111.828 134.247 112.693 131.85L99.3048 130.22C99.1195 130.197 98.9046 130.184 98.7753 130.319C98.6778 130.42 98.6631 130.573 98.6539 130.713C97.2052 152.753 100.542 175.095 108.366 195.753ZM219.097 117.023L220.729 123.615C221.283 125.855 221.842 128.135 221.711 130.438C221.58 132.741 220.653 135.113 218.769 136.446C224.531 144.576 226.501 154.826 226.818 164.782C226.986 170.077 226.73 175.37 226.474 180.663V180.663V180.663V180.664V180.664V180.664V180.664V180.664V180.664V180.664V180.665V180.665V180.665V180.665V180.665V180.665V180.665V180.666V180.666V180.666V180.666V180.666V180.667V180.667V180.667V180.667V180.667V180.667V180.668V180.668V180.668C226.249 185.328 226.023 189.989 226.087 194.651C229.974 184.329 230.129 173.035 230.237 162.006L230.527 132.245C230.587 126.142 230.645 120.014 229.845 113.964L220.469 115.816C219.796 115.949 218.932 116.358 219.097 117.023ZM185.211 15.1675C180.952 17.3149 178.742 22.3708 178.841 27.1366C178.883 29.1254 179.445 31.3669 181.194 32.3161C182.32 32.9267 183.795 32.8231 184.824 32.0612C185.853 31.2993 186.381 29.9189 186.124 28.6655C186.002 28.0704 186.81 27.6177 187.367 27.8618C187.924 28.1059 188.192 28.7485 188.271 29.3508C188.302 29.5829 188.312 29.8178 188.323 30.0525C188.34 30.4268 188.357 30.8004 188.455 31.1608C188.724 32.1555 189.65 32.9369 190.677 33.0355C191.703 33.1341 192.762 32.5434 193.216 31.6183C193.333 31.3792 193.414 31.1202 193.495 30.8623L193.495 30.8621C193.633 30.4226 193.77 29.9862 194.083 29.6573C194.579 29.1354 195.779 29.3856 195.62 30.088C195.296 31.5246 196.812 32.9411 198.277 32.7801C199.742 32.619 200.869 31.2207 201.033 29.7572L201.046 29.6458V29.6458C201.134 28.845 201.247 27.8141 202.026 27.7447C202.676 28.3914 202.824 29.3597 202.971 30.3144C203.135 31.3809 203.296 32.4305 204.15 32.9961C205.36 33.7985 207.03 32.8921 207.853 31.6961C209.029 29.9883 209.262 27.7567 208.841 25.727C208.421 23.6974 207.404 21.839 206.246 20.1194C205.374 18.8247 204.405 17.5788 203.213 16.5704C199.503 13.4319 194.145 13.0241 189.362 13.891C187.932 14.1502 186.508 14.5136 185.211 15.1675ZM124.931 290.168C124.42 292.9 124.21 295.654 124.001 298.407C123.791 301.161 123.581 303.914 123.071 306.646C122.926 307.421 121.818 309.533 120.41 312.217C117.588 317.598 113.56 325.278 113.672 329.084C113.692 329.771 114.004 331.125 114.586 331.041C115.68 330.883 115.883 329.675 116.073 328.55L116.073 328.549C116.096 328.413 116.119 328.277 116.143 328.145C116.366 326.925 116.551 326.553 117.779 326.734C118.155 326.852 118.155 327.326 117.73 328.145C117.306 328.963 116.994 329.993 117.492 330.769C117.989 331.545 119.558 331.338 119.481 330.42C119.42 329.687 119.943 328.947 120.655 328.76C120.894 329.178 120.792 329.743 120.695 330.274C120.576 330.93 120.467 331.533 121.028 331.737C121.795 332.016 122.209 330.877 122.352 330.073C122.494 329.269 123.583 328.405 123.929 329.145C123.012 330.26 122.062 332.896 124.602 332.896C125.308 332.896 125.298 331.745 125.287 330.594C125.282 330.018 125.277 329.443 125.361 329.011C126.04 328.968 126.316 329.896 126.195 330.564C126.166 330.723 126.129 330.862 126.096 330.989C125.989 331.394 125.916 331.673 126.24 332.077C126.843 332.829 128.06 332.267 128.753 331.597C131.431 329.003 132.863 325.792 133.411 322.106C133.959 318.42 133.697 314.667 133.434 310.95C133.298 309.018 133.116 306.961 131.931 305.427C128.48 300.959 126.066 295.697 124.931 290.168ZM193.561 33.3584C192.232 34.7338 189.739 34.7192 188.426 33.3284C188.305 33.1994 188.192 33.0606 188.079 32.922C187.848 32.6379 187.617 32.3545 187.312 32.1573C186.857 31.8639 186.139 31.8622 185.877 32.335C184.778 34.3121 181.796 34.9069 180.022 33.5023L183.701 47.5077C184.385 50.1149 185.142 52.8512 187.043 54.7638C188.243 55.9712 189.811 56.7489 191.414 57.322C192.276 57.6302 193.175 57.8881 194.091 57.8623C195.115 57.8333 196.099 57.4498 197.005 56.9715C200.806 54.9654 203.51 51.2652 205.035 47.2497C206.56 43.2342 207.012 38.8952 207.194 34.6042C205.131 35.3069 202.632 34.3507 201.566 32.4509C200.144 33.8247 197.898 34.2715 196.058 33.5469C195.988 33.5196 195.917 33.4911 195.845 33.4621C195.056 33.1444 194.129 32.7712 193.561 33.3584ZM168.627 49.8291C167.366 45.7668 164.229 42.1868 160.147 40.9797C158.674 40.5439 157.122 40.4178 155.586 40.4519C148.247 40.6146 140.732 45.1076 138.642 52.1383C138.475 52.6987 138.352 53.3363 138.646 53.8415C138.93 54.3279 139.513 54.5403 140.057 54.6874C144.813 55.9739 150.145 54.9185 154.051 51.9174L154.153 51.8392C154.582 51.507 155.027 51.1629 155.561 51.0813C156.136 50.9933 156.827 51.3716 156.824 51.9531C156.798 56.9413 159.3 62.2813 163.955 64.0831C164.925 64.4587 166.107 64.6425 166.94 64.0191C167.473 63.6204 167.748 62.9722 167.975 62.3473C169.43 58.3504 169.888 53.8914 168.627 49.8291ZM148.872 29.9889C149.761 31.9981 151.398 33.5769 153.109 34.9558C156.087 37.3552 159.6 39.375 163.423 39.5122C167.247 39.6494 171.346 37.4157 172.331 33.7218C172.843 31.799 172.482 29.7466 171.869 27.8533C171.23 25.8766 170.224 23.8814 168.445 22.8058C163.645 19.9036 157.427 19.4869 152.282 21.7227C151.185 22.1995 150.109 22.811 149.36 23.7427C147.982 25.4547 147.982 27.9797 148.872 29.9889ZM219.694 15.199C221.827 11.2702 221.417 6.1037 218.693 2.55896C218.299 2.04673 217.849 1.55692 217.275 1.26027C216.713 0.969995 216.068 0.883571 215.436 0.860161C212.242 0.741887 209.029 2.21309 207.033 4.70698C205.037 7.20087 204.308 10.6569 205.126 13.7436C205.581 13.5285 205.754 12.9819 205.882 12.4952C206.01 12.0084 206.189 11.462 206.648 11.2545C207.107 11.0469 207.775 11.5933 207.469 11.9925C206.444 13.3264 205.954 15.0585 206.128 16.7308C206.298 17.0968 206.825 16.6863 206.971 16.3101L207.626 14.623C207.78 14.2262 207.953 13.8049 208.306 13.567C208.659 13.329 209.246 13.3973 209.389 13.7983L207.766 17.1521C207.556 17.5849 207.441 18.2626 207.899 18.4073L212.426 14.9497C213.005 15.6054 212.473 16.6621 211.769 17.1808C211.553 17.3399 211.319 17.481 211.085 17.622C210.557 17.9407 210.03 18.2582 209.72 18.7791C211.256 18.9616 212.814 18.9689 214.352 18.8008C215.173 18.7111 216 18.568 216.75 18.2217C218.049 17.6214 219.011 16.4564 219.694 15.199ZM185.532 65.0625C187.183 66.7679 189.593 67.4786 191.917 67.9665C195.364 68.6902 199.319 68.9565 202.048 66.732C202.608 66.2759 203.129 65.5375 202.825 64.8828C201.543 62.1163 201.067 58.9821 201.471 55.9601C200.904 55.8645 200.449 56.3912 200.08 56.8318C198.682 58.4999 196.643 59.6972 194.468 59.7939C191.446 59.9283 188.757 58.0301 186.335 56.2194C186.151 58.2632 185.585 60.2721 184.677 62.1123C184.193 63.0921 184.771 64.2773 185.532 65.0625ZM110.966 227.333C111.75 227.828 112.749 227.76 113.672 227.674C127.425 226.393 141.6 224.748 153.608 217.927C143.56 221.636 132.85 223.115 122.239 224.57C118.389 225.098 114.47 225.626 110.633 225.007C109.876 225.541 110.183 226.839 110.966 227.333ZM148.325 81.7783L148.64 85.6338C148.666 85.96 148.697 86.2979 148.858 86.5827C149.054 86.9287 149.414 87.1446 149.757 87.345L152.459 88.9195C152.588 88.9952 152.739 89.0735 152.882 89.0278C153.054 88.973 153.123 88.7723 153.169 88.598L155.626 79.2511C153.129 79.8923 150.684 80.7385 148.325 81.7783ZM111.596 130.249C111.825 130.259 112.062 130.267 112.274 130.18C112.849 129.946 112.952 129.191 112.967 128.572C108.194 128.15 103.455 127.341 98.8127 126.153C98.1264 126.655 98.2575 127.795 98.8588 128.397C99.4601 128.998 100.346 129.194 101.185 129.339C104.62 129.933 108.113 130.104 111.596 130.249ZM134.198 58.3383C134.922 58.5901 135.599 57.7927 135.756 57.0435C135.809 56.7958 135.834 56.5394 135.86 56.2837C135.911 55.7658 135.963 55.2506 136.234 54.8155C136.635 54.1719 136.081 53.2612 135.346 53.077C134.61 52.8928 133.839 53.2368 133.235 53.6944C132.242 54.4451 131.482 55.809 132.054 56.9138C132.458 57.6955 133.366 58.0489 134.198 58.3383ZM210.978 38.0772C210.913 37.8219 210.82 37.5658 210.645 37.3689C210.128 36.7872 209.102 36.9993 208.596 37.5903C208.09 38.1814 207.964 38.9992 207.867 39.7712C207.746 40.7348 207.637 41.6999 207.541 42.6663C207.516 42.919 207.613 43.2874 207.86 43.2284C210.034 42.7098 211.528 40.2417 210.978 38.0772ZM180.475 43.8692C180.637 43.7775 180.791 43.658 180.874 43.4916C181.001 43.2352 180.933 42.9294 180.862 42.652L180.443 41.0072C180.279 40.3596 180.026 39.6135 179.39 39.4067C178.679 39.1757 177.961 39.7936 177.633 40.4645C177.15 41.4566 177.194 42.7708 177.982 43.5437C178.624 44.173 179.693 44.3126 180.475 43.8692ZM211.954 20.5757C211.411 20.3032 210.772 20.2276 210.18 20.366C210.676 20.9204 211.513 21.14 212.217 20.9C212.419 20.7919 212.213 20.4073 212.011 20.5144L211.954 20.5757ZM218.364 112.88L227.633 110.63C227.794 110.591 227.977 110.554 228.117 110.634C228.482 110.84 228.043 111.314 227.644 111.463C225.119 112.412 222.434 113.022 219.708 113.268C219.207 113.313 218.58 113.286 218.364 112.88ZM141.043 61.7954C141.327 61.6399 141.433 61.3444 141.539 61.0473C141.584 60.9213 141.629 60.795 141.688 60.679C141.886 60.2893 142.597 60.0417 142.764 60.4429C143.363 61.8748 144.999 62.8916 146.682 62.8783C147.285 62.8735 147.53 63.6916 147.166 64.1295C146.801 64.5675 146.141 64.6855 145.54 64.7336C145.036 64.0218 144.167 63.6496 143.299 63.2777C142.419 62.9009 141.54 62.5244 141.043 61.7954ZM156.472 71.0207C156.175 70.9755 155.975 70.708 155.779 70.4469C155.562 70.1569 155.351 69.8746 155.02 69.9137C153.862 70.0503 153.153 68.698 152.787 67.5824C152.64 67.1365 152.783 66.3836 153.216 66.5573C154.324 67.7752 155.857 68.5918 157.479 68.8279C158.108 68.9194 158.916 69.07 159.025 69.701L157.162 70.8019C156.95 70.9276 156.715 71.0579 156.472 71.0207ZM151.056 73.8635C147.44 75.1231 142.918 73.4999 141.207 70.3285C141.017 69.9764 140.359 70.1248 140.203 70.4906C140.047 70.8563 140.227 71.2658 140.434 71.6099C141.492 73.3699 143.348 74.714 145.465 75.2523C147.582 75.7905 149.932 75.5159 151.832 74.5081C151.715 74.164 151.424 73.7351 151.056 73.8635ZM147.526 65.8694C147.838 65.4554 148.182 65.0355 148.658 64.8338C149.134 64.632 149.776 64.729 150.034 65.1784C149.084 66.0335 148.225 66.9909 147.477 68.0289C147.193 68.4229 146.913 68.8814 146.99 69.3613C147.067 69.8412 147.711 70.2097 148.055 69.8666C148.311 69.6102 148.812 69.8778 148.833 70.2406C148.854 70.6034 148.527 70.9128 148.174 70.995C147.821 71.0771 147.453 70.9872 147.105 70.8875C146.491 70.7119 145.81 70.4322 145.601 69.8277C145.409 69.2733 145.696 68.6762 145.993 68.1704C146.46 67.3752 146.972 66.6065 147.526 65.8694ZM189.055 36.8953C189.786 36.953 190.734 37.4414 190.436 38.0603C189.92 38.4623 189.209 38.3271 188.512 38.1945C188.305 38.1551 188.099 38.116 187.9 38.0912C187.052 37.986 186.203 38.1742 185.357 38.3619C184.424 38.5689 183.494 38.7752 182.573 38.5854C182.323 38.4273 182.364 38.0502 182.575 37.8497C182.786 37.6492 183.099 37.5792 183.394 37.5181C185.256 37.1329 187.154 36.7452 189.055 36.8953ZM200.145 37.4073C201.409 37.5628 202.7 37.5318 203.952 37.3159C204.144 36.729 203.247 36.3836 202.577 36.3188L199.429 36.0146C198.749 35.9489 198.016 35.8925 197.424 36.2024C196.832 36.5123 196.538 37.3465 197.047 37.7612C197.761 37.1062 198.915 37.252 199.94 37.3817L199.941 37.3818C200.01 37.3904 200.078 37.3991 200.145 37.4073ZM201.567 42.0136C201.523 42.1449 201.35 42.1907 201.202 42.2101C199.85 42.3881 198.426 42.0501 197.335 41.2922C197.074 41.1115 196.815 40.878 196.787 40.5787C196.76 40.2795 197.11 39.9615 197.398 40.102C198.905 40.8376 200.883 40.6496 202.196 39.6461C202.508 39.408 203.033 39.6971 203.075 40.0683C203.118 40.4395 202.823 40.7799 202.477 40.9738C202.27 41.0899 202.044 41.1691 201.817 41.2484L201.816 41.2485C201.664 41.3017 201.512 41.355 201.365 41.4196C201.302 41.631 201.384 41.8728 201.567 42.0136ZM197.382 48.3028C198.427 47.5494 199.383 46.2804 198.931 45.0812C197.056 47.5977 193.795 49.0326 190.65 48.7248C190.112 48.6722 189.647 49.1899 189.599 49.7223C189.551 50.2547 189.818 50.7676 190.148 51.191C191.671 53.1489 194.65 53.6795 196.934 52.6786C199.217 51.6777 200.766 49.3818 201.214 46.9507C201.305 46.4535 201.345 45.9013 201.062 45.4808C200.778 45.0602 200.053 44.9266 199.775 45.3506C200.261 46.0426 200.246 46.9715 200.027 47.7857C199.573 49.4763 198.29 50.9284 196.658 51.5991C195.025 52.2698 193.08 52.1439 191.549 51.2684C191.304 51.1279 191.053 50.9494 190.967 50.6818C190.882 50.4142 191.065 50.0574 191.348 50.0722C193.484 50.1845 195.653 49.5486 197.382 48.3028ZM190.357 40.6587C189.265 43.0352 186.166 43.6154 183.774 42.8209C183.088 42.5929 183.189 41.4105 183.802 41.0135C184.415 40.6165 185.2 40.7628 185.903 40.9267C186.605 41.0906 187.386 41.2478 188.008 40.8667C188.252 40.7172 188.445 40.4986 188.639 40.2796C188.804 40.0921 188.97 39.9044 189.169 39.7593C189.599 39.4445 190.357 39.4807 190.477 40.0175C190.526 40.2339 190.449 40.4586 190.357 40.6587ZM191.933 39.9542L191.426 44.2967C191.387 44.6268 191.352 44.9764 191.494 45.2778C191.711 45.7356 192.308 45.9397 192.808 45.8187C193.308 45.6977 193.707 45.315 193.965 44.8783C194.228 44.4331 194.06 43.5929 193.566 43.7657C193.433 43.812 193.339 43.9275 193.246 44.0408C193.134 44.1771 193.025 44.3102 192.856 44.3157C192.465 44.3287 192.471 43.742 192.601 43.38C193.144 41.8737 193.227 40.212 192.839 38.6607C192.249 38.6403 192 39.3798 191.933 39.9542ZM155.257 63.1583C156.941 63.7733 158.458 64.8309 159.613 66.1945C159.748 66.354 159.883 66.5276 159.917 66.7334C159.966 67.0376 159.748 67.3611 159.446 67.4308C157.711 65.4738 155.309 64.111 152.731 63.6205C153.127 62.7683 154.371 62.8344 155.257 63.1583ZM144.715 262.65C144.253 262.612 143.78 262.572 143.389 262.408C143.177 262.32 142.992 262.194 142.806 262.068C142.628 261.948 142.45 261.828 142.25 261.74C141.84 261.561 141.231 261.587 141.043 261.95C142.399 263.176 144.538 263.707 146.438 263.289C146.125 262.769 145.434 262.711 144.715 262.65ZM212.417 238.116L215.829 237.38C216.124 237.316 216.548 237.368 216.566 237.739C215.017 239.068 212.987 239.496 211.171 238.875C211.416 238.367 211.945 238.218 212.417 238.116ZM164.573 155.431C163.89 155.598 163.202 155.766 162.621 156.132C163.922 156.747 165.503 156.341 166.828 155.773C169.807 154.495 172.389 152.426 174.192 149.873C174.891 148.884 175.49 147.666 175.067 146.55C174.39 146.674 174.073 147.382 173.816 147.979C172.297 151.498 168.958 154.29 165.038 155.315C164.884 155.355 164.729 155.393 164.573 155.431ZM222.859 156.994C222.503 157.512 221.692 157.358 221.111 157.102C216.606 155.119 213.599 150.26 213.888 145.431C213.9 145.218 213.929 144.984 214.088 144.838C214.247 144.692 214.576 144.733 214.609 144.944C214.905 146.85 215.205 148.775 215.925 150.569C216.645 152.363 217.83 154.042 219.532 155.009C219.885 155.21 220.26 155.381 220.635 155.552L220.635 155.552L220.635 155.553L220.635 155.553L220.635 155.553C221.464 155.932 222.29 156.309 222.859 156.994ZM177.59 240.551C176.502 240.259 175.409 239.965 174.309 240.079C176.472 241.874 179.75 242.363 182.392 241.284C182.488 240.86 181.765 240.824 181.321 240.929C180.085 241.221 178.841 240.887 177.59 240.551ZM187.672 145.637C188.111 145.73 188.459 145.285 188.685 144.899C189.634 143.281 190.254 142.692 191.493 141.512L191.576 141.434C191.641 142.333 191.712 142.857 191.782 143.382L191.782 143.382L191.782 143.382C191.852 143.907 191.922 144.431 191.988 145.329C192.009 145.62 192.038 145.93 192.217 146.161C192.717 146.805 193.776 146.252 194.202 145.556C195.189 143.943 194.896 141.661 193.533 140.35C193.183 140.013 193.699 139.381 194.176 139.475C194.652 139.568 194.944 140.042 195.148 140.483C195.738 141.763 196.082 143.214 195.769 144.589C195.456 145.963 194.371 147.218 192.976 147.424C192.483 147.496 191.935 147.421 191.576 147.076C191.181 146.698 191.108 146.105 191.058 145.562L190.894 143.791C190.43 144.073 190.134 144.548 189.839 145.021C189.515 145.54 189.193 146.055 188.654 146.309C187.805 146.707 186.72 146.206 186.28 145.378C185.841 144.55 185.951 143.516 186.347 142.666C186.743 141.816 187.391 141.114 188.037 140.434C188.428 140.023 188.844 139.6 189.384 139.424C189.924 139.249 190.619 139.415 190.853 139.932C188.778 140.419 187.158 142.412 187.106 144.542C187.095 144.989 187.235 145.544 187.672 145.637ZM121.341 255.697C121.425 255.814 121.556 255.874 121.682 255.922C124.066 256.833 126.635 255.6 128.912 254.392C129.172 254.254 129.478 253.936 129.304 253.679C129.216 253.547 129.047 253.534 128.9 253.542C128.017 253.59 127.163 253.986 126.319 254.377C125.172 254.909 124.043 255.432 122.887 255.059C122.799 255.03 122.711 254.997 122.623 254.963C122.353 254.86 122.083 254.756 121.805 254.801C121.436 254.861 121.109 255.37 121.341 255.697Z" fill="#00160A"/>
<path fill-rule="evenodd" clip-rule="evenodd" d="M157.493 31.7716C157.738 33.3178 158.647 34.7743 159.996 35.7796C160.553 36.1948 160.863 36.8563 160.802 37.4988C160.947 37.81 160.285 37.8335 159.985 37.6276C158.225 36.4218 156.945 34.6774 156.416 32.7634C156.315 32.398 156.252 31.9778 156.504 31.6749C156.755 31.3719 157.434 31.399 157.493 31.7716V31.7716Z" fill="#00160A"/>
<path fill-rule="evenodd" clip-rule="evenodd" d="M151.02 50.7539C152.118 50.0772 153.299 49.208 154.529 49.5115C151.025 53.4915 145.429 54.536 140.429 53.6518C140.013 53.5782 139.551 53.4597 139.324 53.0723C139.098 52.6849 139.388 52.0091 139.792 52.14C143.501 53.3416 147.652 52.8292 151.02 50.7539V50.7539Z" fill="#00160A"/>
<circle cx="138.817" cy="67.7379" r="2.05266" fill="#4F2222"/>
<circle cx="154.212" cy="74.409" r="2.05266" fill="#4F2222"/>
<circle cx="186.285" cy="47.981" r="1.28291" fill="#4F2222"/>
<circle cx="203.219" cy="46.9547" r="1.28291" fill="#4F2222"/>
</svg>
